%TF.GenerationSoftware,KiCad,Pcbnew,(5.0.2)-1*%
%TF.CreationDate,2019-02-28T08:25:03+01:00*%
%TF.ProjectId,bldc_driver_board,626c6463-5f64-4726-9976-65725f626f61,rev?*%
%TF.SameCoordinates,Original*%
%TF.FileFunction,Other,User*%
%FSLAX46Y46*%
G04 Gerber Fmt 4.6, Leading zero omitted, Abs format (unit mm)*
G04 Created by KiCad (PCBNEW (5.0.2)-1) date 28.02.2019 08:25:03*
%MOMM*%
%LPD*%
G01*
G04 APERTURE LIST*
%ADD10C,0.100000*%
%ADD11C,0.050000*%
G04 APERTURE END LIST*
D10*
X31750000Y-166370000D02*
X31750000Y-46990000D01*
X111760000Y-166370000D02*
X31750000Y-166370000D01*
X111760000Y-46990000D02*
X111760000Y-166370000D01*
X31750000Y-46990000D02*
X111760000Y-46990000D01*
D11*
%TO.C,J5*%
X80240000Y-58380000D02*
X80240000Y-45380000D01*
X80240000Y-45380000D02*
X36600000Y-45380000D01*
X36600000Y-45380000D02*
X36600000Y-58380000D01*
X36600000Y-58380000D02*
X80240000Y-58380000D01*
%TO.C,C16*%
X103885000Y-56610000D02*
X100585000Y-56610000D01*
X103885000Y-55150000D02*
X103885000Y-56610000D01*
X100585000Y-55150000D02*
X103885000Y-55150000D01*
X100585000Y-56610000D02*
X100585000Y-55150000D01*
%TO.C,C1*%
X73345000Y-115160000D02*
X75245000Y-115160000D01*
X75245000Y-115160000D02*
X75245000Y-118520000D01*
X75245000Y-118520000D02*
X73345000Y-118520000D01*
X73345000Y-118520000D02*
X73345000Y-115160000D01*
%TO.C,C2*%
X87950000Y-114525000D02*
X89850000Y-114525000D01*
X89850000Y-114525000D02*
X89850000Y-117885000D01*
X89850000Y-117885000D02*
X87950000Y-117885000D01*
X87950000Y-117885000D02*
X87950000Y-114525000D01*
%TO.C,C3*%
X71435000Y-116615000D02*
X69535000Y-116615000D01*
X69535000Y-116615000D02*
X69535000Y-113255000D01*
X69535000Y-113255000D02*
X71435000Y-113255000D01*
X71435000Y-113255000D02*
X71435000Y-116615000D01*
%TO.C,C4*%
X67085000Y-113350000D02*
X67085000Y-115250000D01*
X67085000Y-115250000D02*
X63725000Y-115250000D01*
X63725000Y-115250000D02*
X63725000Y-113350000D01*
X63725000Y-113350000D02*
X67085000Y-113350000D01*
%TO.C,C5*%
X67085000Y-112710000D02*
X63725000Y-112710000D01*
X67085000Y-110810000D02*
X67085000Y-112710000D01*
X63725000Y-110810000D02*
X67085000Y-110810000D01*
X63725000Y-112710000D02*
X63725000Y-110810000D01*
%TO.C,C6*%
X54020000Y-150450000D02*
X54020000Y-147550000D01*
X54020000Y-147550000D02*
X53170000Y-147550000D01*
X53170000Y-147550000D02*
X53170000Y-144550000D01*
X53170000Y-144550000D02*
X54020000Y-144550000D01*
X54020000Y-144550000D02*
X54020000Y-141650000D01*
X61670000Y-141650000D02*
X54020000Y-141650000D01*
X61670000Y-150450000D02*
X54020000Y-150450000D01*
X62820000Y-142800000D02*
X61670000Y-141650000D01*
X62820000Y-149300000D02*
X61670000Y-150450000D01*
X62820000Y-149300000D02*
X62820000Y-147550000D01*
X62820000Y-144550000D02*
X62820000Y-142800000D01*
X62820000Y-147550000D02*
X63670000Y-147550000D01*
X63670000Y-147550000D02*
X63670000Y-144550000D01*
X63670000Y-144550000D02*
X62820000Y-144550000D01*
%TO.C,C7*%
X67050000Y-109070000D02*
X62490000Y-109070000D01*
X67050000Y-106830000D02*
X67050000Y-109070000D01*
X62490000Y-106830000D02*
X67050000Y-106830000D01*
X62490000Y-109070000D02*
X62490000Y-106830000D01*
%TO.C,C8*%
X41740000Y-147550000D02*
X42590000Y-147550000D01*
X41740000Y-144550000D02*
X41740000Y-147550000D01*
X42590000Y-144550000D02*
X41740000Y-144550000D01*
X42590000Y-147550000D02*
X42590000Y-149300000D01*
X42590000Y-142800000D02*
X42590000Y-144550000D01*
X42590000Y-142800000D02*
X43740000Y-141650000D01*
X42590000Y-149300000D02*
X43740000Y-150450000D01*
X43740000Y-141650000D02*
X51390000Y-141650000D01*
X43740000Y-150450000D02*
X51390000Y-150450000D01*
X51390000Y-147550000D02*
X51390000Y-150450000D01*
X52240000Y-147550000D02*
X51390000Y-147550000D01*
X52240000Y-144550000D02*
X52240000Y-147550000D01*
X51390000Y-144550000D02*
X52240000Y-144550000D01*
X51390000Y-141650000D02*
X51390000Y-144550000D01*
%TO.C,C9*%
X62490000Y-106530000D02*
X62490000Y-104290000D01*
X62490000Y-104290000D02*
X67050000Y-104290000D01*
X67050000Y-104290000D02*
X67050000Y-106530000D01*
X67050000Y-106530000D02*
X62490000Y-106530000D01*
%TO.C,C10*%
X56629000Y-114440000D02*
X56629000Y-115790000D01*
X56629000Y-115790000D02*
X57579000Y-115790000D01*
X57579000Y-115790000D02*
X57579000Y-117890000D01*
X57579000Y-117890000D02*
X56629000Y-117890000D01*
X56629000Y-117890000D02*
X56629000Y-119240000D01*
X52979000Y-119240000D02*
X56629000Y-119240000D01*
X52979000Y-114440000D02*
X56629000Y-114440000D01*
X51829000Y-118090000D02*
X52979000Y-119240000D01*
X51829000Y-115590000D02*
X52979000Y-114440000D01*
X51829000Y-115590000D02*
X51829000Y-115790000D01*
X51829000Y-117890000D02*
X51829000Y-118090000D01*
X51829000Y-115790000D02*
X50879000Y-115790000D01*
X50879000Y-115790000D02*
X50879000Y-117890000D01*
X50879000Y-117890000D02*
X51829000Y-117890000D01*
%TO.C,C11*%
X75245000Y-106455000D02*
X73345000Y-106455000D01*
X73345000Y-106455000D02*
X73345000Y-103095000D01*
X73345000Y-103095000D02*
X75245000Y-103095000D01*
X75245000Y-103095000D02*
X75245000Y-106455000D01*
%TO.C,C13*%
X100585000Y-52800000D02*
X100585000Y-51340000D01*
X100585000Y-51340000D02*
X103885000Y-51340000D01*
X103885000Y-51340000D02*
X103885000Y-52800000D01*
X103885000Y-52800000D02*
X100585000Y-52800000D01*
%TO.C,C14*%
X64328000Y-132109000D02*
X64328000Y-128749000D01*
X66228000Y-132109000D02*
X64328000Y-132109000D01*
X66228000Y-128749000D02*
X66228000Y-132109000D01*
X64328000Y-128749000D02*
X66228000Y-128749000D01*
%TO.C,C17*%
X100585000Y-60547000D02*
X100585000Y-59087000D01*
X100585000Y-59087000D02*
X103885000Y-59087000D01*
X103885000Y-59087000D02*
X103885000Y-60547000D01*
X103885000Y-60547000D02*
X100585000Y-60547000D01*
%TO.C,C19*%
X99888000Y-139290000D02*
X101788000Y-139290000D01*
X101788000Y-139290000D02*
X101788000Y-142650000D01*
X101788000Y-142650000D02*
X99888000Y-142650000D01*
X99888000Y-142650000D02*
X99888000Y-139290000D01*
%TO.C,C20*%
X88580000Y-99031000D02*
X88580000Y-102391000D01*
X86680000Y-99031000D02*
X88580000Y-99031000D01*
X86680000Y-102391000D02*
X86680000Y-99031000D01*
X88580000Y-102391000D02*
X86680000Y-102391000D01*
%TO.C,C21*%
X88580000Y-102714000D02*
X88580000Y-106074000D01*
X86680000Y-102714000D02*
X88580000Y-102714000D01*
X86680000Y-106074000D02*
X86680000Y-102714000D01*
X88580000Y-106074000D02*
X86680000Y-106074000D01*
%TO.C,C22*%
X88580000Y-109757000D02*
X86680000Y-109757000D01*
X86680000Y-109757000D02*
X86680000Y-106397000D01*
X86680000Y-106397000D02*
X88580000Y-106397000D01*
X88580000Y-106397000D02*
X88580000Y-109757000D01*
%TO.C,D1*%
X68388000Y-127869000D02*
X68388000Y-125369000D01*
X68388000Y-125369000D02*
X69788000Y-125369000D01*
X69788000Y-125369000D02*
X69788000Y-127869000D01*
X69788000Y-127869000D02*
X68388000Y-127869000D01*
%TO.C,D2*%
X80710000Y-144760000D02*
X79310000Y-144760000D01*
X80710000Y-142260000D02*
X80710000Y-144760000D01*
X79310000Y-142260000D02*
X80710000Y-142260000D01*
X79310000Y-144760000D02*
X79310000Y-142260000D01*
%TO.C,IC1*%
X74225000Y-111125000D02*
X74225000Y-114275000D01*
X74225000Y-114275000D02*
X75625000Y-114275000D01*
X75625000Y-114275000D02*
X75625000Y-114875000D01*
X75625000Y-114875000D02*
X76225000Y-114875000D01*
X76225000Y-114875000D02*
X76225000Y-116275000D01*
X76225000Y-116275000D02*
X79375000Y-116275000D01*
X74225000Y-111125000D02*
X74225000Y-107975000D01*
X74225000Y-107975000D02*
X75625000Y-107975000D01*
X75625000Y-107975000D02*
X75625000Y-107375000D01*
X75625000Y-107375000D02*
X76225000Y-107375000D01*
X76225000Y-107375000D02*
X76225000Y-105975000D01*
X76225000Y-105975000D02*
X79375000Y-105975000D01*
X84525000Y-111125000D02*
X84525000Y-114275000D01*
X84525000Y-114275000D02*
X83125000Y-114275000D01*
X83125000Y-114275000D02*
X83125000Y-114875000D01*
X83125000Y-114875000D02*
X82525000Y-114875000D01*
X82525000Y-114875000D02*
X82525000Y-116275000D01*
X82525000Y-116275000D02*
X79375000Y-116275000D01*
X84525000Y-111125000D02*
X84525000Y-107975000D01*
X84525000Y-107975000D02*
X83125000Y-107975000D01*
X83125000Y-107975000D02*
X83125000Y-107375000D01*
X83125000Y-107375000D02*
X82525000Y-107375000D01*
X82525000Y-107375000D02*
X82525000Y-105975000D01*
X82525000Y-105975000D02*
X79375000Y-105975000D01*
%TO.C,J1*%
X41680000Y-153710000D02*
X41680000Y-166710000D01*
X41680000Y-166710000D02*
X59920000Y-166710000D01*
X59920000Y-166710000D02*
X59920000Y-153710000D01*
X59920000Y-153710000D02*
X41680000Y-153710000D01*
%TO.C,J2*%
X47530000Y-87100000D02*
X41380000Y-87100000D01*
X47530000Y-136400000D02*
X47530000Y-87100000D01*
X41380000Y-136400000D02*
X47530000Y-136400000D01*
X41380000Y-87100000D02*
X41380000Y-136400000D01*
%TO.C,J3*%
X102340000Y-87100000D02*
X102340000Y-136400000D01*
X102340000Y-136400000D02*
X108490000Y-136400000D01*
X108490000Y-136400000D02*
X108490000Y-87100000D01*
X108490000Y-87100000D02*
X102340000Y-87100000D01*
%TO.C,J6*%
X83720000Y-166870000D02*
X67410000Y-166870000D01*
X83720000Y-166870000D02*
X83720000Y-148130000D01*
X67410000Y-148130000D02*
X67410000Y-166870000D01*
X67410000Y-148130000D02*
X83720000Y-148130000D01*
%TO.C,J7*%
X87730000Y-148130000D02*
X104040000Y-148130000D01*
X87730000Y-148130000D02*
X87730000Y-166870000D01*
X104040000Y-166870000D02*
X104040000Y-148130000D01*
X104040000Y-166870000D02*
X87730000Y-166870000D01*
%TO.C,JP1*%
X69120000Y-141860000D02*
X70580000Y-141860000D01*
X70580000Y-141860000D02*
X70580000Y-145160000D01*
X70580000Y-145160000D02*
X69120000Y-145160000D01*
X69120000Y-145160000D02*
X69120000Y-141860000D01*
%TO.C,Q1*%
X52395000Y-65570000D02*
X45395000Y-65570000D01*
X45395000Y-65570000D02*
X45395000Y-76670000D01*
X45395000Y-76670000D02*
X52395000Y-76670000D01*
X52395000Y-76670000D02*
X52395000Y-65570000D01*
%TO.C,Q2*%
X54920000Y-65570000D02*
X54920000Y-76670000D01*
X61920000Y-65570000D02*
X54920000Y-65570000D01*
X61920000Y-76670000D02*
X61920000Y-65570000D01*
X54920000Y-76670000D02*
X61920000Y-76670000D01*
%TO.C,Q3*%
X71445000Y-76670000D02*
X71445000Y-65570000D01*
X64445000Y-76670000D02*
X71445000Y-76670000D01*
X64445000Y-65570000D02*
X64445000Y-76670000D01*
X71445000Y-65570000D02*
X64445000Y-65570000D01*
%TO.C,Q4*%
X73970000Y-76670000D02*
X80970000Y-76670000D01*
X80970000Y-76670000D02*
X80970000Y-65570000D01*
X80970000Y-65570000D02*
X73970000Y-65570000D01*
X73970000Y-65570000D02*
X73970000Y-76670000D01*
%TO.C,Q5*%
X90495000Y-65570000D02*
X83495000Y-65570000D01*
X83495000Y-65570000D02*
X83495000Y-76670000D01*
X83495000Y-76670000D02*
X90495000Y-76670000D01*
X90495000Y-76670000D02*
X90495000Y-65570000D01*
%TO.C,Q6*%
X93020000Y-65570000D02*
X93020000Y-76670000D01*
X100020000Y-65570000D02*
X93020000Y-65570000D01*
X100020000Y-76670000D02*
X100020000Y-65570000D01*
X93020000Y-76670000D02*
X100020000Y-76670000D01*
%TO.C,R1*%
X75118000Y-124616000D02*
X73218000Y-124616000D01*
X73218000Y-124616000D02*
X73218000Y-121256000D01*
X73218000Y-121256000D02*
X75118000Y-121256000D01*
X75118000Y-121256000D02*
X75118000Y-124616000D01*
%TO.C,R2*%
X71313000Y-124616000D02*
X71313000Y-121256000D01*
X73213000Y-124616000D02*
X71313000Y-124616000D01*
X73213000Y-121256000D02*
X73213000Y-124616000D01*
X71313000Y-121256000D02*
X73213000Y-121256000D01*
%TO.C,R3*%
X86675000Y-114525000D02*
X86675000Y-117885000D01*
X84775000Y-114525000D02*
X86675000Y-114525000D01*
X84775000Y-117885000D02*
X84775000Y-114525000D01*
X86675000Y-117885000D02*
X84775000Y-117885000D01*
%TO.C,R4*%
X63725000Y-118425000D02*
X63725000Y-116525000D01*
X63725000Y-116525000D02*
X67085000Y-116525000D01*
X67085000Y-116525000D02*
X67085000Y-118425000D01*
X67085000Y-118425000D02*
X63725000Y-118425000D01*
%TO.C,R5*%
X73340000Y-145190000D02*
X71440000Y-145190000D01*
X71440000Y-145190000D02*
X71440000Y-141830000D01*
X71440000Y-141830000D02*
X73340000Y-141830000D01*
X73340000Y-141830000D02*
X73340000Y-145190000D01*
%TO.C,R9*%
X64328000Y-124939000D02*
X66228000Y-124939000D01*
X66228000Y-124939000D02*
X66228000Y-128299000D01*
X66228000Y-128299000D02*
X64328000Y-128299000D01*
X64328000Y-128299000D02*
X64328000Y-124939000D01*
%TO.C,R10*%
X68138000Y-132109000D02*
X68138000Y-128749000D01*
X70038000Y-132109000D02*
X68138000Y-132109000D01*
X70038000Y-128749000D02*
X70038000Y-132109000D01*
X68138000Y-128749000D02*
X70038000Y-128749000D01*
%TO.C,R11*%
X99089000Y-49215000D02*
X99089000Y-51115000D01*
X99089000Y-51115000D02*
X95729000Y-51115000D01*
X95729000Y-51115000D02*
X95729000Y-49215000D01*
X95729000Y-49215000D02*
X99089000Y-49215000D01*
%TO.C,R12*%
X99089000Y-53025000D02*
X99089000Y-54925000D01*
X99089000Y-54925000D02*
X95729000Y-54925000D01*
X95729000Y-54925000D02*
X95729000Y-53025000D01*
X95729000Y-53025000D02*
X99089000Y-53025000D01*
%TO.C,R13*%
X95729000Y-56962000D02*
X99089000Y-56962000D01*
X95729000Y-58862000D02*
X95729000Y-56962000D01*
X99089000Y-58862000D02*
X95729000Y-58862000D01*
X99089000Y-56962000D02*
X99089000Y-58862000D01*
%TO.C,R14*%
X103915000Y-51115000D02*
X100555000Y-51115000D01*
X103915000Y-49215000D02*
X103915000Y-51115000D01*
X100555000Y-49215000D02*
X103915000Y-49215000D01*
X100555000Y-51115000D02*
X100555000Y-49215000D01*
%TO.C,R15*%
X100555000Y-54925000D02*
X100555000Y-53025000D01*
X100555000Y-53025000D02*
X103915000Y-53025000D01*
X103915000Y-53025000D02*
X103915000Y-54925000D01*
X103915000Y-54925000D02*
X100555000Y-54925000D01*
%TO.C,R16*%
X103915000Y-58862000D02*
X100555000Y-58862000D01*
X103915000Y-56962000D02*
X103915000Y-58862000D01*
X100555000Y-56962000D02*
X103915000Y-56962000D01*
X100555000Y-58862000D02*
X100555000Y-56962000D01*
%TO.C,R17*%
X59586000Y-80905000D02*
X61826000Y-80905000D01*
X61826000Y-80905000D02*
X61826000Y-85465000D01*
X61826000Y-85465000D02*
X59586000Y-85465000D01*
X59586000Y-85465000D02*
X59586000Y-80905000D01*
%TO.C,R18*%
X78890000Y-80905000D02*
X81130000Y-80905000D01*
X81130000Y-80905000D02*
X81130000Y-85465000D01*
X81130000Y-85465000D02*
X78890000Y-85465000D01*
X78890000Y-85465000D02*
X78890000Y-80905000D01*
%TO.C,R19*%
X97940000Y-85465000D02*
X97940000Y-80905000D01*
X100180000Y-85465000D02*
X97940000Y-85465000D01*
X100180000Y-80905000D02*
X100180000Y-85465000D01*
X97940000Y-80905000D02*
X100180000Y-80905000D01*
%TO.C,U1*%
X97329000Y-143670000D02*
X97329000Y-138270000D01*
X89869000Y-143670000D02*
X89869000Y-138270000D01*
X97329000Y-143670000D02*
X89869000Y-143670000D01*
X97329000Y-138270000D02*
X89869000Y-138270000D01*
%TO.C,REF\002A\002A*%
X41550000Y-73660000D02*
G75*
G03X41550000Y-73660000I-3450000J0D01*
G01*
X110003000Y-73914000D02*
G75*
G03X110003000Y-73914000I-3450000J0D01*
G01*
X87270000Y-135890000D02*
G75*
G03X87270000Y-135890000I-3450000J0D01*
G01*
%TD*%
M02*
