M48
;DRILL file {KiCad (5.0.2)-1} date 28.02.2019 08:25:15
;FORMAT={-:-/ absolute / inch / decimal}
FMAT,2
INCH,TZ
T1C0.0079
T2C0.0120
T3C0.0299
T4C0.0394
T5C0.0551
%
G90
G05
T1
X3.0364Y-4.2864
X3.0364Y-4.3307
X3.0364Y-4.375
X3.0364Y-4.4193
X3.0364Y-4.4636
X3.0807Y-4.2864
X3.0807Y-4.3307
X3.0807Y-4.375
X3.0807Y-4.4193
X3.0807Y-4.4636
X3.125Y-4.2864
X3.125Y-4.3307
X3.125Y-4.375
X3.125Y-4.4193
X3.125Y-4.4636
X3.1693Y-4.2864
X3.1693Y-4.3307
X3.1693Y-4.375
X3.1693Y-4.4193
X3.1693Y-4.4636
X3.2136Y-4.2864
X3.2136Y-4.3307
X3.2136Y-4.375
X3.2136Y-4.4193
X3.2136Y-4.4636
T2
X1.63Y-2.53
X1.63Y-2.58
X1.64Y-3.25
X1.67Y-2.53
X1.67Y-2.58
X1.67Y-2.62
X1.69Y-3.25
X1.71Y-2.53
X1.71Y-2.58
X1.71Y-2.62
X1.75Y-2.53
X1.75Y-2.58
X1.75Y-2.62
X1.75Y-3.44
X1.79Y-2.53
X1.8Y-3.06
X1.8Y-3.1
X1.83Y-2.53
X1.84Y-3.06
X1.84Y-3.1
X1.87Y-2.53
X1.88Y-3.06
X1.88Y-3.1
X1.91Y-2.53
X1.92Y-3.06
X1.92Y-3.1
X1.935Y-4.635
X1.935Y-5.13
X1.95Y-2.53
X1.96Y-3.06
X1.96Y-3.1
X1.9608Y-4.6642
X1.99Y-2.53
X2.Y-3.06
X2.Y-3.1
X2.03Y-2.53
X2.035Y-4.115
X2.035Y-4.15
X2.04Y-3.06
X2.04Y-3.1
X2.0649Y-5.555
X2.065Y-5.66
X2.07Y-2.53
X2.07Y-4.115
X2.07Y-4.15
X2.11Y-2.53
X2.12Y-3.225
X2.12Y-3.615
X2.14Y-6.37
X2.14Y-6.4
X2.14Y-6.43
X2.15Y-2.53
X2.17Y-6.37
X2.17Y-6.4
X2.17Y-6.43
X2.17Y-6.46
X2.19Y-2.53
X2.195Y-4.74
X2.195Y-5.
X2.195Y-5.255
X2.195Y-5.475
X2.2Y-1.94
X2.2Y-6.37
X2.2Y-6.4
X2.2Y-6.43
X2.2Y-6.46
X2.21Y-3.195
X2.23Y-2.53
X2.23Y-4.74
X2.23Y-5.
X2.23Y-5.255
X2.23Y-5.475
X2.23Y-6.37
X2.23Y-6.4
X2.23Y-6.43
X2.23Y-6.46
X2.26Y-6.37
X2.26Y-6.4
X2.26Y-6.43
X2.265Y-4.74
X2.265Y-5.
X2.265Y-5.255
X2.265Y-5.475
X2.27Y-2.53
X2.295Y-3.225
X2.295Y-3.615
X2.31Y-2.53
X2.35Y-2.53
X2.385Y-5.555
X2.45Y-4.415
X2.45Y-4.575
X2.5Y-5.1
X2.515Y-3.22
X2.515Y-3.615
X2.515Y-3.89
X2.54Y-3.06
X2.54Y-3.1
X2.547Y-3.615
X2.55Y-2.49
X2.55Y-2.53
X2.58Y-3.06
X2.58Y-3.1
X2.59Y-2.49
X2.59Y-2.53
X2.62Y-3.06
X2.62Y-3.1
X2.63Y-2.49
X2.63Y-2.53
X2.645Y-5.1719
X2.66Y-3.06
X2.66Y-3.1
X2.67Y-2.49
X2.67Y-2.53
X2.6952Y-4.3952
X2.7Y-3.06
X2.7Y-3.1
X2.71Y-2.49
X2.71Y-2.53
X2.74Y-3.06
X2.74Y-3.1
X2.75Y-2.49
X2.75Y-2.53
X2.76Y-4.115
X2.76Y-4.15
X2.78Y-3.06
X2.78Y-3.1
X2.79Y-2.49
X2.79Y-2.53
X2.8Y-4.115
X2.8Y-4.15
X2.805Y-4.4242
X2.83Y-2.49
X2.83Y-2.53
X2.8435Y-4.4674
X2.845Y-4.69
X2.845Y-4.925
X2.865Y-3.215
X2.865Y-3.65
X2.865Y-4.56
X2.87Y-2.49
X2.87Y-2.53
X2.91Y-2.49
X2.91Y-2.53
X2.92Y-4.72
X2.92Y-4.93
X2.92Y-4.985
X2.95Y-2.49
X2.95Y-2.53
X2.96Y-3.215
X2.96Y-3.69
X2.99Y-2.49
X2.99Y-2.53
X3.03Y-2.49
X3.03Y-2.53
X3.05Y-3.21
X3.05Y-3.69
X3.07Y-2.49
X3.07Y-2.53
X3.085Y-3.225
X3.085Y-3.715
X3.11Y-2.49
X3.11Y-2.53
X3.145Y-5.555
X3.15Y-2.49
X3.15Y-2.53
X3.1595Y-4.72
X3.179Y-4.6917
X3.1987Y-4.6642
X3.2184Y-4.6329
X3.255Y-5.095
X3.255Y-5.135
X3.2568Y-3.89
X3.27Y-2.49
X3.27Y-2.53
X3.28Y-3.06
X3.28Y-3.1
X3.285Y-3.96
X3.285Y-3.995
X3.29Y-5.095
X3.29Y-5.135
X3.295Y-3.78
X3.31Y-2.49
X3.31Y-2.53
X3.32Y-3.06
X3.32Y-3.1
X3.325Y-5.095
X3.325Y-5.135
X3.335Y-3.96
X3.335Y-3.995
X3.35Y-2.49
X3.35Y-2.53
X3.36Y-3.06
X3.36Y-3.1
X3.365Y-3.78
X3.39Y-2.49
X3.39Y-2.53
X3.4Y-3.06
X3.4Y-3.1
X3.43Y-2.49
X3.43Y-2.53
X3.44Y-3.06
X3.44Y-3.1
X3.445Y-3.78
X3.46Y-4.44
X3.47Y-2.49
X3.47Y-2.53
X3.48Y-3.06
X3.48Y-3.1
X3.492Y-4.44
X3.505Y-4.22
X3.51Y-2.49
X3.51Y-2.53
X3.52Y-3.06
X3.52Y-3.1
X3.525Y-4.44
X3.53Y-3.78
X3.55Y-2.49
X3.55Y-2.53
X3.56Y-3.06
X3.56Y-3.1
X3.56Y-4.67
X3.59Y-2.49
X3.59Y-2.53
X3.63Y-2.49
X3.63Y-2.53
X3.635Y-3.22
X3.635Y-3.695
X3.67Y-2.49
X3.67Y-2.53
X3.67Y-3.22
X3.67Y-3.57
X3.685Y-2.28
X3.69Y-4.48
X3.69Y-4.515
X3.705Y-3.22
X3.705Y-3.66
X3.71Y-2.49
X3.71Y-2.53
X3.725Y-1.975
X3.725Y-2.125
X3.725Y-3.785
X3.725Y-3.85
X3.725Y-3.92
X3.725Y-3.98
X3.725Y-4.48
X3.725Y-4.515
X3.75Y-2.49
X3.75Y-2.53
X3.79Y-2.49
X3.79Y-2.53
X3.795Y-3.22
X3.795Y-3.595
X3.81Y-3.625
X3.81Y-4.781
X3.83Y-2.49
X3.83Y-2.53
X3.85Y-4.755
X3.85Y-4.8055
X3.85Y-4.855
X3.87Y-2.49
X3.87Y-2.53
X3.88Y-4.7
X3.895Y-4.3235
X3.91Y-2.49
X3.91Y-2.53
X3.935Y-2.125
X3.95Y-1.9
X3.97Y-4.7
X4.005Y-5.135
X4.015Y-3.83
X4.05Y-5.525
X4.05Y-5.57
X4.095Y-5.525
X4.095Y-5.57
X4.125Y-2.355
X4.135Y-2.125
T3
X2.8Y-6.
X2.85Y-5.9
X2.9Y-6.
X2.95Y-5.9
X3.Y-6.
X3.05Y-5.9
X3.1Y-6.
X3.15Y-5.9
X3.6Y-6.
X3.65Y-5.9
X3.7Y-6.
X3.75Y-5.9
X3.8Y-6.
X3.85Y-5.9
X3.9Y-6.
X3.95Y-5.9
T4
X1.7Y-3.5
X1.7Y-3.6
X1.7Y-3.7
X1.7Y-3.8
X1.7Y-3.9
X1.7Y-4.
X1.7Y-4.1
X1.7Y-4.2
X1.7Y-4.3
X1.7Y-4.4
X1.7Y-4.5
X1.7Y-4.6
X1.7Y-4.7
X1.7Y-4.8
X1.7Y-4.9
X1.7Y-5.
X1.7Y-5.1
X1.7Y-5.2
X1.7Y-5.3
X1.8Y-3.5
X1.8Y-3.6
X1.8Y-3.7
X1.8Y-3.8
X1.8Y-3.9
X1.8Y-4.
X1.8Y-4.1
X1.8Y-4.2
X1.8Y-4.3
X1.8Y-4.4
X1.8Y-4.5
X1.8Y-4.6
X1.8Y-4.7
X1.8Y-4.8
X1.8Y-4.9
X1.8Y-5.
X1.8Y-5.1
X1.8Y-5.2
X1.8Y-5.3
X4.1Y-3.5
X4.1Y-3.6
X4.1Y-3.7
X4.1Y-3.8
X4.1Y-3.9
X4.1Y-4.
X4.1Y-4.1
X4.1Y-4.2
X4.1Y-4.3
X4.1Y-4.4
X4.1Y-4.5
X4.1Y-4.6
X4.1Y-4.7
X4.1Y-4.8
X4.1Y-4.9
X4.1Y-5.
X4.1Y-5.1
X4.1Y-5.2
X4.1Y-5.3
X4.2Y-3.5
X4.2Y-3.6
X4.2Y-3.7
X4.2Y-3.8
X4.2Y-3.9
X4.2Y-4.
X4.2Y-4.1
X4.2Y-4.2
X4.2Y-4.3
X4.2Y-4.4
X4.2Y-4.5
X4.2Y-4.6
X4.2Y-4.7
X4.2Y-4.8
X4.2Y-4.9
X4.2Y-5.
X4.2Y-5.1
X4.2Y-5.2
X4.2Y-5.3
T5
X1.8Y-6.15
X2.Y-6.15
X2.2Y-6.15
X1.6Y-2.2
X1.8Y-2.2
X2.Y-2.2
X2.2Y-2.2
X2.4Y-2.2
X2.6Y-2.2
X2.8Y-2.2
X3.Y-2.2
T0
M30
