%TF.GenerationSoftware,KiCad,Pcbnew,(5.0.2)-1*%
%TF.CreationDate,2019-02-28T08:25:03+01:00*%
%TF.ProjectId,bldc_driver_board,626c6463-5f64-4726-9976-65725f626f61,rev?*%
%TF.SameCoordinates,Original*%
%TF.FileFunction,Copper,L2,Bot*%
%TF.FilePolarity,Positive*%
%FSLAX46Y46*%
G04 Gerber Fmt 4.6, Leading zero omitted, Abs format (unit mm)*
G04 Created by KiCad (PCBNEW (5.0.2)-1) date 28.02.2019 08:25:03*
%MOMM*%
%LPD*%
G01*
G04 APERTURE LIST*
%TA.AperFunction,NonConductor*%
%ADD10C,0.100000*%
%TD*%
%TA.AperFunction,Conductor*%
%ADD11C,0.150000*%
%TD*%
%TA.AperFunction,ComponentPad*%
%ADD12C,2.080000*%
%TD*%
%TA.AperFunction,ComponentPad*%
%ADD13O,2.080000X3.600000*%
%TD*%
%TA.AperFunction,ViaPad*%
%ADD14C,0.500000*%
%TD*%
%TA.AperFunction,Conductor*%
%ADD15C,5.000000*%
%TD*%
%TA.AperFunction,ComponentPad*%
%ADD16O,1.700000X1.700000*%
%TD*%
%TA.AperFunction,ComponentPad*%
%ADD17R,1.700000X1.700000*%
%TD*%
%TA.AperFunction,ComponentPad*%
%ADD18C,1.500000*%
%TD*%
%TA.AperFunction,ComponentPad*%
%ADD19R,1.500000X1.500000*%
%TD*%
%TA.AperFunction,ViaPad*%
%ADD20C,0.635000*%
%TD*%
%TA.AperFunction,Conductor*%
%ADD21C,0.203200*%
%TD*%
%TA.AperFunction,Conductor*%
%ADD22C,1.270000*%
%TD*%
%TA.AperFunction,Conductor*%
%ADD23C,0.406400*%
%TD*%
%TA.AperFunction,Conductor*%
%ADD24C,0.254000*%
%TD*%
G04 APERTURE END LIST*
D10*
X31750000Y-166370000D02*
X31750000Y-46990000D01*
X111760000Y-166370000D02*
X31750000Y-166370000D01*
X111760000Y-46990000D02*
X111760000Y-166370000D01*
X31750000Y-46990000D02*
X111760000Y-46990000D01*
D11*
%TO.N,/HALL_IN_C*%
%TO.C,J5*%
G36*
X77014505Y-54081204D02*
X77038773Y-54084804D01*
X77062572Y-54090765D01*
X77085671Y-54099030D01*
X77107850Y-54109520D01*
X77128893Y-54122132D01*
X77148599Y-54136747D01*
X77166777Y-54153223D01*
X77183253Y-54171401D01*
X77197868Y-54191107D01*
X77210480Y-54212150D01*
X77220970Y-54234329D01*
X77229235Y-54257428D01*
X77235196Y-54281227D01*
X77238796Y-54305495D01*
X77240000Y-54329999D01*
X77240000Y-57430001D01*
X77238796Y-57454505D01*
X77235196Y-57478773D01*
X77229235Y-57502572D01*
X77220970Y-57525671D01*
X77210480Y-57547850D01*
X77197868Y-57568893D01*
X77183253Y-57588599D01*
X77166777Y-57606777D01*
X77148599Y-57623253D01*
X77128893Y-57637868D01*
X77107850Y-57650480D01*
X77085671Y-57660970D01*
X77062572Y-57669235D01*
X77038773Y-57675196D01*
X77014505Y-57678796D01*
X76990001Y-57680000D01*
X75409999Y-57680000D01*
X75385495Y-57678796D01*
X75361227Y-57675196D01*
X75337428Y-57669235D01*
X75314329Y-57660970D01*
X75292150Y-57650480D01*
X75271107Y-57637868D01*
X75251401Y-57623253D01*
X75233223Y-57606777D01*
X75216747Y-57588599D01*
X75202132Y-57568893D01*
X75189520Y-57547850D01*
X75179030Y-57525671D01*
X75170765Y-57502572D01*
X75164804Y-57478773D01*
X75161204Y-57454505D01*
X75160000Y-57430001D01*
X75160000Y-54329999D01*
X75161204Y-54305495D01*
X75164804Y-54281227D01*
X75170765Y-54257428D01*
X75179030Y-54234329D01*
X75189520Y-54212150D01*
X75202132Y-54191107D01*
X75216747Y-54171401D01*
X75233223Y-54153223D01*
X75251401Y-54136747D01*
X75271107Y-54122132D01*
X75292150Y-54109520D01*
X75314329Y-54099030D01*
X75337428Y-54090765D01*
X75361227Y-54084804D01*
X75385495Y-54081204D01*
X75409999Y-54080000D01*
X76990001Y-54080000D01*
X77014505Y-54081204D01*
X77014505Y-54081204D01*
G37*
D12*
%TD*%
%TO.P,J5,1*%
%TO.N,/HALL_IN_C*%
X76200000Y-55880000D03*
D13*
%TO.P,J5,2*%
%TO.N,/HALL_IN_B*%
X71120000Y-55880000D03*
%TO.P,J5,3*%
%TO.N,/HALL_IN_A*%
X66040000Y-55880000D03*
%TO.P,J5,4*%
%TO.N,GND*%
X60960000Y-55880000D03*
%TO.P,J5,5*%
%TO.N,+5V*%
X55880000Y-55880000D03*
%TO.P,J5,6*%
%TO.N,/SHC*%
X50800000Y-55880000D03*
%TO.P,J5,7*%
%TO.N,/SHB*%
X45720000Y-55880000D03*
%TO.P,J5,8*%
%TO.N,/SHA*%
X40640000Y-55880000D03*
%TD*%
D14*
%TO.N,N/C*%
%TO.C,IC1*%
X77125000Y-113375000D03*
X77125000Y-112250000D03*
X77125000Y-111125000D03*
X77125000Y-110000000D03*
X77125000Y-108875000D03*
X78250000Y-113375000D03*
X78250000Y-112250000D03*
X78250000Y-111125000D03*
X78250000Y-110000000D03*
X78250000Y-108875000D03*
X79375000Y-113375000D03*
X79375000Y-112250000D03*
X79375000Y-111125000D03*
X79375000Y-110000000D03*
X79375000Y-108875000D03*
X80500000Y-113375000D03*
X80500000Y-112250000D03*
X80500000Y-111125000D03*
X80500000Y-110000000D03*
X80500000Y-108875000D03*
X81625000Y-113375000D03*
X81625000Y-112250000D03*
X81625000Y-111125000D03*
X81625000Y-110000000D03*
X81625000Y-108875000D03*
D11*
G36*
X81649504Y-108626204D02*
X81673773Y-108629804D01*
X81697571Y-108635765D01*
X81720671Y-108644030D01*
X81742849Y-108654520D01*
X81763893Y-108667133D01*
X81783598Y-108681747D01*
X81801777Y-108698223D01*
X81818253Y-108716402D01*
X81832867Y-108736107D01*
X81845480Y-108757151D01*
X81855970Y-108779329D01*
X81864235Y-108802429D01*
X81870196Y-108826227D01*
X81873796Y-108850496D01*
X81875000Y-108875000D01*
X81875000Y-113375000D01*
X81873796Y-113399504D01*
X81870196Y-113423773D01*
X81864235Y-113447571D01*
X81855970Y-113470671D01*
X81845480Y-113492849D01*
X81832867Y-113513893D01*
X81818253Y-113533598D01*
X81801777Y-113551777D01*
X81783598Y-113568253D01*
X81763893Y-113582867D01*
X81742849Y-113595480D01*
X81720671Y-113605970D01*
X81697571Y-113614235D01*
X81673773Y-113620196D01*
X81649504Y-113623796D01*
X81625000Y-113625000D01*
X77125000Y-113625000D01*
X77100496Y-113623796D01*
X77076227Y-113620196D01*
X77052429Y-113614235D01*
X77029329Y-113605970D01*
X77007151Y-113595480D01*
X76986107Y-113582867D01*
X76966402Y-113568253D01*
X76948223Y-113551777D01*
X76931747Y-113533598D01*
X76917133Y-113513893D01*
X76904520Y-113492849D01*
X76894030Y-113470671D01*
X76885765Y-113447571D01*
X76879804Y-113423773D01*
X76876204Y-113399504D01*
X76875000Y-113375000D01*
X76875000Y-108875000D01*
X76876204Y-108850496D01*
X76879804Y-108826227D01*
X76885765Y-108802429D01*
X76894030Y-108779329D01*
X76904520Y-108757151D01*
X76917133Y-108736107D01*
X76931747Y-108716402D01*
X76948223Y-108698223D01*
X76966402Y-108681747D01*
X76986107Y-108667133D01*
X77007151Y-108654520D01*
X77029329Y-108644030D01*
X77052429Y-108635765D01*
X77076227Y-108629804D01*
X77100496Y-108626204D01*
X77125000Y-108625000D01*
X81625000Y-108625000D01*
X81649504Y-108626204D01*
X81649504Y-108626204D01*
G37*
D15*
X79375000Y-111125000D03*
%TD*%
D11*
%TO.N,+BATT*%
%TO.C,J1*%
G36*
X46534505Y-154411204D02*
X46558773Y-154414804D01*
X46582572Y-154420765D01*
X46605671Y-154429030D01*
X46627850Y-154439520D01*
X46648893Y-154452132D01*
X46668599Y-154466747D01*
X46686777Y-154483223D01*
X46703253Y-154501401D01*
X46717868Y-154521107D01*
X46730480Y-154542150D01*
X46740970Y-154564329D01*
X46749235Y-154587428D01*
X46755196Y-154611227D01*
X46758796Y-154635495D01*
X46760000Y-154659999D01*
X46760000Y-157760001D01*
X46758796Y-157784505D01*
X46755196Y-157808773D01*
X46749235Y-157832572D01*
X46740970Y-157855671D01*
X46730480Y-157877850D01*
X46717868Y-157898893D01*
X46703253Y-157918599D01*
X46686777Y-157936777D01*
X46668599Y-157953253D01*
X46648893Y-157967868D01*
X46627850Y-157980480D01*
X46605671Y-157990970D01*
X46582572Y-157999235D01*
X46558773Y-158005196D01*
X46534505Y-158008796D01*
X46510001Y-158010000D01*
X44929999Y-158010000D01*
X44905495Y-158008796D01*
X44881227Y-158005196D01*
X44857428Y-157999235D01*
X44834329Y-157990970D01*
X44812150Y-157980480D01*
X44791107Y-157967868D01*
X44771401Y-157953253D01*
X44753223Y-157936777D01*
X44736747Y-157918599D01*
X44722132Y-157898893D01*
X44709520Y-157877850D01*
X44699030Y-157855671D01*
X44690765Y-157832572D01*
X44684804Y-157808773D01*
X44681204Y-157784505D01*
X44680000Y-157760001D01*
X44680000Y-154659999D01*
X44681204Y-154635495D01*
X44684804Y-154611227D01*
X44690765Y-154587428D01*
X44699030Y-154564329D01*
X44709520Y-154542150D01*
X44722132Y-154521107D01*
X44736747Y-154501401D01*
X44753223Y-154483223D01*
X44771401Y-154466747D01*
X44791107Y-154452132D01*
X44812150Y-154439520D01*
X44834329Y-154429030D01*
X44857428Y-154420765D01*
X44881227Y-154414804D01*
X44905495Y-154411204D01*
X44929999Y-154410000D01*
X46510001Y-154410000D01*
X46534505Y-154411204D01*
X46534505Y-154411204D01*
G37*
D12*
%TD*%
%TO.P,J1,1*%
%TO.N,+BATT*%
X45720000Y-156210000D03*
D13*
%TO.P,J1,2*%
%TO.N,+12V*%
X50800000Y-156210000D03*
%TO.P,J1,3*%
%TO.N,GND*%
X55880000Y-156210000D03*
%TD*%
D16*
%TO.P,J2,38*%
%TO.N,Net-(J2-Pad38)*%
X45720000Y-134620000D03*
%TO.P,J2,37*%
%TO.N,Net-(J2-Pad37)*%
X43180000Y-134620000D03*
%TO.P,J2,36*%
%TO.N,/SDI*%
X45720000Y-132080000D03*
%TO.P,J2,35*%
%TO.N,/SDO*%
X43180000Y-132080000D03*
%TO.P,J2,34*%
%TO.N,/VBUS*%
X45720000Y-129540000D03*
%TO.P,J2,33*%
%TO.N,Net-(J2-Pad33)*%
X43180000Y-129540000D03*
%TO.P,J2,32*%
%TO.N,/SO3*%
X45720000Y-127000000D03*
%TO.P,J2,31*%
%TO.N,Net-(J2-Pad31)*%
X43180000Y-127000000D03*
%TO.P,J2,30*%
%TO.N,/SO2*%
X45720000Y-124460000D03*
%TO.P,J2,29*%
%TO.N,Net-(J2-Pad29)*%
X43180000Y-124460000D03*
%TO.P,J2,28*%
%TO.N,/SO1*%
X45720000Y-121920000D03*
%TO.P,J2,27*%
%TO.N,Net-(J2-Pad27)*%
X43180000Y-121920000D03*
%TO.P,J2,26*%
%TO.N,Net-(J2-Pad26)*%
X45720000Y-119380000D03*
%TO.P,J2,25*%
%TO.N,Net-(J2-Pad25)*%
X43180000Y-119380000D03*
%TO.P,J2,24*%
%TO.N,+12V*%
X45720000Y-116840000D03*
%TO.P,J2,23*%
%TO.N,Net-(J2-Pad23)*%
X43180000Y-116840000D03*
%TO.P,J2,22*%
%TO.N,GND*%
X45720000Y-114300000D03*
%TO.P,J2,21*%
%TO.N,Net-(J2-Pad21)*%
X43180000Y-114300000D03*
%TO.P,J2,20*%
%TO.N,GND*%
X45720000Y-111760000D03*
%TO.P,J2,19*%
X43180000Y-111760000D03*
%TO.P,J2,18*%
%TO.N,+5V*%
X45720000Y-109220000D03*
%TO.P,J2,17*%
%TO.N,Net-(J2-Pad17)*%
X43180000Y-109220000D03*
%TO.P,J2,16*%
%TO.N,Net-(J2-Pad16)*%
X45720000Y-106680000D03*
%TO.P,J2,15*%
%TO.N,Net-(J2-Pad15)*%
X43180000Y-106680000D03*
%TO.P,J2,14*%
%TO.N,Net-(J2-Pad14)*%
X45720000Y-104140000D03*
%TO.P,J2,13*%
%TO.N,Net-(J2-Pad13)*%
X43180000Y-104140000D03*
%TO.P,J2,12*%
%TO.N,Net-(J2-Pad12)*%
X45720000Y-101600000D03*
%TO.P,J2,11*%
%TO.N,Net-(J2-Pad11)*%
X43180000Y-101600000D03*
%TO.P,J2,10*%
%TO.N,Net-(J2-Pad10)*%
X45720000Y-99060000D03*
%TO.P,J2,9*%
%TO.N,Net-(J2-Pad9)*%
X43180000Y-99060000D03*
%TO.P,J2,8*%
%TO.N,GND*%
X45720000Y-96520000D03*
%TO.P,J2,7*%
%TO.N,Net-(J2-Pad7)*%
X43180000Y-96520000D03*
%TO.P,J2,6*%
%TO.N,Net-(J2-Pad6)*%
X45720000Y-93980000D03*
%TO.P,J2,5*%
%TO.N,VDD*%
X43180000Y-93980000D03*
%TO.P,J2,4*%
%TO.N,Net-(J2-Pad4)*%
X45720000Y-91440000D03*
%TO.P,J2,3*%
%TO.N,Net-(J2-Pad3)*%
X43180000Y-91440000D03*
%TO.P,J2,2*%
%TO.N,Net-(J2-Pad2)*%
X45720000Y-88900000D03*
D17*
%TO.P,J2,1*%
%TO.N,Net-(J2-Pad1)*%
X43180000Y-88900000D03*
%TD*%
%TO.P,J3,1*%
%TO.N,Net-(J3-Pad1)*%
X104140000Y-88900000D03*
D16*
%TO.P,J3,2*%
%TO.N,/HALL_C*%
X106680000Y-88900000D03*
%TO.P,J3,3*%
%TO.N,Net-(J3-Pad3)*%
X104140000Y-91440000D03*
%TO.P,J3,4*%
%TO.N,/HALL_A*%
X106680000Y-91440000D03*
%TO.P,J3,5*%
%TO.N,Net-(J3-Pad5)*%
X104140000Y-93980000D03*
%TO.P,J3,6*%
%TO.N,Net-(J3-Pad6)*%
X106680000Y-93980000D03*
%TO.P,J3,7*%
%TO.N,VDDA*%
X104140000Y-96520000D03*
%TO.P,J3,8*%
%TO.N,Net-(J3-Pad8)*%
X106680000Y-96520000D03*
%TO.P,J3,9*%
%TO.N,Net-(J3-Pad9)*%
X104140000Y-99060000D03*
%TO.P,J3,10*%
%TO.N,Net-(J3-Pad10)*%
X106680000Y-99060000D03*
%TO.P,J3,11*%
%TO.N,Net-(J3-Pad11)*%
X104140000Y-101600000D03*
%TO.P,J3,12*%
%TO.N,/CAN_TX*%
X106680000Y-101600000D03*
%TO.P,J3,13*%
%TO.N,Net-(J3-Pad13)*%
X104140000Y-104140000D03*
%TO.P,J3,14*%
%TO.N,/CAN_RX*%
X106680000Y-104140000D03*
%TO.P,J3,15*%
%TO.N,Net-(J3-Pad15)*%
X104140000Y-106680000D03*
%TO.P,J3,16*%
%TO.N,Net-(J3-Pad16)*%
X106680000Y-106680000D03*
%TO.P,J3,17*%
%TO.N,/WAKE*%
X104140000Y-109220000D03*
%TO.P,J3,18*%
%TO.N,Net-(J3-Pad18)*%
X106680000Y-109220000D03*
%TO.P,J3,19*%
%TO.N,/HALL_B*%
X104140000Y-111760000D03*
%TO.P,J3,20*%
%TO.N,GND*%
X106680000Y-111760000D03*
%TO.P,J3,21*%
%TO.N,/INHB*%
X104140000Y-114300000D03*
%TO.P,J3,22*%
%TO.N,Net-(J3-Pad22)*%
X106680000Y-114300000D03*
%TO.P,J3,23*%
%TO.N,/INHA*%
X104140000Y-116840000D03*
%TO.P,J3,24*%
%TO.N,Net-(J3-Pad24)*%
X106680000Y-116840000D03*
%TO.P,J3,25*%
%TO.N,/SCLK*%
X104140000Y-119380000D03*
%TO.P,J3,26*%
%TO.N,/INLC*%
X106680000Y-119380000D03*
%TO.P,J3,27*%
%TO.N,/~FAULT*%
X104140000Y-121920000D03*
%TO.P,J3,28*%
%TO.N,/INLB*%
X106680000Y-121920000D03*
%TO.P,J3,29*%
%TO.N,/EN_GATE*%
X104140000Y-124460000D03*
%TO.P,J3,30*%
%TO.N,/INLA*%
X106680000Y-124460000D03*
%TO.P,J3,31*%
%TO.N,Net-(J3-Pad31)*%
X104140000Y-127000000D03*
%TO.P,J3,32*%
%TO.N,GNDA*%
X106680000Y-127000000D03*
%TO.P,J3,33*%
%TO.N,/INHC*%
X104140000Y-129540000D03*
%TO.P,J3,34*%
%TO.N,Net-(J3-Pad34)*%
X106680000Y-129540000D03*
%TO.P,J3,35*%
%TO.N,Net-(J3-Pad35)*%
X104140000Y-132080000D03*
%TO.P,J3,36*%
%TO.N,Net-(J3-Pad36)*%
X106680000Y-132080000D03*
%TO.P,J3,37*%
%TO.N,Net-(J3-Pad37)*%
X104140000Y-134620000D03*
%TO.P,J3,38*%
%TO.N,Net-(J3-Pad38)*%
X106680000Y-134620000D03*
%TD*%
D18*
%TO.P,J6,8*%
%TO.N,Net-(D2-Pad2)*%
X80010000Y-149860000D03*
%TO.P,J6,7*%
%TO.N,Net-(J6-Pad7)*%
X78740000Y-152400000D03*
%TO.P,J6,6*%
%TO.N,Net-(J6-Pad6)*%
X77470000Y-149860000D03*
%TO.P,J6,5*%
%TO.N,Net-(J6-Pad5)*%
X76200000Y-152400000D03*
%TO.P,J6,4*%
%TO.N,Net-(J6-Pad4)*%
X74930000Y-149860000D03*
%TO.P,J6,3*%
%TO.N,/CAN_L*%
X73660000Y-152400000D03*
%TO.P,J6,2*%
%TO.N,/CAN_H*%
X72390000Y-149860000D03*
D19*
%TO.P,J6,1*%
%TO.N,GND*%
X71120000Y-152400000D03*
%TD*%
%TO.P,J7,1*%
%TO.N,GND*%
X91440000Y-152400000D03*
D18*
%TO.P,J7,2*%
%TO.N,/CAN_H*%
X92710000Y-149860000D03*
%TO.P,J7,3*%
%TO.N,/CAN_L*%
X93980000Y-152400000D03*
%TO.P,J7,4*%
%TO.N,Net-(J7-Pad4)*%
X95250000Y-149860000D03*
%TO.P,J7,5*%
%TO.N,Net-(J7-Pad5)*%
X96520000Y-152400000D03*
%TO.P,J7,6*%
%TO.N,Net-(J7-Pad6)*%
X97790000Y-149860000D03*
%TO.P,J7,7*%
%TO.N,Net-(J7-Pad7)*%
X99060000Y-152400000D03*
%TO.P,J7,8*%
%TO.N,Net-(D2-Pad2)*%
X100330000Y-149860000D03*
%TD*%
D20*
%TO.N,VDDA*%
X72771000Y-115824000D03*
X98933000Y-109816900D03*
%TO.N,GNDA*%
X101727000Y-130429000D03*
%TO.N,GND*%
X71247000Y-112375000D03*
X72263000Y-125095000D03*
X54356000Y-161798000D03*
X55118000Y-161798000D03*
X55880000Y-161798000D03*
X56642000Y-161798000D03*
X57404000Y-161798000D03*
X57404000Y-162560000D03*
X56642000Y-162560000D03*
X55880000Y-162560000D03*
X55118000Y-162560000D03*
X54356000Y-162560000D03*
X54356000Y-163322000D03*
X55118000Y-163322000D03*
X55880000Y-163322000D03*
X56642000Y-163322000D03*
X57404000Y-163322000D03*
X55118000Y-164084000D03*
X55880000Y-164084000D03*
X56642000Y-164084000D03*
X104775000Y-59817000D03*
X71120000Y-105410000D03*
X67183000Y-131366500D03*
X89027000Y-107188000D03*
X56642000Y-139065000D03*
X55753000Y-139065000D03*
X57531000Y-139065000D03*
X55753000Y-133477000D03*
X56642000Y-133477000D03*
X57531000Y-133477000D03*
X55753000Y-127000000D03*
X56642000Y-127000000D03*
X57531000Y-127000000D03*
X55753000Y-120396000D03*
X56642000Y-120396000D03*
X57531000Y-120396000D03*
X70104000Y-105410000D03*
X70104000Y-104521000D03*
X71120000Y-104521000D03*
X83439000Y-100584000D03*
X84709000Y-100584000D03*
X83439000Y-101473000D03*
X84709000Y-101473000D03*
X83693000Y-96012000D03*
X85471000Y-96012000D03*
X87503000Y-96012000D03*
X89662000Y-96012000D03*
X94615000Y-96139000D03*
X94615000Y-97790000D03*
X94615000Y-99568000D03*
X94615000Y-101092000D03*
X51689000Y-104521000D03*
X52578000Y-104521000D03*
X52578000Y-105410000D03*
X51689000Y-105410000D03*
X93726000Y-113792000D03*
X94615000Y-113792000D03*
X94615000Y-114681000D03*
X93726000Y-114681000D03*
X102870000Y-140335000D03*
X102870000Y-141478000D03*
X104013000Y-141478000D03*
X104013000Y-140335000D03*
X82677000Y-129413000D03*
X83566000Y-129413000D03*
X84455000Y-129413000D03*
X84455000Y-130429000D03*
X83566000Y-130429000D03*
X82677000Y-130429000D03*
%TO.N,+BATT*%
X68457467Y-111637467D03*
X62230000Y-112141000D03*
X62230000Y-116205000D03*
X45720000Y-77724000D03*
X46736000Y-77724000D03*
X47752000Y-77724000D03*
X48768000Y-77724000D03*
X49784000Y-77724000D03*
X50800000Y-77724000D03*
X51816000Y-77724000D03*
X51816000Y-78740000D03*
X50800000Y-78740000D03*
X49784000Y-78740000D03*
X48768000Y-78740000D03*
X47752000Y-78740000D03*
X46736000Y-78740000D03*
X45720000Y-78740000D03*
X64516000Y-77724000D03*
X64516000Y-78740000D03*
X65532000Y-78740000D03*
X66548000Y-78740000D03*
X67564000Y-78740000D03*
X68580000Y-78740000D03*
X69596000Y-78740000D03*
X70612000Y-78740000D03*
X70612000Y-77724000D03*
X69596000Y-77724000D03*
X68580000Y-77724000D03*
X67564000Y-77724000D03*
X66548000Y-77724000D03*
X65532000Y-77724000D03*
X83312000Y-77724000D03*
X84328000Y-77724000D03*
X85344000Y-77724000D03*
X86360000Y-77724000D03*
X87376000Y-77724000D03*
X88392000Y-77724000D03*
X89408000Y-77724000D03*
X90424000Y-77724000D03*
X90424000Y-78740000D03*
X89408000Y-78740000D03*
X88392000Y-78740000D03*
X87376000Y-78740000D03*
X86360000Y-78740000D03*
X85344000Y-78740000D03*
X84328000Y-78740000D03*
X83312000Y-78740000D03*
%TO.N,+12V*%
X52451000Y-143764000D03*
X52448821Y-141097000D03*
X79883000Y-141097000D03*
X60579000Y-141097000D03*
%TO.N,/VBUS*%
X63500000Y-129540000D03*
%TO.N,/HALL_B*%
X101981000Y-97282000D03*
X99949000Y-53975000D03*
%TO.N,VDD*%
X90424000Y-118618000D03*
X74168000Y-125222000D03*
X74168000Y-126619000D03*
X105029000Y-53975000D03*
X41656000Y-82550000D03*
X100330000Y-48260000D03*
%TO.N,/SLA*%
X63881000Y-81788000D03*
X63881000Y-98806000D03*
X82721900Y-98806000D03*
X63881000Y-91821000D03*
%TO.N,/SLB*%
X78359000Y-81915000D03*
X92329000Y-81788000D03*
X78359000Y-94361000D03*
X92329000Y-93853000D03*
%TO.N,/SLC*%
X96774000Y-92075000D03*
%TO.N,/INLA*%
X97790000Y-123317000D03*
%TO.N,/INLB*%
X97790000Y-122059700D03*
%TO.N,/INHC*%
X96774000Y-121437400D03*
%TO.N,/INLC*%
X97790000Y-120777000D03*
%TO.N,/~FAULT*%
X80251300Y-119888000D03*
X74168000Y-119888000D03*
%TO.N,Net-(IC1-Pad9)*%
X80747300Y-119168347D03*
X72263000Y-119126000D03*
%TO.N,/SDI*%
X81247300Y-118471054D03*
X49803946Y-118471054D03*
%TO.N,/SDO*%
X81747300Y-117676446D03*
X49149000Y-117729000D03*
X49149000Y-130302000D03*
%TO.N,/SCLK*%
X98552000Y-119380000D03*
X100838000Y-119380000D03*
%TO.N,/SO1*%
X87884000Y-112776000D03*
%TO.N,/SO2*%
X88696803Y-112776000D03*
%TO.N,/SO3*%
X89535000Y-112776000D03*
%TO.N,/GLC*%
X94107000Y-92964000D03*
X94107000Y-81788000D03*
%TO.N,/SHC*%
X96393000Y-91313000D03*
X96393000Y-81788000D03*
X83058000Y-64262000D03*
X84074000Y-64262000D03*
X85090000Y-64262000D03*
X86106000Y-64262000D03*
X87122000Y-64262000D03*
X88138000Y-64262000D03*
X89154000Y-64262000D03*
X90170000Y-64262000D03*
X91186000Y-64262000D03*
X92202000Y-64262000D03*
X93218000Y-64262000D03*
X94234000Y-64262000D03*
X95250000Y-64262000D03*
X96266000Y-64262000D03*
X97282000Y-64262000D03*
X98298000Y-64262000D03*
X99314000Y-64262000D03*
X99314000Y-63246000D03*
X98298000Y-63246000D03*
X97282000Y-63246000D03*
X96266000Y-63246000D03*
X95250000Y-63246000D03*
X94234000Y-63246000D03*
X93218000Y-63246000D03*
X92202000Y-63246000D03*
X91186000Y-63246000D03*
X90170000Y-63246000D03*
X89154000Y-63246000D03*
X88138000Y-63246000D03*
X87122000Y-63246000D03*
X86106000Y-63246000D03*
X85090000Y-63246000D03*
X84074000Y-63246000D03*
X83058000Y-63246000D03*
%TO.N,/GHC*%
X93218000Y-81788000D03*
X93218000Y-90678000D03*
%TO.N,/GHB*%
X72771000Y-81661000D03*
X72771000Y-92710000D03*
%TO.N,/SHB*%
X77470000Y-81534000D03*
X77470000Y-93726000D03*
X64770000Y-64262000D03*
X65786000Y-64262000D03*
X66802000Y-64262000D03*
X67818000Y-64262000D03*
X68834000Y-64262000D03*
X69850000Y-64262000D03*
X70866000Y-64262000D03*
X71882000Y-64262000D03*
X72898000Y-64262000D03*
X73914000Y-64262000D03*
X74930000Y-64262000D03*
X75946000Y-64262000D03*
X76962000Y-64262000D03*
X77978000Y-64262000D03*
X78994000Y-64262000D03*
X80010000Y-64262000D03*
X80010000Y-63246000D03*
X78994000Y-63246000D03*
X77978000Y-63246000D03*
X76962000Y-63246000D03*
X75946000Y-63246000D03*
X74930000Y-63246000D03*
X73914000Y-63246000D03*
X72898000Y-63246000D03*
X71882000Y-63246000D03*
X70866000Y-63246000D03*
X69850000Y-63246000D03*
X68834000Y-63246000D03*
X67818000Y-63246000D03*
X66802000Y-63246000D03*
X65786000Y-63246000D03*
X64770000Y-63246000D03*
%TO.N,/GLB*%
X75184000Y-81661000D03*
X75184000Y-93726000D03*
%TO.N,/GLA*%
X56134000Y-81153000D03*
X64693803Y-91821000D03*
%TO.N,/SHA*%
X58293000Y-81915000D03*
X58293000Y-91821000D03*
X46482000Y-64262000D03*
X47498000Y-64262000D03*
X48514000Y-64262000D03*
X49530000Y-64262000D03*
X50546000Y-64262000D03*
X51562000Y-64262000D03*
X52578000Y-64262000D03*
X53594000Y-64262000D03*
X54610000Y-64262000D03*
X55626000Y-64262000D03*
X56642000Y-64262000D03*
X57658000Y-64262000D03*
X58674000Y-64262000D03*
X59690000Y-64262000D03*
X45466000Y-64262000D03*
X44450000Y-64262000D03*
X43434000Y-64262000D03*
X42418000Y-64262000D03*
X41402000Y-64262000D03*
X41402000Y-65532000D03*
X42418000Y-65532000D03*
X43434000Y-65532000D03*
X44450000Y-65532000D03*
X44450000Y-66548000D03*
X43434000Y-66548000D03*
X42418000Y-66548000D03*
%TO.N,/GHA*%
X53848000Y-91821000D03*
X53848000Y-81915000D03*
%TO.N,/WAKE*%
X72224900Y-113471900D03*
%TO.N,+5V*%
X44450000Y-87376000D03*
X42926000Y-82550000D03*
X55880000Y-49276000D03*
%TO.N,/HALL_IN_A*%
X94615000Y-50165000D03*
%TO.N,/HALL_IN_B*%
X94615000Y-53975000D03*
%TO.N,/HALL_IN_C*%
X93599000Y-57912000D03*
%TD*%
D21*
%TO.N,VDDA*%
X72771000Y-115824000D02*
X86614000Y-115824000D01*
X86614000Y-115824000D02*
X86868000Y-115570000D01*
X86868000Y-115570000D02*
X86868000Y-112395000D01*
X89959686Y-109816900D02*
X98933000Y-109816900D01*
X86868000Y-112395000D02*
X89446100Y-109816900D01*
X89446100Y-109816900D02*
X89959686Y-109816900D01*
%TO.N,GNDA*%
X102044499Y-130746499D02*
X104711501Y-130746499D01*
X101727000Y-130429000D02*
X102044499Y-130746499D01*
X104711501Y-130746499D02*
X105537000Y-129921000D01*
X105537000Y-128143000D02*
X106680000Y-127000000D01*
X105537000Y-129921000D02*
X105537000Y-128143000D01*
D22*
%TO.N,GND*%
X68580000Y-152400000D02*
X71120000Y-152400000D01*
D23*
X55880000Y-156210000D02*
X54433600Y-156210000D01*
X54433600Y-156210000D02*
X53721000Y-156210000D01*
X53721000Y-156210000D02*
X53340000Y-155829000D01*
X53340000Y-155829000D02*
X53213000Y-155702000D01*
X53213000Y-155702000D02*
X53213000Y-140335000D01*
D21*
%TO.N,+BATT*%
X68457467Y-111637467D02*
X67945000Y-112149934D01*
X62238934Y-112149934D02*
X62230000Y-112141000D01*
X67945000Y-112149934D02*
X62238934Y-112149934D01*
D23*
%TO.N,+12V*%
X52246400Y-156210000D02*
X50800000Y-156210000D01*
X52451000Y-156005400D02*
X52246400Y-156210000D01*
X52451000Y-143764000D02*
X52451000Y-156005400D01*
D21*
X60579000Y-141097000D02*
X79883000Y-141097000D01*
%TO.N,/VBUS*%
X45720000Y-129540000D02*
X63500000Y-129540000D01*
%TO.N,/HALL_B*%
X101981000Y-97282000D02*
X101981000Y-54737000D01*
X101219000Y-53975000D02*
X99949000Y-53975000D01*
X101981000Y-54737000D02*
X101219000Y-53975000D01*
%TO.N,VDD*%
X90424000Y-118618000D02*
X90424000Y-119067012D01*
X90424000Y-119067012D02*
X90424000Y-122301000D01*
X90424000Y-122301000D02*
X87503000Y-125222000D01*
X87503000Y-125222000D02*
X74168000Y-125222000D01*
X72898000Y-137033000D02*
X74168000Y-135763000D01*
X74168000Y-135763000D02*
X74168000Y-126619000D01*
X74168000Y-126619000D02*
X74168000Y-125222000D01*
X41656000Y-136525000D02*
X42164000Y-137033000D01*
X41656000Y-94301919D02*
X41656000Y-136525000D01*
X41977919Y-93980000D02*
X41656000Y-94301919D01*
X42164000Y-137033000D02*
X72898000Y-137033000D01*
X42164000Y-93980000D02*
X41977919Y-93980000D01*
X43180000Y-93980000D02*
X42164000Y-93980000D01*
X42164000Y-93980000D02*
X41910000Y-93980000D01*
X41656000Y-93726000D02*
X41656000Y-82550000D01*
X41910000Y-93980000D02*
X41656000Y-93726000D01*
X100330000Y-48260000D02*
X104648000Y-48260000D01*
X104648000Y-48260000D02*
X105029000Y-48641000D01*
X105029000Y-48641000D02*
X105029000Y-53975000D01*
%TO.N,/SLA*%
X63881000Y-98806000D02*
X82721900Y-98806000D01*
X63881000Y-91821000D02*
X63881000Y-81788000D01*
%TO.N,/SLB*%
X78359000Y-94361000D02*
X78359000Y-81915000D01*
X92329000Y-93853000D02*
X92329000Y-81788000D01*
D23*
%TO.N,Net-(D2-Pad2)*%
X100330000Y-149860000D02*
X100330000Y-147320000D01*
X100330000Y-147320000D02*
X99060000Y-146050000D01*
X99060000Y-146050000D02*
X81280000Y-146050000D01*
X81280000Y-146050000D02*
X80010000Y-147320000D01*
X80010000Y-147320000D02*
X80010000Y-149860000D01*
D24*
%TO.N,/INLA*%
X105410000Y-123190000D02*
X106680000Y-124460000D01*
X98171000Y-123190000D02*
X105410000Y-123190000D01*
X98044000Y-123317000D02*
X98171000Y-123190000D01*
X97790000Y-123317000D02*
X98044000Y-123317000D01*
%TO.N,/INLB*%
X105830001Y-121070001D02*
X106680000Y-121920000D01*
X105525199Y-120765199D02*
X105830001Y-121070001D01*
X100203000Y-120765199D02*
X105525199Y-120765199D01*
X97790000Y-122059700D02*
X98908499Y-122059700D01*
X98908499Y-122059700D02*
X100203000Y-120765199D01*
%TO.N,/INHC*%
X102362000Y-127762000D02*
X104140000Y-129540000D01*
X102362000Y-124841000D02*
X102362000Y-127762000D01*
X101981000Y-124460000D02*
X102362000Y-124841000D01*
X97155000Y-124460000D02*
X101981000Y-124460000D01*
X96774000Y-121437400D02*
X96774000Y-124079000D01*
X96774000Y-124079000D02*
X97155000Y-124460000D01*
%TO.N,/INLC*%
X97790000Y-120777000D02*
X99568000Y-120777000D01*
X99568000Y-120777000D02*
X100076000Y-120269000D01*
X100076000Y-120269000D02*
X102362000Y-120269000D01*
X102362000Y-120269000D02*
X102616000Y-120015000D01*
X102616000Y-120015000D02*
X102616000Y-118618000D01*
X102616000Y-118618000D02*
X103124000Y-118110000D01*
X105410000Y-118110000D02*
X106680000Y-119380000D01*
X103124000Y-118110000D02*
X105410000Y-118110000D01*
%TO.N,/~FAULT*%
X80251300Y-119888000D02*
X74168000Y-119888000D01*
%TO.N,Net-(IC1-Pad9)*%
X80747300Y-119168347D02*
X72305347Y-119168347D01*
X72305347Y-119168347D02*
X72263000Y-119126000D01*
%TO.N,/SDI*%
X81247300Y-118471054D02*
X49803946Y-118471054D01*
%TO.N,/SDO*%
X49201554Y-117676446D02*
X49149000Y-117729000D01*
X81747300Y-117676446D02*
X49201554Y-117676446D01*
X44450000Y-130810000D02*
X43180000Y-132080000D01*
X49149000Y-130302000D02*
X48641000Y-130810000D01*
X48641000Y-130810000D02*
X44450000Y-130810000D01*
%TO.N,/SCLK*%
X98552000Y-119380000D02*
X100838000Y-119380000D01*
%TO.N,/SO1*%
X87503000Y-121920000D02*
X45720000Y-121920000D01*
X87884000Y-112776000D02*
X87884000Y-121539000D01*
X87884000Y-121539000D02*
X87503000Y-121920000D01*
%TO.N,/SO2*%
X47244000Y-122936000D02*
X45720000Y-124460000D01*
X87503000Y-122936000D02*
X47244000Y-122936000D01*
X88696803Y-112776000D02*
X88696803Y-121742197D01*
X88696803Y-121742197D02*
X87503000Y-122936000D01*
%TO.N,/SO3*%
X48768000Y-123952000D02*
X45720000Y-127000000D01*
X87630000Y-123952000D02*
X48768000Y-123952000D01*
X89535000Y-112776000D02*
X89535000Y-122047000D01*
X89535000Y-122047000D02*
X87630000Y-123952000D01*
D21*
%TO.N,/GLC*%
X94107000Y-92964000D02*
X94107000Y-81788000D01*
%TO.N,/SHC*%
X96393000Y-91313000D02*
X96393000Y-81788000D01*
%TO.N,/GHC*%
X93218000Y-90678000D02*
X93218000Y-81788000D01*
%TO.N,/GHB*%
X72771000Y-81661000D02*
X72771000Y-92710000D01*
%TO.N,/SHB*%
X77470000Y-81534000D02*
X77470000Y-93726000D01*
%TO.N,/GLB*%
X75184000Y-93726000D02*
X75184000Y-81661000D01*
%TO.N,/GLA*%
X64262000Y-81153000D02*
X56134000Y-81153000D01*
X64693803Y-81584803D02*
X64262000Y-81153000D01*
X64693803Y-91821000D02*
X64693803Y-81584803D01*
%TO.N,/SHA*%
X58293000Y-91821000D02*
X58293000Y-81915000D01*
%TO.N,/GHA*%
X53848000Y-81915000D02*
X53848000Y-91821000D01*
%TO.N,/WAKE*%
X72224900Y-114896900D02*
X72390000Y-115062000D01*
X72390000Y-115062000D02*
X85852000Y-115062000D01*
X85852000Y-115062000D02*
X86360000Y-114554000D01*
X86360000Y-114554000D02*
X86360000Y-112141000D01*
X89281000Y-109220000D02*
X104140000Y-109220000D01*
X72224900Y-113471900D02*
X72224900Y-114896900D01*
X86360000Y-112141000D02*
X89281000Y-109220000D01*
%TO.N,+5V*%
X44450000Y-87376000D02*
X44450000Y-84074000D01*
X44450000Y-84074000D02*
X42926000Y-82550000D01*
X55880000Y-49276000D02*
X55880000Y-55880000D01*
%TO.N,/HALL_IN_A*%
X66040000Y-55880000D02*
X66040000Y-53876800D01*
X66040000Y-53876800D02*
X66040000Y-50419000D01*
X66040000Y-50419000D02*
X66294000Y-50165000D01*
X66294000Y-50165000D02*
X94615000Y-50165000D01*
%TO.N,/HALL_IN_B*%
X71120000Y-55880000D02*
X71120000Y-53876800D01*
X71120000Y-53876800D02*
X71120000Y-51435000D01*
X71120000Y-51435000D02*
X71374000Y-51181000D01*
X71374000Y-51181000D02*
X94361000Y-51181000D01*
X94361000Y-51181000D02*
X94615000Y-51435000D01*
X94615000Y-51435000D02*
X94615000Y-53975000D01*
%TO.N,/HALL_IN_C*%
X76200000Y-55880000D02*
X76200000Y-53980000D01*
X76200000Y-53980000D02*
X76200000Y-52324000D01*
X76200000Y-52324000D02*
X76454000Y-52070000D01*
X76454000Y-52070000D02*
X93345000Y-52070000D01*
X93345000Y-52070000D02*
X93599000Y-52324000D01*
X93599000Y-52324000D02*
X93599000Y-57912000D01*
%TD*%
D24*
%TO.N,+BATT*%
G36*
X91567000Y-76263500D02*
X91567000Y-79692500D01*
X90635667Y-80391000D01*
X56719039Y-80391000D01*
X56673548Y-80345509D01*
X56323464Y-80200500D01*
X55944536Y-80200500D01*
X55594452Y-80345509D01*
X55548961Y-80391000D01*
X43051422Y-80391000D01*
X42991097Y-75565000D01*
X90635667Y-75565000D01*
X91567000Y-76263500D01*
X91567000Y-76263500D01*
G37*
X91567000Y-76263500D02*
X91567000Y-79692500D01*
X90635667Y-80391000D01*
X56719039Y-80391000D01*
X56673548Y-80345509D01*
X56323464Y-80200500D01*
X55944536Y-80200500D01*
X55594452Y-80345509D01*
X55548961Y-80391000D01*
X43051422Y-80391000D01*
X42991097Y-75565000D01*
X90635667Y-75565000D01*
X91567000Y-76263500D01*
G36*
X42926000Y-80465394D02*
X41793894Y-81597500D01*
X41466536Y-81597500D01*
X41116452Y-81742509D01*
X40848509Y-82010452D01*
X40703500Y-82360536D01*
X40703500Y-82687894D01*
X39534197Y-83857197D01*
X39506667Y-83898399D01*
X39497000Y-83947000D01*
X39497000Y-151765000D01*
X39506667Y-151813601D01*
X39534197Y-151854803D01*
X40804197Y-153124803D01*
X40845399Y-153152333D01*
X40894000Y-153162000D01*
X48080394Y-153162000D01*
X48895000Y-153976606D01*
X48895000Y-158316394D01*
X48080394Y-159131000D01*
X36247606Y-159131000D01*
X33612356Y-156495750D01*
X44045000Y-156495750D01*
X44045000Y-158136310D01*
X44141673Y-158369699D01*
X44320302Y-158548327D01*
X44553691Y-158645000D01*
X45434250Y-158645000D01*
X45593000Y-158486250D01*
X45593000Y-156337000D01*
X45847000Y-156337000D01*
X45847000Y-158486250D01*
X46005750Y-158645000D01*
X46886309Y-158645000D01*
X47119698Y-158548327D01*
X47298327Y-158369699D01*
X47395000Y-158136310D01*
X47395000Y-156495750D01*
X47236250Y-156337000D01*
X45847000Y-156337000D01*
X45593000Y-156337000D01*
X44203750Y-156337000D01*
X44045000Y-156495750D01*
X33612356Y-156495750D01*
X32639000Y-155522394D01*
X32639000Y-154283690D01*
X44045000Y-154283690D01*
X44045000Y-155924250D01*
X44203750Y-156083000D01*
X45593000Y-156083000D01*
X45593000Y-153933750D01*
X45847000Y-153933750D01*
X45847000Y-156083000D01*
X47236250Y-156083000D01*
X47395000Y-155924250D01*
X47395000Y-154283690D01*
X47298327Y-154050301D01*
X47119698Y-153871673D01*
X46886309Y-153775000D01*
X46005750Y-153775000D01*
X45847000Y-153933750D01*
X45593000Y-153933750D01*
X45434250Y-153775000D01*
X44553691Y-153775000D01*
X44320302Y-153871673D01*
X44141673Y-154050301D01*
X44045000Y-154283690D01*
X32639000Y-154283690D01*
X32639000Y-78665606D01*
X34226500Y-77078106D01*
X34708197Y-77559803D01*
X34749399Y-77587333D01*
X34798000Y-77597000D01*
X41402000Y-77597000D01*
X41450601Y-77587333D01*
X41491803Y-77559803D01*
X41999803Y-77051803D01*
X42027333Y-77010601D01*
X42037000Y-76962000D01*
X42037000Y-75998606D01*
X42470606Y-75565000D01*
X42926000Y-75565000D01*
X42926000Y-80465394D01*
X42926000Y-80465394D01*
G37*
X42926000Y-80465394D02*
X41793894Y-81597500D01*
X41466536Y-81597500D01*
X41116452Y-81742509D01*
X40848509Y-82010452D01*
X40703500Y-82360536D01*
X40703500Y-82687894D01*
X39534197Y-83857197D01*
X39506667Y-83898399D01*
X39497000Y-83947000D01*
X39497000Y-151765000D01*
X39506667Y-151813601D01*
X39534197Y-151854803D01*
X40804197Y-153124803D01*
X40845399Y-153152333D01*
X40894000Y-153162000D01*
X48080394Y-153162000D01*
X48895000Y-153976606D01*
X48895000Y-158316394D01*
X48080394Y-159131000D01*
X36247606Y-159131000D01*
X33612356Y-156495750D01*
X44045000Y-156495750D01*
X44045000Y-158136310D01*
X44141673Y-158369699D01*
X44320302Y-158548327D01*
X44553691Y-158645000D01*
X45434250Y-158645000D01*
X45593000Y-158486250D01*
X45593000Y-156337000D01*
X45847000Y-156337000D01*
X45847000Y-158486250D01*
X46005750Y-158645000D01*
X46886309Y-158645000D01*
X47119698Y-158548327D01*
X47298327Y-158369699D01*
X47395000Y-158136310D01*
X47395000Y-156495750D01*
X47236250Y-156337000D01*
X45847000Y-156337000D01*
X45593000Y-156337000D01*
X44203750Y-156337000D01*
X44045000Y-156495750D01*
X33612356Y-156495750D01*
X32639000Y-155522394D01*
X32639000Y-154283690D01*
X44045000Y-154283690D01*
X44045000Y-155924250D01*
X44203750Y-156083000D01*
X45593000Y-156083000D01*
X45593000Y-153933750D01*
X45847000Y-153933750D01*
X45847000Y-156083000D01*
X47236250Y-156083000D01*
X47395000Y-155924250D01*
X47395000Y-154283690D01*
X47298327Y-154050301D01*
X47119698Y-153871673D01*
X46886309Y-153775000D01*
X46005750Y-153775000D01*
X45847000Y-153933750D01*
X45593000Y-153933750D01*
X45434250Y-153775000D01*
X44553691Y-153775000D01*
X44320302Y-153871673D01*
X44141673Y-154050301D01*
X44045000Y-154283690D01*
X32639000Y-154283690D01*
X32639000Y-78665606D01*
X34226500Y-77078106D01*
X34708197Y-77559803D01*
X34749399Y-77587333D01*
X34798000Y-77597000D01*
X41402000Y-77597000D01*
X41450601Y-77587333D01*
X41491803Y-77559803D01*
X41999803Y-77051803D01*
X42027333Y-77010601D01*
X42037000Y-76962000D01*
X42037000Y-75998606D01*
X42470606Y-75565000D01*
X42926000Y-75565000D01*
X42926000Y-80465394D01*
%TO.N,GND*%
G36*
X57785000Y-164285394D02*
X57097394Y-164973000D01*
X54662606Y-164973000D01*
X53975000Y-164285394D01*
X53975000Y-156337000D01*
X54205000Y-156337000D01*
X54205000Y-157097000D01*
X54381103Y-157728327D01*
X54785399Y-158244206D01*
X55356338Y-158566099D01*
X55493290Y-158599748D01*
X55753000Y-158480922D01*
X55753000Y-156337000D01*
X56007000Y-156337000D01*
X56007000Y-158480922D01*
X56266710Y-158599748D01*
X56403662Y-158566099D01*
X56974601Y-158244206D01*
X57378897Y-157728327D01*
X57555000Y-157097000D01*
X57555000Y-156337000D01*
X56007000Y-156337000D01*
X55753000Y-156337000D01*
X54205000Y-156337000D01*
X53975000Y-156337000D01*
X53975000Y-155323000D01*
X54205000Y-155323000D01*
X54205000Y-156083000D01*
X55753000Y-156083000D01*
X55753000Y-153939078D01*
X56007000Y-153939078D01*
X56007000Y-156083000D01*
X57555000Y-156083000D01*
X57555000Y-155323000D01*
X57378897Y-154691673D01*
X56974601Y-154175794D01*
X56403662Y-153853901D01*
X56266710Y-153820252D01*
X56007000Y-153939078D01*
X55753000Y-153939078D01*
X55493290Y-153820252D01*
X55356338Y-153853901D01*
X54785399Y-154175794D01*
X54381103Y-154691673D01*
X54205000Y-155323000D01*
X53975000Y-155323000D01*
X53975000Y-152781000D01*
X57785000Y-152781000D01*
X57785000Y-164285394D01*
X57785000Y-164285394D01*
G37*
X57785000Y-164285394D02*
X57097394Y-164973000D01*
X54662606Y-164973000D01*
X53975000Y-164285394D01*
X53975000Y-156337000D01*
X54205000Y-156337000D01*
X54205000Y-157097000D01*
X54381103Y-157728327D01*
X54785399Y-158244206D01*
X55356338Y-158566099D01*
X55493290Y-158599748D01*
X55753000Y-158480922D01*
X55753000Y-156337000D01*
X56007000Y-156337000D01*
X56007000Y-158480922D01*
X56266710Y-158599748D01*
X56403662Y-158566099D01*
X56974601Y-158244206D01*
X57378897Y-157728327D01*
X57555000Y-157097000D01*
X57555000Y-156337000D01*
X56007000Y-156337000D01*
X55753000Y-156337000D01*
X54205000Y-156337000D01*
X53975000Y-156337000D01*
X53975000Y-155323000D01*
X54205000Y-155323000D01*
X54205000Y-156083000D01*
X55753000Y-156083000D01*
X55753000Y-153939078D01*
X56007000Y-153939078D01*
X56007000Y-156083000D01*
X57555000Y-156083000D01*
X57555000Y-155323000D01*
X57378897Y-154691673D01*
X56974601Y-154175794D01*
X56403662Y-153853901D01*
X56266710Y-153820252D01*
X56007000Y-153939078D01*
X55753000Y-153939078D01*
X55493290Y-153820252D01*
X55356338Y-153853901D01*
X54785399Y-154175794D01*
X54381103Y-154691673D01*
X54205000Y-155323000D01*
X53975000Y-155323000D01*
X53975000Y-152781000D01*
X57785000Y-152781000D01*
X57785000Y-164285394D01*
%TO.N,/SHA*%
G36*
X62865000Y-60504606D02*
X62865000Y-73607394D01*
X62431394Y-74041000D01*
X43994606Y-74041000D01*
X43561000Y-73607394D01*
X43561000Y-69596000D01*
X43551333Y-69547399D01*
X43523803Y-69506197D01*
X38481000Y-64463394D01*
X38481000Y-60504606D01*
X38914606Y-60071000D01*
X62431394Y-60071000D01*
X62865000Y-60504606D01*
X62865000Y-60504606D01*
G37*
X62865000Y-60504606D02*
X62865000Y-73607394D01*
X62431394Y-74041000D01*
X43994606Y-74041000D01*
X43561000Y-73607394D01*
X43561000Y-69596000D01*
X43551333Y-69547399D01*
X43523803Y-69506197D01*
X38481000Y-64463394D01*
X38481000Y-60504606D01*
X38914606Y-60071000D01*
X62431394Y-60071000D01*
X62865000Y-60504606D01*
%TO.N,/SHB*%
G36*
X81915000Y-60504606D02*
X81915000Y-73607394D01*
X81481394Y-74041000D01*
X63806606Y-74041000D01*
X63373000Y-73607394D01*
X63373000Y-60504606D01*
X63806606Y-60071000D01*
X81481394Y-60071000D01*
X81915000Y-60504606D01*
X81915000Y-60504606D01*
G37*
X81915000Y-60504606D02*
X81915000Y-73607394D01*
X81481394Y-74041000D01*
X63806606Y-74041000D01*
X63373000Y-73607394D01*
X63373000Y-60504606D01*
X63806606Y-60071000D01*
X81481394Y-60071000D01*
X81915000Y-60504606D01*
%TO.N,/SHC*%
G36*
X100457000Y-60504606D02*
X100457000Y-73607394D01*
X100023394Y-74041000D01*
X83110606Y-74041000D01*
X82677000Y-73607394D01*
X82677000Y-60504606D01*
X83110606Y-60071000D01*
X100023394Y-60071000D01*
X100457000Y-60504606D01*
X100457000Y-60504606D01*
G37*
X100457000Y-60504606D02*
X100457000Y-73607394D01*
X100023394Y-74041000D01*
X83110606Y-74041000D01*
X82677000Y-73607394D01*
X82677000Y-60504606D01*
X83110606Y-60071000D01*
X100023394Y-60071000D01*
X100457000Y-60504606D01*
%TO.N,GND*%
G36*
X99522509Y-48799548D02*
X99790452Y-49067491D01*
X100140536Y-49212500D01*
X100519464Y-49212500D01*
X100869548Y-49067491D01*
X100940439Y-48996600D01*
X104292400Y-48996600D01*
X104292401Y-53364560D01*
X104221509Y-53435452D01*
X104076500Y-53785536D01*
X104076500Y-54164464D01*
X104221509Y-54514548D01*
X104489452Y-54782491D01*
X104839536Y-54927500D01*
X105218464Y-54927500D01*
X105568548Y-54782491D01*
X105836491Y-54514548D01*
X105981500Y-54164464D01*
X105981500Y-53785536D01*
X105836491Y-53435452D01*
X105765600Y-53364561D01*
X105765600Y-48713538D01*
X105780029Y-48641000D01*
X110322301Y-48641000D01*
X111075000Y-49178642D01*
X111075001Y-152469401D01*
X109290820Y-154432000D01*
X62028606Y-154432000D01*
X60282356Y-152685750D01*
X69735000Y-152685750D01*
X69735000Y-153276310D01*
X69831673Y-153509699D01*
X70010302Y-153688327D01*
X70243691Y-153785000D01*
X70834250Y-153785000D01*
X70993000Y-153626250D01*
X70993000Y-152527000D01*
X69893750Y-152527000D01*
X69735000Y-152685750D01*
X60282356Y-152685750D01*
X60160803Y-152564197D01*
X60119601Y-152536667D01*
X60071000Y-152527000D01*
X53289200Y-152527000D01*
X53289200Y-151523690D01*
X69735000Y-151523690D01*
X69735000Y-152114250D01*
X69893750Y-152273000D01*
X70993000Y-152273000D01*
X70993000Y-151173750D01*
X70834250Y-151015000D01*
X70243691Y-151015000D01*
X70010302Y-151111673D01*
X69831673Y-151290301D01*
X69735000Y-151523690D01*
X53289200Y-151523690D01*
X53289200Y-149584506D01*
X71005000Y-149584506D01*
X71005000Y-150135494D01*
X71215853Y-150644540D01*
X71586313Y-151015000D01*
X71405750Y-151015000D01*
X71247000Y-151173750D01*
X71247000Y-152273000D01*
X71267000Y-152273000D01*
X71267000Y-152527000D01*
X71247000Y-152527000D01*
X71247000Y-153626250D01*
X71405750Y-153785000D01*
X71996309Y-153785000D01*
X72229698Y-153688327D01*
X72408327Y-153509699D01*
X72505000Y-153276310D01*
X72505000Y-153203687D01*
X72875460Y-153574147D01*
X73384506Y-153785000D01*
X73935494Y-153785000D01*
X74444540Y-153574147D01*
X74834147Y-153184540D01*
X74930000Y-152953130D01*
X75025853Y-153184540D01*
X75415460Y-153574147D01*
X75924506Y-153785000D01*
X76475494Y-153785000D01*
X76984540Y-153574147D01*
X77374147Y-153184540D01*
X77470000Y-152953130D01*
X77565853Y-153184540D01*
X77955460Y-153574147D01*
X78464506Y-153785000D01*
X79015494Y-153785000D01*
X79524540Y-153574147D01*
X79914147Y-153184540D01*
X80120751Y-152685750D01*
X90055000Y-152685750D01*
X90055000Y-153276310D01*
X90151673Y-153509699D01*
X90330302Y-153688327D01*
X90563691Y-153785000D01*
X91154250Y-153785000D01*
X91313000Y-153626250D01*
X91313000Y-152527000D01*
X90213750Y-152527000D01*
X90055000Y-152685750D01*
X80120751Y-152685750D01*
X80125000Y-152675494D01*
X80125000Y-152124506D01*
X79914147Y-151615460D01*
X79822377Y-151523690D01*
X90055000Y-151523690D01*
X90055000Y-152114250D01*
X90213750Y-152273000D01*
X91313000Y-152273000D01*
X91313000Y-151173750D01*
X91154250Y-151015000D01*
X90563691Y-151015000D01*
X90330302Y-151111673D01*
X90151673Y-151290301D01*
X90055000Y-151523690D01*
X79822377Y-151523690D01*
X79524540Y-151225853D01*
X79015494Y-151015000D01*
X78464506Y-151015000D01*
X77955460Y-151225853D01*
X77565853Y-151615460D01*
X77470000Y-151846870D01*
X77374147Y-151615460D01*
X76984540Y-151225853D01*
X76475494Y-151015000D01*
X75924506Y-151015000D01*
X75415460Y-151225853D01*
X75025853Y-151615460D01*
X74930000Y-151846870D01*
X74834147Y-151615460D01*
X74444540Y-151225853D01*
X73935494Y-151015000D01*
X73384506Y-151015000D01*
X72875460Y-151225853D01*
X72505000Y-151596313D01*
X72505000Y-151523690D01*
X72408327Y-151290301D01*
X72363026Y-151245000D01*
X72665494Y-151245000D01*
X73174540Y-151034147D01*
X73564147Y-150644540D01*
X73660000Y-150413130D01*
X73755853Y-150644540D01*
X74145460Y-151034147D01*
X74654506Y-151245000D01*
X75205494Y-151245000D01*
X75714540Y-151034147D01*
X76104147Y-150644540D01*
X76200000Y-150413130D01*
X76295853Y-150644540D01*
X76685460Y-151034147D01*
X77194506Y-151245000D01*
X77745494Y-151245000D01*
X78254540Y-151034147D01*
X78644147Y-150644540D01*
X78740000Y-150413130D01*
X78835853Y-150644540D01*
X79225460Y-151034147D01*
X79734506Y-151245000D01*
X80285494Y-151245000D01*
X80794540Y-151034147D01*
X81184147Y-150644540D01*
X81395000Y-150135494D01*
X81395000Y-149584506D01*
X81184147Y-149075460D01*
X80848200Y-148739513D01*
X80848200Y-147667193D01*
X81627194Y-146888200D01*
X98712807Y-146888200D01*
X99491801Y-147667195D01*
X99491800Y-148739513D01*
X99155853Y-149075460D01*
X99060000Y-149306870D01*
X98964147Y-149075460D01*
X98574540Y-148685853D01*
X98065494Y-148475000D01*
X97514506Y-148475000D01*
X97005460Y-148685853D01*
X96615853Y-149075460D01*
X96520000Y-149306870D01*
X96424147Y-149075460D01*
X96034540Y-148685853D01*
X95525494Y-148475000D01*
X94974506Y-148475000D01*
X94465460Y-148685853D01*
X94075853Y-149075460D01*
X93980000Y-149306870D01*
X93884147Y-149075460D01*
X93494540Y-148685853D01*
X92985494Y-148475000D01*
X92434506Y-148475000D01*
X91925460Y-148685853D01*
X91535853Y-149075460D01*
X91325000Y-149584506D01*
X91325000Y-150135494D01*
X91535853Y-150644540D01*
X91906313Y-151015000D01*
X91725750Y-151015000D01*
X91567000Y-151173750D01*
X91567000Y-152273000D01*
X91587000Y-152273000D01*
X91587000Y-152527000D01*
X91567000Y-152527000D01*
X91567000Y-153626250D01*
X91725750Y-153785000D01*
X92316309Y-153785000D01*
X92549698Y-153688327D01*
X92728327Y-153509699D01*
X92825000Y-153276310D01*
X92825000Y-153203687D01*
X93195460Y-153574147D01*
X93704506Y-153785000D01*
X94255494Y-153785000D01*
X94764540Y-153574147D01*
X95154147Y-153184540D01*
X95250000Y-152953130D01*
X95345853Y-153184540D01*
X95735460Y-153574147D01*
X96244506Y-153785000D01*
X96795494Y-153785000D01*
X97304540Y-153574147D01*
X97694147Y-153184540D01*
X97790000Y-152953130D01*
X97885853Y-153184540D01*
X98275460Y-153574147D01*
X98784506Y-153785000D01*
X99335494Y-153785000D01*
X99844540Y-153574147D01*
X100234147Y-153184540D01*
X100445000Y-152675494D01*
X100445000Y-152124506D01*
X100234147Y-151615460D01*
X99844540Y-151225853D01*
X99335494Y-151015000D01*
X98784506Y-151015000D01*
X98275460Y-151225853D01*
X97885853Y-151615460D01*
X97790000Y-151846870D01*
X97694147Y-151615460D01*
X97304540Y-151225853D01*
X96795494Y-151015000D01*
X96244506Y-151015000D01*
X95735460Y-151225853D01*
X95345853Y-151615460D01*
X95250000Y-151846870D01*
X95154147Y-151615460D01*
X94764540Y-151225853D01*
X94255494Y-151015000D01*
X93704506Y-151015000D01*
X93195460Y-151225853D01*
X92825000Y-151596313D01*
X92825000Y-151523690D01*
X92728327Y-151290301D01*
X92683026Y-151245000D01*
X92985494Y-151245000D01*
X93494540Y-151034147D01*
X93884147Y-150644540D01*
X93980000Y-150413130D01*
X94075853Y-150644540D01*
X94465460Y-151034147D01*
X94974506Y-151245000D01*
X95525494Y-151245000D01*
X96034540Y-151034147D01*
X96424147Y-150644540D01*
X96520000Y-150413130D01*
X96615853Y-150644540D01*
X97005460Y-151034147D01*
X97514506Y-151245000D01*
X98065494Y-151245000D01*
X98574540Y-151034147D01*
X98964147Y-150644540D01*
X99060000Y-150413130D01*
X99155853Y-150644540D01*
X99545460Y-151034147D01*
X100054506Y-151245000D01*
X100605494Y-151245000D01*
X101114540Y-151034147D01*
X101504147Y-150644540D01*
X101715000Y-150135494D01*
X101715000Y-149584506D01*
X101504147Y-149075460D01*
X101168200Y-148739513D01*
X101168200Y-147402548D01*
X101184620Y-147319999D01*
X101168200Y-147237450D01*
X101168200Y-147237446D01*
X101119567Y-146992951D01*
X101017079Y-146839567D01*
X100981071Y-146785677D01*
X100981070Y-146785676D01*
X100934308Y-146715692D01*
X100864324Y-146668930D01*
X99711072Y-145515679D01*
X99664308Y-145445692D01*
X99387049Y-145260433D01*
X99142554Y-145211800D01*
X99142549Y-145211800D01*
X99060000Y-145195380D01*
X98977451Y-145211800D01*
X81362548Y-145211800D01*
X81279999Y-145195380D01*
X81197450Y-145211800D01*
X81197446Y-145211800D01*
X80952951Y-145260433D01*
X80952949Y-145260434D01*
X80952950Y-145260434D01*
X80745677Y-145398929D01*
X80745676Y-145398930D01*
X80675692Y-145445692D01*
X80628930Y-145515676D01*
X79475679Y-146668928D01*
X79405692Y-146715692D01*
X79220433Y-146992952D01*
X79171800Y-147237447D01*
X79171800Y-147237451D01*
X79155380Y-147320000D01*
X79171800Y-147402549D01*
X79171801Y-148739512D01*
X78835853Y-149075460D01*
X78740000Y-149306870D01*
X78644147Y-149075460D01*
X78254540Y-148685853D01*
X77745494Y-148475000D01*
X77194506Y-148475000D01*
X76685460Y-148685853D01*
X76295853Y-149075460D01*
X76200000Y-149306870D01*
X76104147Y-149075460D01*
X75714540Y-148685853D01*
X75205494Y-148475000D01*
X74654506Y-148475000D01*
X74145460Y-148685853D01*
X73755853Y-149075460D01*
X73660000Y-149306870D01*
X73564147Y-149075460D01*
X73174540Y-148685853D01*
X72665494Y-148475000D01*
X72114506Y-148475000D01*
X71605460Y-148685853D01*
X71215853Y-149075460D01*
X71005000Y-149584506D01*
X53289200Y-149584506D01*
X53289200Y-144229410D01*
X53403500Y-143953464D01*
X53403500Y-143574536D01*
X53258491Y-143224452D01*
X52990548Y-142956509D01*
X52640464Y-142811500D01*
X52261536Y-142811500D01*
X51911452Y-142956509D01*
X51643509Y-143224452D01*
X51498500Y-143574536D01*
X51498500Y-143953464D01*
X51612800Y-144229410D01*
X51612801Y-152527000D01*
X41073606Y-152527000D01*
X40132000Y-151585394D01*
X40132000Y-140907536D01*
X51496321Y-140907536D01*
X51496321Y-141286464D01*
X51641330Y-141636548D01*
X51909273Y-141904491D01*
X52259357Y-142049500D01*
X52638285Y-142049500D01*
X52988369Y-141904491D01*
X53256312Y-141636548D01*
X53401321Y-141286464D01*
X53401321Y-140907536D01*
X59626500Y-140907536D01*
X59626500Y-141286464D01*
X59771509Y-141636548D01*
X60039452Y-141904491D01*
X60389536Y-142049500D01*
X60768464Y-142049500D01*
X61118548Y-141904491D01*
X61189439Y-141833600D01*
X79272561Y-141833600D01*
X79343452Y-141904491D01*
X79693536Y-142049500D01*
X80072464Y-142049500D01*
X80422548Y-141904491D01*
X80690491Y-141636548D01*
X80835500Y-141286464D01*
X80835500Y-140907536D01*
X80690491Y-140557452D01*
X80422548Y-140289509D01*
X80072464Y-140144500D01*
X79693536Y-140144500D01*
X79343452Y-140289509D01*
X79272561Y-140360400D01*
X61189439Y-140360400D01*
X61118548Y-140289509D01*
X60768464Y-140144500D01*
X60389536Y-140144500D01*
X60039452Y-140289509D01*
X59771509Y-140557452D01*
X59626500Y-140907536D01*
X53401321Y-140907536D01*
X53256312Y-140557452D01*
X52988369Y-140289509D01*
X52638285Y-140144500D01*
X52259357Y-140144500D01*
X51909273Y-140289509D01*
X51641330Y-140557452D01*
X51496321Y-140907536D01*
X40132000Y-140907536D01*
X40132000Y-83999606D01*
X40919401Y-83212205D01*
X40919400Y-93653460D01*
X40904971Y-93726000D01*
X40919400Y-93798540D01*
X40919400Y-93798543D01*
X40962139Y-94013406D01*
X40962509Y-94013960D01*
X40962139Y-94014513D01*
X40919400Y-94229376D01*
X40919400Y-94229379D01*
X40904971Y-94301919D01*
X40919400Y-94374459D01*
X40919401Y-136452455D01*
X40904971Y-136525000D01*
X40962139Y-136812406D01*
X41083849Y-136994558D01*
X41083852Y-136994561D01*
X41124943Y-137056058D01*
X41186440Y-137097149D01*
X41591849Y-137502558D01*
X41632942Y-137564058D01*
X41876593Y-137726861D01*
X42091456Y-137769600D01*
X42091460Y-137769600D01*
X42163999Y-137784029D01*
X42236538Y-137769600D01*
X72825460Y-137769600D01*
X72898000Y-137784029D01*
X72970540Y-137769600D01*
X72970544Y-137769600D01*
X73185407Y-137726861D01*
X73429058Y-137564058D01*
X73470151Y-137502558D01*
X74637561Y-136335149D01*
X74699058Y-136294058D01*
X74740149Y-136232561D01*
X74740151Y-136232559D01*
X74861861Y-136050407D01*
X74868140Y-136018839D01*
X74904600Y-135835544D01*
X74904600Y-135835541D01*
X74919029Y-135763001D01*
X74904600Y-135690460D01*
X74904600Y-132588000D01*
X79883000Y-132588000D01*
X79883000Y-139192000D01*
X79892667Y-139240601D01*
X79920197Y-139281803D01*
X80428197Y-139789803D01*
X80469399Y-139817333D01*
X80518000Y-139827000D01*
X87249000Y-139827000D01*
X87297601Y-139817333D01*
X87338803Y-139789803D01*
X87719803Y-139408803D01*
X87747333Y-139367601D01*
X87757000Y-139319000D01*
X87757000Y-132461000D01*
X87747333Y-132412399D01*
X87719803Y-132371197D01*
X87338803Y-131990197D01*
X87297601Y-131962667D01*
X87249000Y-131953000D01*
X80518000Y-131953000D01*
X80469399Y-131962667D01*
X80428197Y-131990197D01*
X79920197Y-132498197D01*
X79892667Y-132539399D01*
X79883000Y-132588000D01*
X74904600Y-132588000D01*
X74904600Y-127229439D01*
X74975491Y-127158548D01*
X75120500Y-126808464D01*
X75120500Y-126429536D01*
X74975491Y-126079452D01*
X74904600Y-126008561D01*
X74904600Y-125958600D01*
X87430460Y-125958600D01*
X87503000Y-125973029D01*
X87575540Y-125958600D01*
X87575544Y-125958600D01*
X87790407Y-125915861D01*
X88034058Y-125753058D01*
X88075151Y-125691558D01*
X90893560Y-122873149D01*
X90955058Y-122832058D01*
X90996149Y-122770561D01*
X90996151Y-122770559D01*
X91117861Y-122588407D01*
X91140973Y-122472213D01*
X91160600Y-122373544D01*
X91160600Y-122373541D01*
X91175029Y-122301000D01*
X91160600Y-122228460D01*
X91160600Y-119228439D01*
X91231491Y-119157548D01*
X91376500Y-118807464D01*
X91376500Y-118428536D01*
X91231491Y-118078452D01*
X90963548Y-117810509D01*
X90613464Y-117665500D01*
X90297000Y-117665500D01*
X90297000Y-113361039D01*
X90342491Y-113315548D01*
X90487500Y-112965464D01*
X90487500Y-112586536D01*
X90342491Y-112236452D01*
X90074548Y-111968509D01*
X89724464Y-111823500D01*
X89345536Y-111823500D01*
X89115902Y-111918617D01*
X88886267Y-111823500D01*
X88507339Y-111823500D01*
X88462733Y-111841976D01*
X89751210Y-110553500D01*
X98322561Y-110553500D01*
X98393452Y-110624391D01*
X98743536Y-110769400D01*
X99122464Y-110769400D01*
X99472548Y-110624391D01*
X99740491Y-110356448D01*
X99885500Y-110006364D01*
X99885500Y-109956600D01*
X102846187Y-109956600D01*
X103069375Y-110290625D01*
X103367761Y-110490000D01*
X103069375Y-110689375D01*
X102741161Y-111180582D01*
X102625908Y-111760000D01*
X102741161Y-112339418D01*
X103069375Y-112830625D01*
X103367761Y-113030000D01*
X103069375Y-113229375D01*
X102741161Y-113720582D01*
X102625908Y-114300000D01*
X102741161Y-114879418D01*
X103069375Y-115370625D01*
X103367761Y-115570000D01*
X103069375Y-115769375D01*
X102741161Y-116260582D01*
X102625908Y-116840000D01*
X102741161Y-117419418D01*
X102754991Y-117440115D01*
X102574629Y-117560629D01*
X102532116Y-117624254D01*
X102130252Y-118026118D01*
X102066630Y-118068629D01*
X102024119Y-118132251D01*
X102024118Y-118132252D01*
X101898213Y-118320683D01*
X101839073Y-118618000D01*
X101854001Y-118693048D01*
X101854000Y-119507000D01*
X101790500Y-119507000D01*
X101790500Y-119190536D01*
X101645491Y-118840452D01*
X101377548Y-118572509D01*
X101027464Y-118427500D01*
X100648536Y-118427500D01*
X100298452Y-118572509D01*
X100252961Y-118618000D01*
X99137039Y-118618000D01*
X99091548Y-118572509D01*
X98741464Y-118427500D01*
X98362536Y-118427500D01*
X98012452Y-118572509D01*
X97744509Y-118840452D01*
X97599500Y-119190536D01*
X97599500Y-119569464D01*
X97705139Y-119824500D01*
X97600536Y-119824500D01*
X97250452Y-119969509D01*
X96982509Y-120237452D01*
X96880013Y-120484900D01*
X96584536Y-120484900D01*
X96234452Y-120629909D01*
X95966509Y-120897852D01*
X95821500Y-121247936D01*
X95821500Y-121626864D01*
X95966509Y-121976948D01*
X96012000Y-122022439D01*
X96012001Y-124003952D01*
X95997073Y-124079000D01*
X96056213Y-124376317D01*
X96097261Y-124437749D01*
X96224630Y-124628371D01*
X96288252Y-124670882D01*
X96563116Y-124945746D01*
X96605629Y-125009371D01*
X96782319Y-125127431D01*
X96857681Y-125177787D01*
X96857682Y-125177787D01*
X96857683Y-125177788D01*
X97079952Y-125222000D01*
X97079956Y-125222000D01*
X97154999Y-125236927D01*
X97230042Y-125222000D01*
X101600000Y-125222000D01*
X101600001Y-127686952D01*
X101585073Y-127762000D01*
X101600001Y-127837048D01*
X101644213Y-128059317D01*
X101812630Y-128311371D01*
X101876251Y-128353881D01*
X102698321Y-129175952D01*
X102625908Y-129540000D01*
X102719376Y-130009899D01*
X102584382Y-130009899D01*
X102534491Y-129889452D01*
X102266548Y-129621509D01*
X101916464Y-129476500D01*
X101537536Y-129476500D01*
X101187452Y-129621509D01*
X100919509Y-129889452D01*
X100774500Y-130239536D01*
X100774500Y-130618464D01*
X100919509Y-130968548D01*
X101187452Y-131236491D01*
X101537536Y-131381500D01*
X101669002Y-131381500D01*
X101757092Y-131440360D01*
X101971955Y-131483099D01*
X101971959Y-131483099D01*
X102044498Y-131497528D01*
X102117037Y-131483099D01*
X102752843Y-131483099D01*
X102741161Y-131500582D01*
X102625908Y-132080000D01*
X102741161Y-132659418D01*
X103069375Y-133150625D01*
X103367761Y-133350000D01*
X103069375Y-133549375D01*
X102741161Y-134040582D01*
X102625908Y-134620000D01*
X102741161Y-135199418D01*
X103069375Y-135690625D01*
X103560582Y-136018839D01*
X103993744Y-136105000D01*
X104286256Y-136105000D01*
X104719418Y-136018839D01*
X105210625Y-135690625D01*
X105410000Y-135392239D01*
X105609375Y-135690625D01*
X106100582Y-136018839D01*
X106533744Y-136105000D01*
X106826256Y-136105000D01*
X107259418Y-136018839D01*
X107750625Y-135690625D01*
X108078839Y-135199418D01*
X108194092Y-134620000D01*
X108078839Y-134040582D01*
X107750625Y-133549375D01*
X107452239Y-133350000D01*
X107750625Y-133150625D01*
X108078839Y-132659418D01*
X108194092Y-132080000D01*
X108078839Y-131500582D01*
X107750625Y-131009375D01*
X107452239Y-130810000D01*
X107750625Y-130610625D01*
X108078839Y-130119418D01*
X108194092Y-129540000D01*
X108078839Y-128960582D01*
X107750625Y-128469375D01*
X107452239Y-128270000D01*
X107750625Y-128070625D01*
X108078839Y-127579418D01*
X108194092Y-127000000D01*
X108078839Y-126420582D01*
X107750625Y-125929375D01*
X107452239Y-125730000D01*
X107750625Y-125530625D01*
X108078839Y-125039418D01*
X108194092Y-124460000D01*
X108078839Y-123880582D01*
X107750625Y-123389375D01*
X107452239Y-123190000D01*
X107750625Y-122990625D01*
X108078839Y-122499418D01*
X108194092Y-121920000D01*
X108078839Y-121340582D01*
X107750625Y-120849375D01*
X107452239Y-120650000D01*
X107750625Y-120450625D01*
X108078839Y-119959418D01*
X108194092Y-119380000D01*
X108078839Y-118800582D01*
X107750625Y-118309375D01*
X107452239Y-118110000D01*
X107750625Y-117910625D01*
X108078839Y-117419418D01*
X108194092Y-116840000D01*
X108078839Y-116260582D01*
X107750625Y-115769375D01*
X107452239Y-115570000D01*
X107750625Y-115370625D01*
X108078839Y-114879418D01*
X108194092Y-114300000D01*
X108078839Y-113720582D01*
X107750625Y-113229375D01*
X107431522Y-113016157D01*
X107561358Y-112955183D01*
X107951645Y-112526924D01*
X108121476Y-112116890D01*
X108000155Y-111887000D01*
X106807000Y-111887000D01*
X106807000Y-111907000D01*
X106553000Y-111907000D01*
X106553000Y-111887000D01*
X106533000Y-111887000D01*
X106533000Y-111633000D01*
X106553000Y-111633000D01*
X106553000Y-111613000D01*
X106807000Y-111613000D01*
X106807000Y-111633000D01*
X108000155Y-111633000D01*
X108121476Y-111403110D01*
X107951645Y-110993076D01*
X107561358Y-110564817D01*
X107431522Y-110503843D01*
X107750625Y-110290625D01*
X108078839Y-109799418D01*
X108194092Y-109220000D01*
X108078839Y-108640582D01*
X107750625Y-108149375D01*
X107452239Y-107950000D01*
X107750625Y-107750625D01*
X108078839Y-107259418D01*
X108194092Y-106680000D01*
X108078839Y-106100582D01*
X107750625Y-105609375D01*
X107452239Y-105410000D01*
X107750625Y-105210625D01*
X108078839Y-104719418D01*
X108194092Y-104140000D01*
X108078839Y-103560582D01*
X107750625Y-103069375D01*
X107452239Y-102870000D01*
X107750625Y-102670625D01*
X108078839Y-102179418D01*
X108194092Y-101600000D01*
X108078839Y-101020582D01*
X107750625Y-100529375D01*
X107452239Y-100330000D01*
X107750625Y-100130625D01*
X108078839Y-99639418D01*
X108194092Y-99060000D01*
X108078839Y-98480582D01*
X107750625Y-97989375D01*
X107452239Y-97790000D01*
X107750625Y-97590625D01*
X108078839Y-97099418D01*
X108194092Y-96520000D01*
X108078839Y-95940582D01*
X107750625Y-95449375D01*
X107452239Y-95250000D01*
X107750625Y-95050625D01*
X108078839Y-94559418D01*
X108194092Y-93980000D01*
X108078839Y-93400582D01*
X107750625Y-92909375D01*
X107452239Y-92710000D01*
X107750625Y-92510625D01*
X108078839Y-92019418D01*
X108194092Y-91440000D01*
X108078839Y-90860582D01*
X107750625Y-90369375D01*
X107452239Y-90170000D01*
X107750625Y-89970625D01*
X108078839Y-89479418D01*
X108194092Y-88900000D01*
X108078839Y-88320582D01*
X107750625Y-87829375D01*
X107259418Y-87501161D01*
X106826256Y-87415000D01*
X106533744Y-87415000D01*
X106100582Y-87501161D01*
X105609375Y-87829375D01*
X105597184Y-87847619D01*
X105588157Y-87802235D01*
X105447809Y-87592191D01*
X105237765Y-87451843D01*
X104990000Y-87402560D01*
X103290000Y-87402560D01*
X103042235Y-87451843D01*
X102832191Y-87592191D01*
X102717600Y-87763687D01*
X102717600Y-77718948D01*
X102743000Y-77724000D01*
X109728000Y-77724000D01*
X109776601Y-77714333D01*
X109817803Y-77686803D01*
X110325803Y-77178803D01*
X110353333Y-77137601D01*
X110363000Y-77089000D01*
X110363000Y-70612000D01*
X110353333Y-70563399D01*
X110325803Y-70522197D01*
X109817803Y-70014197D01*
X109776601Y-69986667D01*
X109728000Y-69977000D01*
X102743000Y-69977000D01*
X102717600Y-69982052D01*
X102717600Y-54809540D01*
X102732029Y-54737000D01*
X102717600Y-54664459D01*
X102717600Y-54664456D01*
X102674861Y-54449593D01*
X102671497Y-54444558D01*
X102553151Y-54267441D01*
X102553149Y-54267439D01*
X102512058Y-54205942D01*
X102450560Y-54164850D01*
X101791151Y-53505442D01*
X101750058Y-53443942D01*
X101506407Y-53281139D01*
X101291544Y-53238400D01*
X101291540Y-53238400D01*
X101219000Y-53223971D01*
X101146460Y-53238400D01*
X100559439Y-53238400D01*
X100488548Y-53167509D01*
X100138464Y-53022500D01*
X99759536Y-53022500D01*
X99409452Y-53167509D01*
X99141509Y-53435452D01*
X98996500Y-53785536D01*
X98996500Y-54164464D01*
X99141509Y-54514548D01*
X99409452Y-54782491D01*
X99759536Y-54927500D01*
X100138464Y-54927500D01*
X100488548Y-54782491D01*
X100559439Y-54711600D01*
X100913891Y-54711600D01*
X101244401Y-55042111D01*
X101244400Y-96671561D01*
X101173509Y-96742452D01*
X101028500Y-97092536D01*
X101028500Y-97471464D01*
X101173509Y-97821548D01*
X101441452Y-98089491D01*
X101791536Y-98234500D01*
X102170464Y-98234500D01*
X102520548Y-98089491D01*
X102788491Y-97821548D01*
X102933500Y-97471464D01*
X102933500Y-97387274D01*
X103069375Y-97590625D01*
X103367761Y-97790000D01*
X103069375Y-97989375D01*
X102741161Y-98480582D01*
X102625908Y-99060000D01*
X102741161Y-99639418D01*
X103069375Y-100130625D01*
X103367761Y-100330000D01*
X103069375Y-100529375D01*
X102741161Y-101020582D01*
X102625908Y-101600000D01*
X102741161Y-102179418D01*
X103069375Y-102670625D01*
X103367761Y-102870000D01*
X103069375Y-103069375D01*
X102741161Y-103560582D01*
X102625908Y-104140000D01*
X102741161Y-104719418D01*
X103069375Y-105210625D01*
X103367761Y-105410000D01*
X103069375Y-105609375D01*
X102741161Y-106100582D01*
X102625908Y-106680000D01*
X102741161Y-107259418D01*
X103069375Y-107750625D01*
X103367761Y-107950000D01*
X103069375Y-108149375D01*
X102846187Y-108483400D01*
X89353540Y-108483400D01*
X89281000Y-108468971D01*
X89208459Y-108483400D01*
X89208456Y-108483400D01*
X88993593Y-108526139D01*
X88811441Y-108647849D01*
X88811439Y-108647851D01*
X88749942Y-108688942D01*
X88708851Y-108750440D01*
X85890440Y-111568851D01*
X85828943Y-111609942D01*
X85787852Y-111671439D01*
X85787849Y-111671442D01*
X85666139Y-111853594D01*
X85608971Y-112141000D01*
X85623401Y-112213545D01*
X85623400Y-114248891D01*
X85546891Y-114325400D01*
X72961500Y-114325400D01*
X72961500Y-114082339D01*
X73032391Y-114011448D01*
X73177400Y-113661364D01*
X73177400Y-113282436D01*
X73032391Y-112932352D01*
X72764448Y-112664409D01*
X72414364Y-112519400D01*
X72035436Y-112519400D01*
X71685352Y-112664409D01*
X71417409Y-112932352D01*
X71272400Y-113282436D01*
X71272400Y-113661364D01*
X71417409Y-114011448D01*
X71488300Y-114082339D01*
X71488301Y-114824355D01*
X71473871Y-114896900D01*
X71531039Y-115184306D01*
X71652749Y-115366458D01*
X71652752Y-115366461D01*
X71693843Y-115427958D01*
X71755340Y-115469049D01*
X71817849Y-115531558D01*
X71844582Y-115571567D01*
X71818500Y-115634536D01*
X71818500Y-116013464D01*
X71963509Y-116363548D01*
X72231452Y-116631491D01*
X72581536Y-116776500D01*
X72960464Y-116776500D01*
X73310548Y-116631491D01*
X73381439Y-116560600D01*
X86541460Y-116560600D01*
X86614000Y-116575029D01*
X86686540Y-116560600D01*
X86686544Y-116560600D01*
X86901407Y-116517861D01*
X87122000Y-116370465D01*
X87122001Y-121158000D01*
X46996842Y-121158000D01*
X46790625Y-120849375D01*
X46492239Y-120650000D01*
X46790625Y-120450625D01*
X47118839Y-119959418D01*
X47234092Y-119380000D01*
X47118839Y-118800582D01*
X46790625Y-118309375D01*
X46492239Y-118110000D01*
X46790625Y-117910625D01*
X47038578Y-117539536D01*
X48196500Y-117539536D01*
X48196500Y-117918464D01*
X48341509Y-118268548D01*
X48609452Y-118536491D01*
X48851446Y-118636728D01*
X48851446Y-118660518D01*
X48996455Y-119010602D01*
X49264398Y-119278545D01*
X49614482Y-119423554D01*
X49993410Y-119423554D01*
X50343494Y-119278545D01*
X50388985Y-119233054D01*
X71310500Y-119233054D01*
X71310500Y-119315464D01*
X71455509Y-119665548D01*
X71723452Y-119933491D01*
X72073536Y-120078500D01*
X72452464Y-120078500D01*
X72802548Y-119933491D01*
X72805692Y-119930347D01*
X73215500Y-119930347D01*
X73215500Y-120077464D01*
X73360509Y-120427548D01*
X73628452Y-120695491D01*
X73978536Y-120840500D01*
X74357464Y-120840500D01*
X74707548Y-120695491D01*
X74753039Y-120650000D01*
X79666261Y-120650000D01*
X79711752Y-120695491D01*
X80061836Y-120840500D01*
X80440764Y-120840500D01*
X80790848Y-120695491D01*
X81058791Y-120427548D01*
X81203800Y-120077464D01*
X81203800Y-120010237D01*
X81286848Y-119975838D01*
X81554791Y-119707895D01*
X81699800Y-119357811D01*
X81699800Y-119314601D01*
X81786848Y-119278545D01*
X82054791Y-119010602D01*
X82199800Y-118660518D01*
X82199800Y-118519993D01*
X82286848Y-118483937D01*
X82554791Y-118215994D01*
X82699800Y-117865910D01*
X82699800Y-117486982D01*
X82554791Y-117136898D01*
X82286848Y-116868955D01*
X81936764Y-116723946D01*
X81557836Y-116723946D01*
X81207752Y-116868955D01*
X81162261Y-116914446D01*
X62867593Y-116914446D01*
X63037491Y-116744548D01*
X63182500Y-116394464D01*
X63182500Y-116015536D01*
X63037491Y-115665452D01*
X62769548Y-115397509D01*
X62419464Y-115252500D01*
X62040536Y-115252500D01*
X61690452Y-115397509D01*
X61422509Y-115665452D01*
X61277500Y-116015536D01*
X61277500Y-116394464D01*
X61422509Y-116744548D01*
X61592407Y-116914446D01*
X49671496Y-116914446D01*
X49338464Y-116776500D01*
X48959536Y-116776500D01*
X48609452Y-116921509D01*
X48341509Y-117189452D01*
X48196500Y-117539536D01*
X47038578Y-117539536D01*
X47118839Y-117419418D01*
X47234092Y-116840000D01*
X47118839Y-116260582D01*
X46790625Y-115769375D01*
X46471522Y-115556157D01*
X46601358Y-115495183D01*
X46991645Y-115066924D01*
X47161476Y-114656890D01*
X47040155Y-114427000D01*
X45847000Y-114427000D01*
X45847000Y-114447000D01*
X45593000Y-114447000D01*
X45593000Y-114427000D01*
X45573000Y-114427000D01*
X45573000Y-114173000D01*
X45593000Y-114173000D01*
X45593000Y-111887000D01*
X45847000Y-111887000D01*
X45847000Y-114173000D01*
X47040155Y-114173000D01*
X47161476Y-113943110D01*
X46991645Y-113533076D01*
X46601358Y-113104817D01*
X46442046Y-113030000D01*
X46601358Y-112955183D01*
X46991645Y-112526924D01*
X47161476Y-112116890D01*
X47074213Y-111951536D01*
X61277500Y-111951536D01*
X61277500Y-112330464D01*
X61422509Y-112680548D01*
X61690452Y-112948491D01*
X62040536Y-113093500D01*
X62419464Y-113093500D01*
X62769548Y-112948491D01*
X62831505Y-112886534D01*
X67872460Y-112886534D01*
X67945000Y-112900963D01*
X68017540Y-112886534D01*
X68017544Y-112886534D01*
X68232407Y-112843795D01*
X68476058Y-112680992D01*
X68517151Y-112619492D01*
X68546676Y-112589967D01*
X68646931Y-112589967D01*
X68997015Y-112444958D01*
X69264958Y-112177015D01*
X69409967Y-111826931D01*
X69409967Y-111448003D01*
X69264958Y-111097919D01*
X68997015Y-110829976D01*
X68646931Y-110684967D01*
X68268003Y-110684967D01*
X67917919Y-110829976D01*
X67649976Y-111097919D01*
X67519327Y-111413334D01*
X62849373Y-111413334D01*
X62769548Y-111333509D01*
X62419464Y-111188500D01*
X62040536Y-111188500D01*
X61690452Y-111333509D01*
X61422509Y-111601452D01*
X61277500Y-111951536D01*
X47074213Y-111951536D01*
X47040155Y-111887000D01*
X45847000Y-111887000D01*
X45593000Y-111887000D01*
X43307000Y-111887000D01*
X43307000Y-111907000D01*
X43053000Y-111907000D01*
X43053000Y-111887000D01*
X43033000Y-111887000D01*
X43033000Y-111633000D01*
X43053000Y-111633000D01*
X43053000Y-111613000D01*
X43307000Y-111613000D01*
X43307000Y-111633000D01*
X45593000Y-111633000D01*
X45593000Y-111613000D01*
X45847000Y-111613000D01*
X45847000Y-111633000D01*
X47040155Y-111633000D01*
X47161476Y-111403110D01*
X46991645Y-110993076D01*
X46601358Y-110564817D01*
X46471522Y-110503843D01*
X46790625Y-110290625D01*
X47118839Y-109799418D01*
X47234092Y-109220000D01*
X47165468Y-108875000D01*
X76227560Y-108875000D01*
X76227560Y-113375000D01*
X76240000Y-113437540D01*
X76240000Y-113551037D01*
X76283434Y-113655897D01*
X76295874Y-113718435D01*
X76331299Y-113771452D01*
X76374733Y-113876312D01*
X76454988Y-113956567D01*
X76490414Y-114009586D01*
X76543433Y-114045012D01*
X76623688Y-114125267D01*
X76728548Y-114168701D01*
X76781565Y-114204126D01*
X76844103Y-114216566D01*
X76948963Y-114260000D01*
X77062460Y-114260000D01*
X77125000Y-114272440D01*
X81625000Y-114272440D01*
X81687540Y-114260000D01*
X81801037Y-114260000D01*
X81905897Y-114216566D01*
X81968435Y-114204126D01*
X82021452Y-114168701D01*
X82126312Y-114125267D01*
X82206567Y-114045012D01*
X82259586Y-114009586D01*
X82295012Y-113956567D01*
X82375267Y-113876312D01*
X82418701Y-113771452D01*
X82454126Y-113718435D01*
X82466566Y-113655897D01*
X82510000Y-113551037D01*
X82510000Y-113437540D01*
X82522440Y-113375000D01*
X82522440Y-108875000D01*
X82510000Y-108812460D01*
X82510000Y-108698963D01*
X82466566Y-108594103D01*
X82454126Y-108531565D01*
X82418701Y-108478548D01*
X82375267Y-108373688D01*
X82295012Y-108293433D01*
X82259586Y-108240414D01*
X82206567Y-108204988D01*
X82126312Y-108124733D01*
X82021452Y-108081299D01*
X81968435Y-108045874D01*
X81905897Y-108033434D01*
X81801037Y-107990000D01*
X81687540Y-107990000D01*
X81625000Y-107977560D01*
X77125000Y-107977560D01*
X77062460Y-107990000D01*
X76948963Y-107990000D01*
X76844103Y-108033434D01*
X76781565Y-108045874D01*
X76728548Y-108081299D01*
X76623688Y-108124733D01*
X76543433Y-108204988D01*
X76490414Y-108240414D01*
X76454988Y-108293433D01*
X76374733Y-108373688D01*
X76331299Y-108478548D01*
X76295874Y-108531565D01*
X76283434Y-108594103D01*
X76240000Y-108698963D01*
X76240000Y-108812460D01*
X76227560Y-108875000D01*
X47165468Y-108875000D01*
X47118839Y-108640582D01*
X46790625Y-108149375D01*
X46492239Y-107950000D01*
X46790625Y-107750625D01*
X47118839Y-107259418D01*
X47234092Y-106680000D01*
X47118839Y-106100582D01*
X46790625Y-105609375D01*
X46492239Y-105410000D01*
X46790625Y-105210625D01*
X47118839Y-104719418D01*
X47234092Y-104140000D01*
X47118839Y-103560582D01*
X46790625Y-103069375D01*
X46492239Y-102870000D01*
X46790625Y-102670625D01*
X47118839Y-102179418D01*
X47234092Y-101600000D01*
X47118839Y-101020582D01*
X46790625Y-100529375D01*
X46492239Y-100330000D01*
X46790625Y-100130625D01*
X47118839Y-99639418D01*
X47234092Y-99060000D01*
X47145882Y-98616536D01*
X62928500Y-98616536D01*
X62928500Y-98995464D01*
X63073509Y-99345548D01*
X63341452Y-99613491D01*
X63691536Y-99758500D01*
X64070464Y-99758500D01*
X64420548Y-99613491D01*
X64491439Y-99542600D01*
X82111461Y-99542600D01*
X82182352Y-99613491D01*
X82532436Y-99758500D01*
X82911364Y-99758500D01*
X83261448Y-99613491D01*
X83529391Y-99345548D01*
X83674400Y-98995464D01*
X83674400Y-98616536D01*
X83529391Y-98266452D01*
X83261448Y-97998509D01*
X82911364Y-97853500D01*
X82532436Y-97853500D01*
X82182352Y-97998509D01*
X82111461Y-98069400D01*
X64491439Y-98069400D01*
X64420548Y-97998509D01*
X64070464Y-97853500D01*
X63691536Y-97853500D01*
X63341452Y-97998509D01*
X63073509Y-98266452D01*
X62928500Y-98616536D01*
X47145882Y-98616536D01*
X47118839Y-98480582D01*
X46790625Y-97989375D01*
X46471522Y-97776157D01*
X46601358Y-97715183D01*
X46991645Y-97286924D01*
X47161476Y-96876890D01*
X47040155Y-96647000D01*
X45847000Y-96647000D01*
X45847000Y-96667000D01*
X45593000Y-96667000D01*
X45593000Y-96647000D01*
X45573000Y-96647000D01*
X45573000Y-96393000D01*
X45593000Y-96393000D01*
X45593000Y-96373000D01*
X45847000Y-96373000D01*
X45847000Y-96393000D01*
X47040155Y-96393000D01*
X47161476Y-96163110D01*
X46991645Y-95753076D01*
X46601358Y-95324817D01*
X46471522Y-95263843D01*
X46790625Y-95050625D01*
X47118839Y-94559418D01*
X47234092Y-93980000D01*
X47118839Y-93400582D01*
X46790625Y-92909375D01*
X46492239Y-92710000D01*
X46790625Y-92510625D01*
X47118839Y-92019418D01*
X47234092Y-91440000D01*
X47118839Y-90860582D01*
X46790625Y-90369375D01*
X46492239Y-90170000D01*
X46790625Y-89970625D01*
X47118839Y-89479418D01*
X47234092Y-88900000D01*
X47118839Y-88320582D01*
X46790625Y-87829375D01*
X46299418Y-87501161D01*
X45866256Y-87415000D01*
X45573744Y-87415000D01*
X45402500Y-87449062D01*
X45402500Y-87186536D01*
X45257491Y-86836452D01*
X45186600Y-86765561D01*
X45186600Y-84146538D01*
X45201029Y-84073999D01*
X45186600Y-84001460D01*
X45186600Y-84001456D01*
X45143861Y-83786593D01*
X44981058Y-83542942D01*
X44919558Y-83501849D01*
X43878500Y-82460791D01*
X43878500Y-82360536D01*
X43733491Y-82010452D01*
X43465548Y-81742509D01*
X43115464Y-81597500D01*
X42736536Y-81597500D01*
X42390967Y-81740639D01*
X43105606Y-81026000D01*
X53505233Y-81026000D01*
X53308452Y-81107509D01*
X53040509Y-81375452D01*
X52895500Y-81725536D01*
X52895500Y-82104464D01*
X53040509Y-82454548D01*
X53111400Y-82525439D01*
X53111401Y-91210560D01*
X53040509Y-91281452D01*
X52895500Y-91631536D01*
X52895500Y-92010464D01*
X53040509Y-92360548D01*
X53308452Y-92628491D01*
X53658536Y-92773500D01*
X54037464Y-92773500D01*
X54387548Y-92628491D01*
X54655491Y-92360548D01*
X54800500Y-92010464D01*
X54800500Y-91631536D01*
X54655491Y-91281452D01*
X54584600Y-91210561D01*
X54584600Y-82525439D01*
X54655491Y-82454548D01*
X54800500Y-82104464D01*
X54800500Y-81725536D01*
X54655491Y-81375452D01*
X54387548Y-81107509D01*
X54190767Y-81026000D01*
X55181500Y-81026000D01*
X55181500Y-81342464D01*
X55326509Y-81692548D01*
X55594452Y-81960491D01*
X55944536Y-82105500D01*
X56323464Y-82105500D01*
X56673548Y-81960491D01*
X56744439Y-81889600D01*
X57340500Y-81889600D01*
X57340500Y-82104464D01*
X57485509Y-82454548D01*
X57556401Y-82525440D01*
X57556400Y-91210561D01*
X57485509Y-91281452D01*
X57340500Y-91631536D01*
X57340500Y-92010464D01*
X57485509Y-92360548D01*
X57753452Y-92628491D01*
X58103536Y-92773500D01*
X58482464Y-92773500D01*
X58832548Y-92628491D01*
X59100491Y-92360548D01*
X59245500Y-92010464D01*
X59245500Y-91631536D01*
X59100491Y-91281452D01*
X59029600Y-91210561D01*
X59029600Y-82525439D01*
X59100491Y-82454548D01*
X59245500Y-82104464D01*
X59245500Y-81889600D01*
X62928500Y-81889600D01*
X62928500Y-81977464D01*
X63073509Y-82327548D01*
X63144401Y-82398440D01*
X63144400Y-91210561D01*
X63073509Y-91281452D01*
X62928500Y-91631536D01*
X62928500Y-92010464D01*
X63073509Y-92360548D01*
X63341452Y-92628491D01*
X63691536Y-92773500D01*
X64070464Y-92773500D01*
X64287402Y-92683642D01*
X64504339Y-92773500D01*
X64883267Y-92773500D01*
X65233351Y-92628491D01*
X65501294Y-92360548D01*
X65646303Y-92010464D01*
X65646303Y-91631536D01*
X65501294Y-91281452D01*
X65430403Y-91210561D01*
X65430403Y-81657343D01*
X65444832Y-81584803D01*
X65430403Y-81512262D01*
X65430403Y-81512259D01*
X65387664Y-81297396D01*
X65224861Y-81053745D01*
X65183338Y-81026000D01*
X72058961Y-81026000D01*
X71963509Y-81121452D01*
X71818500Y-81471536D01*
X71818500Y-81850464D01*
X71963509Y-82200548D01*
X72034400Y-82271439D01*
X72034401Y-92099560D01*
X71963509Y-92170452D01*
X71818500Y-92520536D01*
X71818500Y-92899464D01*
X71963509Y-93249548D01*
X72231452Y-93517491D01*
X72581536Y-93662500D01*
X72960464Y-93662500D01*
X73310548Y-93517491D01*
X73578491Y-93249548D01*
X73723500Y-92899464D01*
X73723500Y-92520536D01*
X73578491Y-92170452D01*
X73507600Y-92099561D01*
X73507600Y-82271439D01*
X73578491Y-82200548D01*
X73723500Y-81850464D01*
X73723500Y-81471536D01*
X73578491Y-81121452D01*
X73483039Y-81026000D01*
X74471961Y-81026000D01*
X74376509Y-81121452D01*
X74231500Y-81471536D01*
X74231500Y-81850464D01*
X74376509Y-82200548D01*
X74447401Y-82271440D01*
X74447400Y-93115561D01*
X74376509Y-93186452D01*
X74231500Y-93536536D01*
X74231500Y-93915464D01*
X74376509Y-94265548D01*
X74644452Y-94533491D01*
X74994536Y-94678500D01*
X75373464Y-94678500D01*
X75723548Y-94533491D01*
X75991491Y-94265548D01*
X76136500Y-93915464D01*
X76136500Y-93536536D01*
X75991491Y-93186452D01*
X75920600Y-93115561D01*
X75920600Y-82271439D01*
X75991491Y-82200548D01*
X76136500Y-81850464D01*
X76136500Y-81471536D01*
X75991491Y-81121452D01*
X75896039Y-81026000D01*
X76649441Y-81026000D01*
X76517500Y-81344536D01*
X76517500Y-81723464D01*
X76662509Y-82073548D01*
X76733400Y-82144439D01*
X76733401Y-93115560D01*
X76662509Y-93186452D01*
X76517500Y-93536536D01*
X76517500Y-93915464D01*
X76662509Y-94265548D01*
X76930452Y-94533491D01*
X77280536Y-94678500D01*
X77459534Y-94678500D01*
X77551509Y-94900548D01*
X77819452Y-95168491D01*
X78169536Y-95313500D01*
X78548464Y-95313500D01*
X78898548Y-95168491D01*
X79166491Y-94900548D01*
X79311500Y-94550464D01*
X79311500Y-94171536D01*
X79166491Y-93821452D01*
X79095600Y-93750561D01*
X79095600Y-82525439D01*
X79166491Y-82454548D01*
X79311500Y-82104464D01*
X79311500Y-81725536D01*
X79166491Y-81375452D01*
X78898548Y-81107509D01*
X78701767Y-81026000D01*
X91743961Y-81026000D01*
X91521509Y-81248452D01*
X91376500Y-81598536D01*
X91376500Y-81977464D01*
X91521509Y-82327548D01*
X91592401Y-82398440D01*
X91592400Y-93242561D01*
X91521509Y-93313452D01*
X91376500Y-93663536D01*
X91376500Y-94042464D01*
X91521509Y-94392548D01*
X91789452Y-94660491D01*
X92139536Y-94805500D01*
X92518464Y-94805500D01*
X92868548Y-94660491D01*
X93136491Y-94392548D01*
X93281500Y-94042464D01*
X93281500Y-93663536D01*
X93136491Y-93313452D01*
X93065600Y-93242561D01*
X93065600Y-91630500D01*
X93370400Y-91630500D01*
X93370400Y-92353561D01*
X93299509Y-92424452D01*
X93154500Y-92774536D01*
X93154500Y-93153464D01*
X93299509Y-93503548D01*
X93567452Y-93771491D01*
X93917536Y-93916500D01*
X94296464Y-93916500D01*
X94646548Y-93771491D01*
X94914491Y-93503548D01*
X95059500Y-93153464D01*
X95059500Y-92774536D01*
X94914491Y-92424452D01*
X94843600Y-92353561D01*
X94843600Y-82398439D01*
X94914491Y-82327548D01*
X95059500Y-81977464D01*
X95059500Y-81598536D01*
X94914491Y-81248452D01*
X94692039Y-81026000D01*
X95807961Y-81026000D01*
X95585509Y-81248452D01*
X95440500Y-81598536D01*
X95440500Y-81977464D01*
X95585509Y-82327548D01*
X95656401Y-82398440D01*
X95656400Y-90702561D01*
X95585509Y-90773452D01*
X95440500Y-91123536D01*
X95440500Y-91502464D01*
X95585509Y-91852548D01*
X95821500Y-92088539D01*
X95821500Y-92264464D01*
X95966509Y-92614548D01*
X96234452Y-92882491D01*
X96584536Y-93027500D01*
X96963464Y-93027500D01*
X97313548Y-92882491D01*
X97581491Y-92614548D01*
X97726500Y-92264464D01*
X97726500Y-91885536D01*
X97581491Y-91535452D01*
X97345500Y-91299461D01*
X97345500Y-91123536D01*
X97200491Y-90773452D01*
X97129600Y-90702561D01*
X97129600Y-82398439D01*
X97200491Y-82327548D01*
X97345500Y-81977464D01*
X97345500Y-81598536D01*
X97200491Y-81248452D01*
X96978039Y-81026000D01*
X100203000Y-81026000D01*
X100251601Y-81016333D01*
X100292803Y-80988803D01*
X101054803Y-80226803D01*
X101082333Y-80185601D01*
X101092000Y-80137000D01*
X101092000Y-60452000D01*
X101082333Y-60403399D01*
X101054803Y-60362197D01*
X100038803Y-59346197D01*
X99997601Y-59318667D01*
X99949000Y-59309000D01*
X60123606Y-59309000D01*
X59817000Y-59002394D01*
X59817000Y-57852449D01*
X59865399Y-57914206D01*
X60436338Y-58236099D01*
X60573290Y-58269748D01*
X60833000Y-58150922D01*
X60833000Y-56007000D01*
X61087000Y-56007000D01*
X61087000Y-58150922D01*
X61346710Y-58269748D01*
X61483662Y-58236099D01*
X62054601Y-57914206D01*
X62458897Y-57398327D01*
X62635000Y-56767000D01*
X62635000Y-56007000D01*
X61087000Y-56007000D01*
X60833000Y-56007000D01*
X60813000Y-56007000D01*
X60813000Y-55753000D01*
X60833000Y-55753000D01*
X60833000Y-53609078D01*
X61087000Y-53609078D01*
X61087000Y-55753000D01*
X62635000Y-55753000D01*
X62635000Y-54993000D01*
X62624409Y-54955028D01*
X64365000Y-54955028D01*
X64365000Y-56804971D01*
X64462185Y-57293552D01*
X64832392Y-57847608D01*
X65386447Y-58217815D01*
X66040000Y-58347815D01*
X66693552Y-58217815D01*
X67247608Y-57847608D01*
X67617815Y-57293553D01*
X67715000Y-56804972D01*
X67715000Y-54955028D01*
X67617815Y-54466447D01*
X67247608Y-53912392D01*
X66776600Y-53597675D01*
X66776600Y-50901600D01*
X70592448Y-50901600D01*
X70588943Y-50903942D01*
X70547852Y-50965439D01*
X70547849Y-50965442D01*
X70426139Y-51147594D01*
X70368971Y-51435000D01*
X70383401Y-51507545D01*
X70383400Y-53597676D01*
X69912393Y-53912392D01*
X69542186Y-54466447D01*
X69445000Y-54955028D01*
X69445000Y-56804971D01*
X69542185Y-57293552D01*
X69912392Y-57847608D01*
X70466447Y-58217815D01*
X71120000Y-58347815D01*
X71773552Y-58217815D01*
X72327608Y-57847608D01*
X72697815Y-57293553D01*
X72795000Y-56804972D01*
X72795000Y-54955028D01*
X72697815Y-54466447D01*
X72327608Y-53912392D01*
X71856600Y-53597675D01*
X71856600Y-51917600D01*
X75585648Y-51917600D01*
X75506139Y-52036594D01*
X75448971Y-52324000D01*
X75463401Y-52396545D01*
X75463400Y-53432560D01*
X75409999Y-53432560D01*
X75066564Y-53500873D01*
X74775414Y-53695414D01*
X74580873Y-53986564D01*
X74512560Y-54329999D01*
X74512560Y-57430001D01*
X74580873Y-57773436D01*
X74775414Y-58064586D01*
X75066564Y-58259127D01*
X75409999Y-58327440D01*
X76990001Y-58327440D01*
X77333436Y-58259127D01*
X77624586Y-58064586D01*
X77819127Y-57773436D01*
X77887440Y-57430001D01*
X77887440Y-54329999D01*
X77819127Y-53986564D01*
X77624586Y-53695414D01*
X77333436Y-53500873D01*
X76990001Y-53432560D01*
X76936600Y-53432560D01*
X76936600Y-52806600D01*
X92862400Y-52806600D01*
X92862401Y-57301560D01*
X92791509Y-57372452D01*
X92646500Y-57722536D01*
X92646500Y-58101464D01*
X92791509Y-58451548D01*
X93059452Y-58719491D01*
X93409536Y-58864500D01*
X93788464Y-58864500D01*
X94138548Y-58719491D01*
X94406491Y-58451548D01*
X94551500Y-58101464D01*
X94551500Y-57722536D01*
X94406491Y-57372452D01*
X94335600Y-57301561D01*
X94335600Y-54890247D01*
X94425536Y-54927500D01*
X94804464Y-54927500D01*
X95154548Y-54782491D01*
X95422491Y-54514548D01*
X95567500Y-54164464D01*
X95567500Y-53785536D01*
X95422491Y-53435452D01*
X95351600Y-53364561D01*
X95351600Y-51507540D01*
X95366029Y-51434999D01*
X95351600Y-51362457D01*
X95351600Y-51362456D01*
X95308861Y-51147593D01*
X95176916Y-50950123D01*
X95422491Y-50704548D01*
X95567500Y-50354464D01*
X95567500Y-49975536D01*
X95422491Y-49625452D01*
X95154548Y-49357509D01*
X94804464Y-49212500D01*
X94425536Y-49212500D01*
X94075452Y-49357509D01*
X94004561Y-49428400D01*
X66366540Y-49428400D01*
X66293999Y-49413971D01*
X66221459Y-49428400D01*
X66221456Y-49428400D01*
X66006593Y-49471139D01*
X65762942Y-49633942D01*
X65721849Y-49695442D01*
X65570440Y-49846851D01*
X65508943Y-49887942D01*
X65467852Y-49949439D01*
X65467849Y-49949442D01*
X65346139Y-50131594D01*
X65288971Y-50419000D01*
X65303401Y-50491545D01*
X65303400Y-53597676D01*
X64832393Y-53912392D01*
X64462186Y-54466447D01*
X64365000Y-54955028D01*
X62624409Y-54955028D01*
X62458897Y-54361673D01*
X62054601Y-53845794D01*
X61483662Y-53523901D01*
X61346710Y-53490252D01*
X61087000Y-53609078D01*
X60833000Y-53609078D01*
X60573290Y-53490252D01*
X60436338Y-53523901D01*
X59865399Y-53845794D01*
X59817000Y-53907551D01*
X59817000Y-49074606D01*
X60250606Y-48641000D01*
X99456837Y-48641000D01*
X99522509Y-48799548D01*
X99522509Y-48799548D01*
G37*
X99522509Y-48799548D02*
X99790452Y-49067491D01*
X100140536Y-49212500D01*
X100519464Y-49212500D01*
X100869548Y-49067491D01*
X100940439Y-48996600D01*
X104292400Y-48996600D01*
X104292401Y-53364560D01*
X104221509Y-53435452D01*
X104076500Y-53785536D01*
X104076500Y-54164464D01*
X104221509Y-54514548D01*
X104489452Y-54782491D01*
X104839536Y-54927500D01*
X105218464Y-54927500D01*
X105568548Y-54782491D01*
X105836491Y-54514548D01*
X105981500Y-54164464D01*
X105981500Y-53785536D01*
X105836491Y-53435452D01*
X105765600Y-53364561D01*
X105765600Y-48713538D01*
X105780029Y-48641000D01*
X110322301Y-48641000D01*
X111075000Y-49178642D01*
X111075001Y-152469401D01*
X109290820Y-154432000D01*
X62028606Y-154432000D01*
X60282356Y-152685750D01*
X69735000Y-152685750D01*
X69735000Y-153276310D01*
X69831673Y-153509699D01*
X70010302Y-153688327D01*
X70243691Y-153785000D01*
X70834250Y-153785000D01*
X70993000Y-153626250D01*
X70993000Y-152527000D01*
X69893750Y-152527000D01*
X69735000Y-152685750D01*
X60282356Y-152685750D01*
X60160803Y-152564197D01*
X60119601Y-152536667D01*
X60071000Y-152527000D01*
X53289200Y-152527000D01*
X53289200Y-151523690D01*
X69735000Y-151523690D01*
X69735000Y-152114250D01*
X69893750Y-152273000D01*
X70993000Y-152273000D01*
X70993000Y-151173750D01*
X70834250Y-151015000D01*
X70243691Y-151015000D01*
X70010302Y-151111673D01*
X69831673Y-151290301D01*
X69735000Y-151523690D01*
X53289200Y-151523690D01*
X53289200Y-149584506D01*
X71005000Y-149584506D01*
X71005000Y-150135494D01*
X71215853Y-150644540D01*
X71586313Y-151015000D01*
X71405750Y-151015000D01*
X71247000Y-151173750D01*
X71247000Y-152273000D01*
X71267000Y-152273000D01*
X71267000Y-152527000D01*
X71247000Y-152527000D01*
X71247000Y-153626250D01*
X71405750Y-153785000D01*
X71996309Y-153785000D01*
X72229698Y-153688327D01*
X72408327Y-153509699D01*
X72505000Y-153276310D01*
X72505000Y-153203687D01*
X72875460Y-153574147D01*
X73384506Y-153785000D01*
X73935494Y-153785000D01*
X74444540Y-153574147D01*
X74834147Y-153184540D01*
X74930000Y-152953130D01*
X75025853Y-153184540D01*
X75415460Y-153574147D01*
X75924506Y-153785000D01*
X76475494Y-153785000D01*
X76984540Y-153574147D01*
X77374147Y-153184540D01*
X77470000Y-152953130D01*
X77565853Y-153184540D01*
X77955460Y-153574147D01*
X78464506Y-153785000D01*
X79015494Y-153785000D01*
X79524540Y-153574147D01*
X79914147Y-153184540D01*
X80120751Y-152685750D01*
X90055000Y-152685750D01*
X90055000Y-153276310D01*
X90151673Y-153509699D01*
X90330302Y-153688327D01*
X90563691Y-153785000D01*
X91154250Y-153785000D01*
X91313000Y-153626250D01*
X91313000Y-152527000D01*
X90213750Y-152527000D01*
X90055000Y-152685750D01*
X80120751Y-152685750D01*
X80125000Y-152675494D01*
X80125000Y-152124506D01*
X79914147Y-151615460D01*
X79822377Y-151523690D01*
X90055000Y-151523690D01*
X90055000Y-152114250D01*
X90213750Y-152273000D01*
X91313000Y-152273000D01*
X91313000Y-151173750D01*
X91154250Y-151015000D01*
X90563691Y-151015000D01*
X90330302Y-151111673D01*
X90151673Y-151290301D01*
X90055000Y-151523690D01*
X79822377Y-151523690D01*
X79524540Y-151225853D01*
X79015494Y-151015000D01*
X78464506Y-151015000D01*
X77955460Y-151225853D01*
X77565853Y-151615460D01*
X77470000Y-151846870D01*
X77374147Y-151615460D01*
X76984540Y-151225853D01*
X76475494Y-151015000D01*
X75924506Y-151015000D01*
X75415460Y-151225853D01*
X75025853Y-151615460D01*
X74930000Y-151846870D01*
X74834147Y-151615460D01*
X74444540Y-151225853D01*
X73935494Y-151015000D01*
X73384506Y-151015000D01*
X72875460Y-151225853D01*
X72505000Y-151596313D01*
X72505000Y-151523690D01*
X72408327Y-151290301D01*
X72363026Y-151245000D01*
X72665494Y-151245000D01*
X73174540Y-151034147D01*
X73564147Y-150644540D01*
X73660000Y-150413130D01*
X73755853Y-150644540D01*
X74145460Y-151034147D01*
X74654506Y-151245000D01*
X75205494Y-151245000D01*
X75714540Y-151034147D01*
X76104147Y-150644540D01*
X76200000Y-150413130D01*
X76295853Y-150644540D01*
X76685460Y-151034147D01*
X77194506Y-151245000D01*
X77745494Y-151245000D01*
X78254540Y-151034147D01*
X78644147Y-150644540D01*
X78740000Y-150413130D01*
X78835853Y-150644540D01*
X79225460Y-151034147D01*
X79734506Y-151245000D01*
X80285494Y-151245000D01*
X80794540Y-151034147D01*
X81184147Y-150644540D01*
X81395000Y-150135494D01*
X81395000Y-149584506D01*
X81184147Y-149075460D01*
X80848200Y-148739513D01*
X80848200Y-147667193D01*
X81627194Y-146888200D01*
X98712807Y-146888200D01*
X99491801Y-147667195D01*
X99491800Y-148739513D01*
X99155853Y-149075460D01*
X99060000Y-149306870D01*
X98964147Y-149075460D01*
X98574540Y-148685853D01*
X98065494Y-148475000D01*
X97514506Y-148475000D01*
X97005460Y-148685853D01*
X96615853Y-149075460D01*
X96520000Y-149306870D01*
X96424147Y-149075460D01*
X96034540Y-148685853D01*
X95525494Y-148475000D01*
X94974506Y-148475000D01*
X94465460Y-148685853D01*
X94075853Y-149075460D01*
X93980000Y-149306870D01*
X93884147Y-149075460D01*
X93494540Y-148685853D01*
X92985494Y-148475000D01*
X92434506Y-148475000D01*
X91925460Y-148685853D01*
X91535853Y-149075460D01*
X91325000Y-149584506D01*
X91325000Y-150135494D01*
X91535853Y-150644540D01*
X91906313Y-151015000D01*
X91725750Y-151015000D01*
X91567000Y-151173750D01*
X91567000Y-152273000D01*
X91587000Y-152273000D01*
X91587000Y-152527000D01*
X91567000Y-152527000D01*
X91567000Y-153626250D01*
X91725750Y-153785000D01*
X92316309Y-153785000D01*
X92549698Y-153688327D01*
X92728327Y-153509699D01*
X92825000Y-153276310D01*
X92825000Y-153203687D01*
X93195460Y-153574147D01*
X93704506Y-153785000D01*
X94255494Y-153785000D01*
X94764540Y-153574147D01*
X95154147Y-153184540D01*
X95250000Y-152953130D01*
X95345853Y-153184540D01*
X95735460Y-153574147D01*
X96244506Y-153785000D01*
X96795494Y-153785000D01*
X97304540Y-153574147D01*
X97694147Y-153184540D01*
X97790000Y-152953130D01*
X97885853Y-153184540D01*
X98275460Y-153574147D01*
X98784506Y-153785000D01*
X99335494Y-153785000D01*
X99844540Y-153574147D01*
X100234147Y-153184540D01*
X100445000Y-152675494D01*
X100445000Y-152124506D01*
X100234147Y-151615460D01*
X99844540Y-151225853D01*
X99335494Y-151015000D01*
X98784506Y-151015000D01*
X98275460Y-151225853D01*
X97885853Y-151615460D01*
X97790000Y-151846870D01*
X97694147Y-151615460D01*
X97304540Y-151225853D01*
X96795494Y-151015000D01*
X96244506Y-151015000D01*
X95735460Y-151225853D01*
X95345853Y-151615460D01*
X95250000Y-151846870D01*
X95154147Y-151615460D01*
X94764540Y-151225853D01*
X94255494Y-151015000D01*
X93704506Y-151015000D01*
X93195460Y-151225853D01*
X92825000Y-151596313D01*
X92825000Y-151523690D01*
X92728327Y-151290301D01*
X92683026Y-151245000D01*
X92985494Y-151245000D01*
X93494540Y-151034147D01*
X93884147Y-150644540D01*
X93980000Y-150413130D01*
X94075853Y-150644540D01*
X94465460Y-151034147D01*
X94974506Y-151245000D01*
X95525494Y-151245000D01*
X96034540Y-151034147D01*
X96424147Y-150644540D01*
X96520000Y-150413130D01*
X96615853Y-150644540D01*
X97005460Y-151034147D01*
X97514506Y-151245000D01*
X98065494Y-151245000D01*
X98574540Y-151034147D01*
X98964147Y-150644540D01*
X99060000Y-150413130D01*
X99155853Y-150644540D01*
X99545460Y-151034147D01*
X100054506Y-151245000D01*
X100605494Y-151245000D01*
X101114540Y-151034147D01*
X101504147Y-150644540D01*
X101715000Y-150135494D01*
X101715000Y-149584506D01*
X101504147Y-149075460D01*
X101168200Y-148739513D01*
X101168200Y-147402548D01*
X101184620Y-147319999D01*
X101168200Y-147237450D01*
X101168200Y-147237446D01*
X101119567Y-146992951D01*
X101017079Y-146839567D01*
X100981071Y-146785677D01*
X100981070Y-146785676D01*
X100934308Y-146715692D01*
X100864324Y-146668930D01*
X99711072Y-145515679D01*
X99664308Y-145445692D01*
X99387049Y-145260433D01*
X99142554Y-145211800D01*
X99142549Y-145211800D01*
X99060000Y-145195380D01*
X98977451Y-145211800D01*
X81362548Y-145211800D01*
X81279999Y-145195380D01*
X81197450Y-145211800D01*
X81197446Y-145211800D01*
X80952951Y-145260433D01*
X80952949Y-145260434D01*
X80952950Y-145260434D01*
X80745677Y-145398929D01*
X80745676Y-145398930D01*
X80675692Y-145445692D01*
X80628930Y-145515676D01*
X79475679Y-146668928D01*
X79405692Y-146715692D01*
X79220433Y-146992952D01*
X79171800Y-147237447D01*
X79171800Y-147237451D01*
X79155380Y-147320000D01*
X79171800Y-147402549D01*
X79171801Y-148739512D01*
X78835853Y-149075460D01*
X78740000Y-149306870D01*
X78644147Y-149075460D01*
X78254540Y-148685853D01*
X77745494Y-148475000D01*
X77194506Y-148475000D01*
X76685460Y-148685853D01*
X76295853Y-149075460D01*
X76200000Y-149306870D01*
X76104147Y-149075460D01*
X75714540Y-148685853D01*
X75205494Y-148475000D01*
X74654506Y-148475000D01*
X74145460Y-148685853D01*
X73755853Y-149075460D01*
X73660000Y-149306870D01*
X73564147Y-149075460D01*
X73174540Y-148685853D01*
X72665494Y-148475000D01*
X72114506Y-148475000D01*
X71605460Y-148685853D01*
X71215853Y-149075460D01*
X71005000Y-149584506D01*
X53289200Y-149584506D01*
X53289200Y-144229410D01*
X53403500Y-143953464D01*
X53403500Y-143574536D01*
X53258491Y-143224452D01*
X52990548Y-142956509D01*
X52640464Y-142811500D01*
X52261536Y-142811500D01*
X51911452Y-142956509D01*
X51643509Y-143224452D01*
X51498500Y-143574536D01*
X51498500Y-143953464D01*
X51612800Y-144229410D01*
X51612801Y-152527000D01*
X41073606Y-152527000D01*
X40132000Y-151585394D01*
X40132000Y-140907536D01*
X51496321Y-140907536D01*
X51496321Y-141286464D01*
X51641330Y-141636548D01*
X51909273Y-141904491D01*
X52259357Y-142049500D01*
X52638285Y-142049500D01*
X52988369Y-141904491D01*
X53256312Y-141636548D01*
X53401321Y-141286464D01*
X53401321Y-140907536D01*
X59626500Y-140907536D01*
X59626500Y-141286464D01*
X59771509Y-141636548D01*
X60039452Y-141904491D01*
X60389536Y-142049500D01*
X60768464Y-142049500D01*
X61118548Y-141904491D01*
X61189439Y-141833600D01*
X79272561Y-141833600D01*
X79343452Y-141904491D01*
X79693536Y-142049500D01*
X80072464Y-142049500D01*
X80422548Y-141904491D01*
X80690491Y-141636548D01*
X80835500Y-141286464D01*
X80835500Y-140907536D01*
X80690491Y-140557452D01*
X80422548Y-140289509D01*
X80072464Y-140144500D01*
X79693536Y-140144500D01*
X79343452Y-140289509D01*
X79272561Y-140360400D01*
X61189439Y-140360400D01*
X61118548Y-140289509D01*
X60768464Y-140144500D01*
X60389536Y-140144500D01*
X60039452Y-140289509D01*
X59771509Y-140557452D01*
X59626500Y-140907536D01*
X53401321Y-140907536D01*
X53256312Y-140557452D01*
X52988369Y-140289509D01*
X52638285Y-140144500D01*
X52259357Y-140144500D01*
X51909273Y-140289509D01*
X51641330Y-140557452D01*
X51496321Y-140907536D01*
X40132000Y-140907536D01*
X40132000Y-83999606D01*
X40919401Y-83212205D01*
X40919400Y-93653460D01*
X40904971Y-93726000D01*
X40919400Y-93798540D01*
X40919400Y-93798543D01*
X40962139Y-94013406D01*
X40962509Y-94013960D01*
X40962139Y-94014513D01*
X40919400Y-94229376D01*
X40919400Y-94229379D01*
X40904971Y-94301919D01*
X40919400Y-94374459D01*
X40919401Y-136452455D01*
X40904971Y-136525000D01*
X40962139Y-136812406D01*
X41083849Y-136994558D01*
X41083852Y-136994561D01*
X41124943Y-137056058D01*
X41186440Y-137097149D01*
X41591849Y-137502558D01*
X41632942Y-137564058D01*
X41876593Y-137726861D01*
X42091456Y-137769600D01*
X42091460Y-137769600D01*
X42163999Y-137784029D01*
X42236538Y-137769600D01*
X72825460Y-137769600D01*
X72898000Y-137784029D01*
X72970540Y-137769600D01*
X72970544Y-137769600D01*
X73185407Y-137726861D01*
X73429058Y-137564058D01*
X73470151Y-137502558D01*
X74637561Y-136335149D01*
X74699058Y-136294058D01*
X74740149Y-136232561D01*
X74740151Y-136232559D01*
X74861861Y-136050407D01*
X74868140Y-136018839D01*
X74904600Y-135835544D01*
X74904600Y-135835541D01*
X74919029Y-135763001D01*
X74904600Y-135690460D01*
X74904600Y-132588000D01*
X79883000Y-132588000D01*
X79883000Y-139192000D01*
X79892667Y-139240601D01*
X79920197Y-139281803D01*
X80428197Y-139789803D01*
X80469399Y-139817333D01*
X80518000Y-139827000D01*
X87249000Y-139827000D01*
X87297601Y-139817333D01*
X87338803Y-139789803D01*
X87719803Y-139408803D01*
X87747333Y-139367601D01*
X87757000Y-139319000D01*
X87757000Y-132461000D01*
X87747333Y-132412399D01*
X87719803Y-132371197D01*
X87338803Y-131990197D01*
X87297601Y-131962667D01*
X87249000Y-131953000D01*
X80518000Y-131953000D01*
X80469399Y-131962667D01*
X80428197Y-131990197D01*
X79920197Y-132498197D01*
X79892667Y-132539399D01*
X79883000Y-132588000D01*
X74904600Y-132588000D01*
X74904600Y-127229439D01*
X74975491Y-127158548D01*
X75120500Y-126808464D01*
X75120500Y-126429536D01*
X74975491Y-126079452D01*
X74904600Y-126008561D01*
X74904600Y-125958600D01*
X87430460Y-125958600D01*
X87503000Y-125973029D01*
X87575540Y-125958600D01*
X87575544Y-125958600D01*
X87790407Y-125915861D01*
X88034058Y-125753058D01*
X88075151Y-125691558D01*
X90893560Y-122873149D01*
X90955058Y-122832058D01*
X90996149Y-122770561D01*
X90996151Y-122770559D01*
X91117861Y-122588407D01*
X91140973Y-122472213D01*
X91160600Y-122373544D01*
X91160600Y-122373541D01*
X91175029Y-122301000D01*
X91160600Y-122228460D01*
X91160600Y-119228439D01*
X91231491Y-119157548D01*
X91376500Y-118807464D01*
X91376500Y-118428536D01*
X91231491Y-118078452D01*
X90963548Y-117810509D01*
X90613464Y-117665500D01*
X90297000Y-117665500D01*
X90297000Y-113361039D01*
X90342491Y-113315548D01*
X90487500Y-112965464D01*
X90487500Y-112586536D01*
X90342491Y-112236452D01*
X90074548Y-111968509D01*
X89724464Y-111823500D01*
X89345536Y-111823500D01*
X89115902Y-111918617D01*
X88886267Y-111823500D01*
X88507339Y-111823500D01*
X88462733Y-111841976D01*
X89751210Y-110553500D01*
X98322561Y-110553500D01*
X98393452Y-110624391D01*
X98743536Y-110769400D01*
X99122464Y-110769400D01*
X99472548Y-110624391D01*
X99740491Y-110356448D01*
X99885500Y-110006364D01*
X99885500Y-109956600D01*
X102846187Y-109956600D01*
X103069375Y-110290625D01*
X103367761Y-110490000D01*
X103069375Y-110689375D01*
X102741161Y-111180582D01*
X102625908Y-111760000D01*
X102741161Y-112339418D01*
X103069375Y-112830625D01*
X103367761Y-113030000D01*
X103069375Y-113229375D01*
X102741161Y-113720582D01*
X102625908Y-114300000D01*
X102741161Y-114879418D01*
X103069375Y-115370625D01*
X103367761Y-115570000D01*
X103069375Y-115769375D01*
X102741161Y-116260582D01*
X102625908Y-116840000D01*
X102741161Y-117419418D01*
X102754991Y-117440115D01*
X102574629Y-117560629D01*
X102532116Y-117624254D01*
X102130252Y-118026118D01*
X102066630Y-118068629D01*
X102024119Y-118132251D01*
X102024118Y-118132252D01*
X101898213Y-118320683D01*
X101839073Y-118618000D01*
X101854001Y-118693048D01*
X101854000Y-119507000D01*
X101790500Y-119507000D01*
X101790500Y-119190536D01*
X101645491Y-118840452D01*
X101377548Y-118572509D01*
X101027464Y-118427500D01*
X100648536Y-118427500D01*
X100298452Y-118572509D01*
X100252961Y-118618000D01*
X99137039Y-118618000D01*
X99091548Y-118572509D01*
X98741464Y-118427500D01*
X98362536Y-118427500D01*
X98012452Y-118572509D01*
X97744509Y-118840452D01*
X97599500Y-119190536D01*
X97599500Y-119569464D01*
X97705139Y-119824500D01*
X97600536Y-119824500D01*
X97250452Y-119969509D01*
X96982509Y-120237452D01*
X96880013Y-120484900D01*
X96584536Y-120484900D01*
X96234452Y-120629909D01*
X95966509Y-120897852D01*
X95821500Y-121247936D01*
X95821500Y-121626864D01*
X95966509Y-121976948D01*
X96012000Y-122022439D01*
X96012001Y-124003952D01*
X95997073Y-124079000D01*
X96056213Y-124376317D01*
X96097261Y-124437749D01*
X96224630Y-124628371D01*
X96288252Y-124670882D01*
X96563116Y-124945746D01*
X96605629Y-125009371D01*
X96782319Y-125127431D01*
X96857681Y-125177787D01*
X96857682Y-125177787D01*
X96857683Y-125177788D01*
X97079952Y-125222000D01*
X97079956Y-125222000D01*
X97154999Y-125236927D01*
X97230042Y-125222000D01*
X101600000Y-125222000D01*
X101600001Y-127686952D01*
X101585073Y-127762000D01*
X101600001Y-127837048D01*
X101644213Y-128059317D01*
X101812630Y-128311371D01*
X101876251Y-128353881D01*
X102698321Y-129175952D01*
X102625908Y-129540000D01*
X102719376Y-130009899D01*
X102584382Y-130009899D01*
X102534491Y-129889452D01*
X102266548Y-129621509D01*
X101916464Y-129476500D01*
X101537536Y-129476500D01*
X101187452Y-129621509D01*
X100919509Y-129889452D01*
X100774500Y-130239536D01*
X100774500Y-130618464D01*
X100919509Y-130968548D01*
X101187452Y-131236491D01*
X101537536Y-131381500D01*
X101669002Y-131381500D01*
X101757092Y-131440360D01*
X101971955Y-131483099D01*
X101971959Y-131483099D01*
X102044498Y-131497528D01*
X102117037Y-131483099D01*
X102752843Y-131483099D01*
X102741161Y-131500582D01*
X102625908Y-132080000D01*
X102741161Y-132659418D01*
X103069375Y-133150625D01*
X103367761Y-133350000D01*
X103069375Y-133549375D01*
X102741161Y-134040582D01*
X102625908Y-134620000D01*
X102741161Y-135199418D01*
X103069375Y-135690625D01*
X103560582Y-136018839D01*
X103993744Y-136105000D01*
X104286256Y-136105000D01*
X104719418Y-136018839D01*
X105210625Y-135690625D01*
X105410000Y-135392239D01*
X105609375Y-135690625D01*
X106100582Y-136018839D01*
X106533744Y-136105000D01*
X106826256Y-136105000D01*
X107259418Y-136018839D01*
X107750625Y-135690625D01*
X108078839Y-135199418D01*
X108194092Y-134620000D01*
X108078839Y-134040582D01*
X107750625Y-133549375D01*
X107452239Y-133350000D01*
X107750625Y-133150625D01*
X108078839Y-132659418D01*
X108194092Y-132080000D01*
X108078839Y-131500582D01*
X107750625Y-131009375D01*
X107452239Y-130810000D01*
X107750625Y-130610625D01*
X108078839Y-130119418D01*
X108194092Y-129540000D01*
X108078839Y-128960582D01*
X107750625Y-128469375D01*
X107452239Y-128270000D01*
X107750625Y-128070625D01*
X108078839Y-127579418D01*
X108194092Y-127000000D01*
X108078839Y-126420582D01*
X107750625Y-125929375D01*
X107452239Y-125730000D01*
X107750625Y-125530625D01*
X108078839Y-125039418D01*
X108194092Y-124460000D01*
X108078839Y-123880582D01*
X107750625Y-123389375D01*
X107452239Y-123190000D01*
X107750625Y-122990625D01*
X108078839Y-122499418D01*
X108194092Y-121920000D01*
X108078839Y-121340582D01*
X107750625Y-120849375D01*
X107452239Y-120650000D01*
X107750625Y-120450625D01*
X108078839Y-119959418D01*
X108194092Y-119380000D01*
X108078839Y-118800582D01*
X107750625Y-118309375D01*
X107452239Y-118110000D01*
X107750625Y-117910625D01*
X108078839Y-117419418D01*
X108194092Y-116840000D01*
X108078839Y-116260582D01*
X107750625Y-115769375D01*
X107452239Y-115570000D01*
X107750625Y-115370625D01*
X108078839Y-114879418D01*
X108194092Y-114300000D01*
X108078839Y-113720582D01*
X107750625Y-113229375D01*
X107431522Y-113016157D01*
X107561358Y-112955183D01*
X107951645Y-112526924D01*
X108121476Y-112116890D01*
X108000155Y-111887000D01*
X106807000Y-111887000D01*
X106807000Y-111907000D01*
X106553000Y-111907000D01*
X106553000Y-111887000D01*
X106533000Y-111887000D01*
X106533000Y-111633000D01*
X106553000Y-111633000D01*
X106553000Y-111613000D01*
X106807000Y-111613000D01*
X106807000Y-111633000D01*
X108000155Y-111633000D01*
X108121476Y-111403110D01*
X107951645Y-110993076D01*
X107561358Y-110564817D01*
X107431522Y-110503843D01*
X107750625Y-110290625D01*
X108078839Y-109799418D01*
X108194092Y-109220000D01*
X108078839Y-108640582D01*
X107750625Y-108149375D01*
X107452239Y-107950000D01*
X107750625Y-107750625D01*
X108078839Y-107259418D01*
X108194092Y-106680000D01*
X108078839Y-106100582D01*
X107750625Y-105609375D01*
X107452239Y-105410000D01*
X107750625Y-105210625D01*
X108078839Y-104719418D01*
X108194092Y-104140000D01*
X108078839Y-103560582D01*
X107750625Y-103069375D01*
X107452239Y-102870000D01*
X107750625Y-102670625D01*
X108078839Y-102179418D01*
X108194092Y-101600000D01*
X108078839Y-101020582D01*
X107750625Y-100529375D01*
X107452239Y-100330000D01*
X107750625Y-100130625D01*
X108078839Y-99639418D01*
X108194092Y-99060000D01*
X108078839Y-98480582D01*
X107750625Y-97989375D01*
X107452239Y-97790000D01*
X107750625Y-97590625D01*
X108078839Y-97099418D01*
X108194092Y-96520000D01*
X108078839Y-95940582D01*
X107750625Y-95449375D01*
X107452239Y-95250000D01*
X107750625Y-95050625D01*
X108078839Y-94559418D01*
X108194092Y-93980000D01*
X108078839Y-93400582D01*
X107750625Y-92909375D01*
X107452239Y-92710000D01*
X107750625Y-92510625D01*
X108078839Y-92019418D01*
X108194092Y-91440000D01*
X108078839Y-90860582D01*
X107750625Y-90369375D01*
X107452239Y-90170000D01*
X107750625Y-89970625D01*
X108078839Y-89479418D01*
X108194092Y-88900000D01*
X108078839Y-88320582D01*
X107750625Y-87829375D01*
X107259418Y-87501161D01*
X106826256Y-87415000D01*
X106533744Y-87415000D01*
X106100582Y-87501161D01*
X105609375Y-87829375D01*
X105597184Y-87847619D01*
X105588157Y-87802235D01*
X105447809Y-87592191D01*
X105237765Y-87451843D01*
X104990000Y-87402560D01*
X103290000Y-87402560D01*
X103042235Y-87451843D01*
X102832191Y-87592191D01*
X102717600Y-87763687D01*
X102717600Y-77718948D01*
X102743000Y-77724000D01*
X109728000Y-77724000D01*
X109776601Y-77714333D01*
X109817803Y-77686803D01*
X110325803Y-77178803D01*
X110353333Y-77137601D01*
X110363000Y-77089000D01*
X110363000Y-70612000D01*
X110353333Y-70563399D01*
X110325803Y-70522197D01*
X109817803Y-70014197D01*
X109776601Y-69986667D01*
X109728000Y-69977000D01*
X102743000Y-69977000D01*
X102717600Y-69982052D01*
X102717600Y-54809540D01*
X102732029Y-54737000D01*
X102717600Y-54664459D01*
X102717600Y-54664456D01*
X102674861Y-54449593D01*
X102671497Y-54444558D01*
X102553151Y-54267441D01*
X102553149Y-54267439D01*
X102512058Y-54205942D01*
X102450560Y-54164850D01*
X101791151Y-53505442D01*
X101750058Y-53443942D01*
X101506407Y-53281139D01*
X101291544Y-53238400D01*
X101291540Y-53238400D01*
X101219000Y-53223971D01*
X101146460Y-53238400D01*
X100559439Y-53238400D01*
X100488548Y-53167509D01*
X100138464Y-53022500D01*
X99759536Y-53022500D01*
X99409452Y-53167509D01*
X99141509Y-53435452D01*
X98996500Y-53785536D01*
X98996500Y-54164464D01*
X99141509Y-54514548D01*
X99409452Y-54782491D01*
X99759536Y-54927500D01*
X100138464Y-54927500D01*
X100488548Y-54782491D01*
X100559439Y-54711600D01*
X100913891Y-54711600D01*
X101244401Y-55042111D01*
X101244400Y-96671561D01*
X101173509Y-96742452D01*
X101028500Y-97092536D01*
X101028500Y-97471464D01*
X101173509Y-97821548D01*
X101441452Y-98089491D01*
X101791536Y-98234500D01*
X102170464Y-98234500D01*
X102520548Y-98089491D01*
X102788491Y-97821548D01*
X102933500Y-97471464D01*
X102933500Y-97387274D01*
X103069375Y-97590625D01*
X103367761Y-97790000D01*
X103069375Y-97989375D01*
X102741161Y-98480582D01*
X102625908Y-99060000D01*
X102741161Y-99639418D01*
X103069375Y-100130625D01*
X103367761Y-100330000D01*
X103069375Y-100529375D01*
X102741161Y-101020582D01*
X102625908Y-101600000D01*
X102741161Y-102179418D01*
X103069375Y-102670625D01*
X103367761Y-102870000D01*
X103069375Y-103069375D01*
X102741161Y-103560582D01*
X102625908Y-104140000D01*
X102741161Y-104719418D01*
X103069375Y-105210625D01*
X103367761Y-105410000D01*
X103069375Y-105609375D01*
X102741161Y-106100582D01*
X102625908Y-106680000D01*
X102741161Y-107259418D01*
X103069375Y-107750625D01*
X103367761Y-107950000D01*
X103069375Y-108149375D01*
X102846187Y-108483400D01*
X89353540Y-108483400D01*
X89281000Y-108468971D01*
X89208459Y-108483400D01*
X89208456Y-108483400D01*
X88993593Y-108526139D01*
X88811441Y-108647849D01*
X88811439Y-108647851D01*
X88749942Y-108688942D01*
X88708851Y-108750440D01*
X85890440Y-111568851D01*
X85828943Y-111609942D01*
X85787852Y-111671439D01*
X85787849Y-111671442D01*
X85666139Y-111853594D01*
X85608971Y-112141000D01*
X85623401Y-112213545D01*
X85623400Y-114248891D01*
X85546891Y-114325400D01*
X72961500Y-114325400D01*
X72961500Y-114082339D01*
X73032391Y-114011448D01*
X73177400Y-113661364D01*
X73177400Y-113282436D01*
X73032391Y-112932352D01*
X72764448Y-112664409D01*
X72414364Y-112519400D01*
X72035436Y-112519400D01*
X71685352Y-112664409D01*
X71417409Y-112932352D01*
X71272400Y-113282436D01*
X71272400Y-113661364D01*
X71417409Y-114011448D01*
X71488300Y-114082339D01*
X71488301Y-114824355D01*
X71473871Y-114896900D01*
X71531039Y-115184306D01*
X71652749Y-115366458D01*
X71652752Y-115366461D01*
X71693843Y-115427958D01*
X71755340Y-115469049D01*
X71817849Y-115531558D01*
X71844582Y-115571567D01*
X71818500Y-115634536D01*
X71818500Y-116013464D01*
X71963509Y-116363548D01*
X72231452Y-116631491D01*
X72581536Y-116776500D01*
X72960464Y-116776500D01*
X73310548Y-116631491D01*
X73381439Y-116560600D01*
X86541460Y-116560600D01*
X86614000Y-116575029D01*
X86686540Y-116560600D01*
X86686544Y-116560600D01*
X86901407Y-116517861D01*
X87122000Y-116370465D01*
X87122001Y-121158000D01*
X46996842Y-121158000D01*
X46790625Y-120849375D01*
X46492239Y-120650000D01*
X46790625Y-120450625D01*
X47118839Y-119959418D01*
X47234092Y-119380000D01*
X47118839Y-118800582D01*
X46790625Y-118309375D01*
X46492239Y-118110000D01*
X46790625Y-117910625D01*
X47038578Y-117539536D01*
X48196500Y-117539536D01*
X48196500Y-117918464D01*
X48341509Y-118268548D01*
X48609452Y-118536491D01*
X48851446Y-118636728D01*
X48851446Y-118660518D01*
X48996455Y-119010602D01*
X49264398Y-119278545D01*
X49614482Y-119423554D01*
X49993410Y-119423554D01*
X50343494Y-119278545D01*
X50388985Y-119233054D01*
X71310500Y-119233054D01*
X71310500Y-119315464D01*
X71455509Y-119665548D01*
X71723452Y-119933491D01*
X72073536Y-120078500D01*
X72452464Y-120078500D01*
X72802548Y-119933491D01*
X72805692Y-119930347D01*
X73215500Y-119930347D01*
X73215500Y-120077464D01*
X73360509Y-120427548D01*
X73628452Y-120695491D01*
X73978536Y-120840500D01*
X74357464Y-120840500D01*
X74707548Y-120695491D01*
X74753039Y-120650000D01*
X79666261Y-120650000D01*
X79711752Y-120695491D01*
X80061836Y-120840500D01*
X80440764Y-120840500D01*
X80790848Y-120695491D01*
X81058791Y-120427548D01*
X81203800Y-120077464D01*
X81203800Y-120010237D01*
X81286848Y-119975838D01*
X81554791Y-119707895D01*
X81699800Y-119357811D01*
X81699800Y-119314601D01*
X81786848Y-119278545D01*
X82054791Y-119010602D01*
X82199800Y-118660518D01*
X82199800Y-118519993D01*
X82286848Y-118483937D01*
X82554791Y-118215994D01*
X82699800Y-117865910D01*
X82699800Y-117486982D01*
X82554791Y-117136898D01*
X82286848Y-116868955D01*
X81936764Y-116723946D01*
X81557836Y-116723946D01*
X81207752Y-116868955D01*
X81162261Y-116914446D01*
X62867593Y-116914446D01*
X63037491Y-116744548D01*
X63182500Y-116394464D01*
X63182500Y-116015536D01*
X63037491Y-115665452D01*
X62769548Y-115397509D01*
X62419464Y-115252500D01*
X62040536Y-115252500D01*
X61690452Y-115397509D01*
X61422509Y-115665452D01*
X61277500Y-116015536D01*
X61277500Y-116394464D01*
X61422509Y-116744548D01*
X61592407Y-116914446D01*
X49671496Y-116914446D01*
X49338464Y-116776500D01*
X48959536Y-116776500D01*
X48609452Y-116921509D01*
X48341509Y-117189452D01*
X48196500Y-117539536D01*
X47038578Y-117539536D01*
X47118839Y-117419418D01*
X47234092Y-116840000D01*
X47118839Y-116260582D01*
X46790625Y-115769375D01*
X46471522Y-115556157D01*
X46601358Y-115495183D01*
X46991645Y-115066924D01*
X47161476Y-114656890D01*
X47040155Y-114427000D01*
X45847000Y-114427000D01*
X45847000Y-114447000D01*
X45593000Y-114447000D01*
X45593000Y-114427000D01*
X45573000Y-114427000D01*
X45573000Y-114173000D01*
X45593000Y-114173000D01*
X45593000Y-111887000D01*
X45847000Y-111887000D01*
X45847000Y-114173000D01*
X47040155Y-114173000D01*
X47161476Y-113943110D01*
X46991645Y-113533076D01*
X46601358Y-113104817D01*
X46442046Y-113030000D01*
X46601358Y-112955183D01*
X46991645Y-112526924D01*
X47161476Y-112116890D01*
X47074213Y-111951536D01*
X61277500Y-111951536D01*
X61277500Y-112330464D01*
X61422509Y-112680548D01*
X61690452Y-112948491D01*
X62040536Y-113093500D01*
X62419464Y-113093500D01*
X62769548Y-112948491D01*
X62831505Y-112886534D01*
X67872460Y-112886534D01*
X67945000Y-112900963D01*
X68017540Y-112886534D01*
X68017544Y-112886534D01*
X68232407Y-112843795D01*
X68476058Y-112680992D01*
X68517151Y-112619492D01*
X68546676Y-112589967D01*
X68646931Y-112589967D01*
X68997015Y-112444958D01*
X69264958Y-112177015D01*
X69409967Y-111826931D01*
X69409967Y-111448003D01*
X69264958Y-111097919D01*
X68997015Y-110829976D01*
X68646931Y-110684967D01*
X68268003Y-110684967D01*
X67917919Y-110829976D01*
X67649976Y-111097919D01*
X67519327Y-111413334D01*
X62849373Y-111413334D01*
X62769548Y-111333509D01*
X62419464Y-111188500D01*
X62040536Y-111188500D01*
X61690452Y-111333509D01*
X61422509Y-111601452D01*
X61277500Y-111951536D01*
X47074213Y-111951536D01*
X47040155Y-111887000D01*
X45847000Y-111887000D01*
X45593000Y-111887000D01*
X43307000Y-111887000D01*
X43307000Y-111907000D01*
X43053000Y-111907000D01*
X43053000Y-111887000D01*
X43033000Y-111887000D01*
X43033000Y-111633000D01*
X43053000Y-111633000D01*
X43053000Y-111613000D01*
X43307000Y-111613000D01*
X43307000Y-111633000D01*
X45593000Y-111633000D01*
X45593000Y-111613000D01*
X45847000Y-111613000D01*
X45847000Y-111633000D01*
X47040155Y-111633000D01*
X47161476Y-111403110D01*
X46991645Y-110993076D01*
X46601358Y-110564817D01*
X46471522Y-110503843D01*
X46790625Y-110290625D01*
X47118839Y-109799418D01*
X47234092Y-109220000D01*
X47165468Y-108875000D01*
X76227560Y-108875000D01*
X76227560Y-113375000D01*
X76240000Y-113437540D01*
X76240000Y-113551037D01*
X76283434Y-113655897D01*
X76295874Y-113718435D01*
X76331299Y-113771452D01*
X76374733Y-113876312D01*
X76454988Y-113956567D01*
X76490414Y-114009586D01*
X76543433Y-114045012D01*
X76623688Y-114125267D01*
X76728548Y-114168701D01*
X76781565Y-114204126D01*
X76844103Y-114216566D01*
X76948963Y-114260000D01*
X77062460Y-114260000D01*
X77125000Y-114272440D01*
X81625000Y-114272440D01*
X81687540Y-114260000D01*
X81801037Y-114260000D01*
X81905897Y-114216566D01*
X81968435Y-114204126D01*
X82021452Y-114168701D01*
X82126312Y-114125267D01*
X82206567Y-114045012D01*
X82259586Y-114009586D01*
X82295012Y-113956567D01*
X82375267Y-113876312D01*
X82418701Y-113771452D01*
X82454126Y-113718435D01*
X82466566Y-113655897D01*
X82510000Y-113551037D01*
X82510000Y-113437540D01*
X82522440Y-113375000D01*
X82522440Y-108875000D01*
X82510000Y-108812460D01*
X82510000Y-108698963D01*
X82466566Y-108594103D01*
X82454126Y-108531565D01*
X82418701Y-108478548D01*
X82375267Y-108373688D01*
X82295012Y-108293433D01*
X82259586Y-108240414D01*
X82206567Y-108204988D01*
X82126312Y-108124733D01*
X82021452Y-108081299D01*
X81968435Y-108045874D01*
X81905897Y-108033434D01*
X81801037Y-107990000D01*
X81687540Y-107990000D01*
X81625000Y-107977560D01*
X77125000Y-107977560D01*
X77062460Y-107990000D01*
X76948963Y-107990000D01*
X76844103Y-108033434D01*
X76781565Y-108045874D01*
X76728548Y-108081299D01*
X76623688Y-108124733D01*
X76543433Y-108204988D01*
X76490414Y-108240414D01*
X76454988Y-108293433D01*
X76374733Y-108373688D01*
X76331299Y-108478548D01*
X76295874Y-108531565D01*
X76283434Y-108594103D01*
X76240000Y-108698963D01*
X76240000Y-108812460D01*
X76227560Y-108875000D01*
X47165468Y-108875000D01*
X47118839Y-108640582D01*
X46790625Y-108149375D01*
X46492239Y-107950000D01*
X46790625Y-107750625D01*
X47118839Y-107259418D01*
X47234092Y-106680000D01*
X47118839Y-106100582D01*
X46790625Y-105609375D01*
X46492239Y-105410000D01*
X46790625Y-105210625D01*
X47118839Y-104719418D01*
X47234092Y-104140000D01*
X47118839Y-103560582D01*
X46790625Y-103069375D01*
X46492239Y-102870000D01*
X46790625Y-102670625D01*
X47118839Y-102179418D01*
X47234092Y-101600000D01*
X47118839Y-101020582D01*
X46790625Y-100529375D01*
X46492239Y-100330000D01*
X46790625Y-100130625D01*
X47118839Y-99639418D01*
X47234092Y-99060000D01*
X47145882Y-98616536D01*
X62928500Y-98616536D01*
X62928500Y-98995464D01*
X63073509Y-99345548D01*
X63341452Y-99613491D01*
X63691536Y-99758500D01*
X64070464Y-99758500D01*
X64420548Y-99613491D01*
X64491439Y-99542600D01*
X82111461Y-99542600D01*
X82182352Y-99613491D01*
X82532436Y-99758500D01*
X82911364Y-99758500D01*
X83261448Y-99613491D01*
X83529391Y-99345548D01*
X83674400Y-98995464D01*
X83674400Y-98616536D01*
X83529391Y-98266452D01*
X83261448Y-97998509D01*
X82911364Y-97853500D01*
X82532436Y-97853500D01*
X82182352Y-97998509D01*
X82111461Y-98069400D01*
X64491439Y-98069400D01*
X64420548Y-97998509D01*
X64070464Y-97853500D01*
X63691536Y-97853500D01*
X63341452Y-97998509D01*
X63073509Y-98266452D01*
X62928500Y-98616536D01*
X47145882Y-98616536D01*
X47118839Y-98480582D01*
X46790625Y-97989375D01*
X46471522Y-97776157D01*
X46601358Y-97715183D01*
X46991645Y-97286924D01*
X47161476Y-96876890D01*
X47040155Y-96647000D01*
X45847000Y-96647000D01*
X45847000Y-96667000D01*
X45593000Y-96667000D01*
X45593000Y-96647000D01*
X45573000Y-96647000D01*
X45573000Y-96393000D01*
X45593000Y-96393000D01*
X45593000Y-96373000D01*
X45847000Y-96373000D01*
X45847000Y-96393000D01*
X47040155Y-96393000D01*
X47161476Y-96163110D01*
X46991645Y-95753076D01*
X46601358Y-95324817D01*
X46471522Y-95263843D01*
X46790625Y-95050625D01*
X47118839Y-94559418D01*
X47234092Y-93980000D01*
X47118839Y-93400582D01*
X46790625Y-92909375D01*
X46492239Y-92710000D01*
X46790625Y-92510625D01*
X47118839Y-92019418D01*
X47234092Y-91440000D01*
X47118839Y-90860582D01*
X46790625Y-90369375D01*
X46492239Y-90170000D01*
X46790625Y-89970625D01*
X47118839Y-89479418D01*
X47234092Y-88900000D01*
X47118839Y-88320582D01*
X46790625Y-87829375D01*
X46299418Y-87501161D01*
X45866256Y-87415000D01*
X45573744Y-87415000D01*
X45402500Y-87449062D01*
X45402500Y-87186536D01*
X45257491Y-86836452D01*
X45186600Y-86765561D01*
X45186600Y-84146538D01*
X45201029Y-84073999D01*
X45186600Y-84001460D01*
X45186600Y-84001456D01*
X45143861Y-83786593D01*
X44981058Y-83542942D01*
X44919558Y-83501849D01*
X43878500Y-82460791D01*
X43878500Y-82360536D01*
X43733491Y-82010452D01*
X43465548Y-81742509D01*
X43115464Y-81597500D01*
X42736536Y-81597500D01*
X42390967Y-81740639D01*
X43105606Y-81026000D01*
X53505233Y-81026000D01*
X53308452Y-81107509D01*
X53040509Y-81375452D01*
X52895500Y-81725536D01*
X52895500Y-82104464D01*
X53040509Y-82454548D01*
X53111400Y-82525439D01*
X53111401Y-91210560D01*
X53040509Y-91281452D01*
X52895500Y-91631536D01*
X52895500Y-92010464D01*
X53040509Y-92360548D01*
X53308452Y-92628491D01*
X53658536Y-92773500D01*
X54037464Y-92773500D01*
X54387548Y-92628491D01*
X54655491Y-92360548D01*
X54800500Y-92010464D01*
X54800500Y-91631536D01*
X54655491Y-91281452D01*
X54584600Y-91210561D01*
X54584600Y-82525439D01*
X54655491Y-82454548D01*
X54800500Y-82104464D01*
X54800500Y-81725536D01*
X54655491Y-81375452D01*
X54387548Y-81107509D01*
X54190767Y-81026000D01*
X55181500Y-81026000D01*
X55181500Y-81342464D01*
X55326509Y-81692548D01*
X55594452Y-81960491D01*
X55944536Y-82105500D01*
X56323464Y-82105500D01*
X56673548Y-81960491D01*
X56744439Y-81889600D01*
X57340500Y-81889600D01*
X57340500Y-82104464D01*
X57485509Y-82454548D01*
X57556401Y-82525440D01*
X57556400Y-91210561D01*
X57485509Y-91281452D01*
X57340500Y-91631536D01*
X57340500Y-92010464D01*
X57485509Y-92360548D01*
X57753452Y-92628491D01*
X58103536Y-92773500D01*
X58482464Y-92773500D01*
X58832548Y-92628491D01*
X59100491Y-92360548D01*
X59245500Y-92010464D01*
X59245500Y-91631536D01*
X59100491Y-91281452D01*
X59029600Y-91210561D01*
X59029600Y-82525439D01*
X59100491Y-82454548D01*
X59245500Y-82104464D01*
X59245500Y-81889600D01*
X62928500Y-81889600D01*
X62928500Y-81977464D01*
X63073509Y-82327548D01*
X63144401Y-82398440D01*
X63144400Y-91210561D01*
X63073509Y-91281452D01*
X62928500Y-91631536D01*
X62928500Y-92010464D01*
X63073509Y-92360548D01*
X63341452Y-92628491D01*
X63691536Y-92773500D01*
X64070464Y-92773500D01*
X64287402Y-92683642D01*
X64504339Y-92773500D01*
X64883267Y-92773500D01*
X65233351Y-92628491D01*
X65501294Y-92360548D01*
X65646303Y-92010464D01*
X65646303Y-91631536D01*
X65501294Y-91281452D01*
X65430403Y-91210561D01*
X65430403Y-81657343D01*
X65444832Y-81584803D01*
X65430403Y-81512262D01*
X65430403Y-81512259D01*
X65387664Y-81297396D01*
X65224861Y-81053745D01*
X65183338Y-81026000D01*
X72058961Y-81026000D01*
X71963509Y-81121452D01*
X71818500Y-81471536D01*
X71818500Y-81850464D01*
X71963509Y-82200548D01*
X72034400Y-82271439D01*
X72034401Y-92099560D01*
X71963509Y-92170452D01*
X71818500Y-92520536D01*
X71818500Y-92899464D01*
X71963509Y-93249548D01*
X72231452Y-93517491D01*
X72581536Y-93662500D01*
X72960464Y-93662500D01*
X73310548Y-93517491D01*
X73578491Y-93249548D01*
X73723500Y-92899464D01*
X73723500Y-92520536D01*
X73578491Y-92170452D01*
X73507600Y-92099561D01*
X73507600Y-82271439D01*
X73578491Y-82200548D01*
X73723500Y-81850464D01*
X73723500Y-81471536D01*
X73578491Y-81121452D01*
X73483039Y-81026000D01*
X74471961Y-81026000D01*
X74376509Y-81121452D01*
X74231500Y-81471536D01*
X74231500Y-81850464D01*
X74376509Y-82200548D01*
X74447401Y-82271440D01*
X74447400Y-93115561D01*
X74376509Y-93186452D01*
X74231500Y-93536536D01*
X74231500Y-93915464D01*
X74376509Y-94265548D01*
X74644452Y-94533491D01*
X74994536Y-94678500D01*
X75373464Y-94678500D01*
X75723548Y-94533491D01*
X75991491Y-94265548D01*
X76136500Y-93915464D01*
X76136500Y-93536536D01*
X75991491Y-93186452D01*
X75920600Y-93115561D01*
X75920600Y-82271439D01*
X75991491Y-82200548D01*
X76136500Y-81850464D01*
X76136500Y-81471536D01*
X75991491Y-81121452D01*
X75896039Y-81026000D01*
X76649441Y-81026000D01*
X76517500Y-81344536D01*
X76517500Y-81723464D01*
X76662509Y-82073548D01*
X76733400Y-82144439D01*
X76733401Y-93115560D01*
X76662509Y-93186452D01*
X76517500Y-93536536D01*
X76517500Y-93915464D01*
X76662509Y-94265548D01*
X76930452Y-94533491D01*
X77280536Y-94678500D01*
X77459534Y-94678500D01*
X77551509Y-94900548D01*
X77819452Y-95168491D01*
X78169536Y-95313500D01*
X78548464Y-95313500D01*
X78898548Y-95168491D01*
X79166491Y-94900548D01*
X79311500Y-94550464D01*
X79311500Y-94171536D01*
X79166491Y-93821452D01*
X79095600Y-93750561D01*
X79095600Y-82525439D01*
X79166491Y-82454548D01*
X79311500Y-82104464D01*
X79311500Y-81725536D01*
X79166491Y-81375452D01*
X78898548Y-81107509D01*
X78701767Y-81026000D01*
X91743961Y-81026000D01*
X91521509Y-81248452D01*
X91376500Y-81598536D01*
X91376500Y-81977464D01*
X91521509Y-82327548D01*
X91592401Y-82398440D01*
X91592400Y-93242561D01*
X91521509Y-93313452D01*
X91376500Y-93663536D01*
X91376500Y-94042464D01*
X91521509Y-94392548D01*
X91789452Y-94660491D01*
X92139536Y-94805500D01*
X92518464Y-94805500D01*
X92868548Y-94660491D01*
X93136491Y-94392548D01*
X93281500Y-94042464D01*
X93281500Y-93663536D01*
X93136491Y-93313452D01*
X93065600Y-93242561D01*
X93065600Y-91630500D01*
X93370400Y-91630500D01*
X93370400Y-92353561D01*
X93299509Y-92424452D01*
X93154500Y-92774536D01*
X93154500Y-93153464D01*
X93299509Y-93503548D01*
X93567452Y-93771491D01*
X93917536Y-93916500D01*
X94296464Y-93916500D01*
X94646548Y-93771491D01*
X94914491Y-93503548D01*
X95059500Y-93153464D01*
X95059500Y-92774536D01*
X94914491Y-92424452D01*
X94843600Y-92353561D01*
X94843600Y-82398439D01*
X94914491Y-82327548D01*
X95059500Y-81977464D01*
X95059500Y-81598536D01*
X94914491Y-81248452D01*
X94692039Y-81026000D01*
X95807961Y-81026000D01*
X95585509Y-81248452D01*
X95440500Y-81598536D01*
X95440500Y-81977464D01*
X95585509Y-82327548D01*
X95656401Y-82398440D01*
X95656400Y-90702561D01*
X95585509Y-90773452D01*
X95440500Y-91123536D01*
X95440500Y-91502464D01*
X95585509Y-91852548D01*
X95821500Y-92088539D01*
X95821500Y-92264464D01*
X95966509Y-92614548D01*
X96234452Y-92882491D01*
X96584536Y-93027500D01*
X96963464Y-93027500D01*
X97313548Y-92882491D01*
X97581491Y-92614548D01*
X97726500Y-92264464D01*
X97726500Y-91885536D01*
X97581491Y-91535452D01*
X97345500Y-91299461D01*
X97345500Y-91123536D01*
X97200491Y-90773452D01*
X97129600Y-90702561D01*
X97129600Y-82398439D01*
X97200491Y-82327548D01*
X97345500Y-81977464D01*
X97345500Y-81598536D01*
X97200491Y-81248452D01*
X96978039Y-81026000D01*
X100203000Y-81026000D01*
X100251601Y-81016333D01*
X100292803Y-80988803D01*
X101054803Y-80226803D01*
X101082333Y-80185601D01*
X101092000Y-80137000D01*
X101092000Y-60452000D01*
X101082333Y-60403399D01*
X101054803Y-60362197D01*
X100038803Y-59346197D01*
X99997601Y-59318667D01*
X99949000Y-59309000D01*
X60123606Y-59309000D01*
X59817000Y-59002394D01*
X59817000Y-57852449D01*
X59865399Y-57914206D01*
X60436338Y-58236099D01*
X60573290Y-58269748D01*
X60833000Y-58150922D01*
X60833000Y-56007000D01*
X61087000Y-56007000D01*
X61087000Y-58150922D01*
X61346710Y-58269748D01*
X61483662Y-58236099D01*
X62054601Y-57914206D01*
X62458897Y-57398327D01*
X62635000Y-56767000D01*
X62635000Y-56007000D01*
X61087000Y-56007000D01*
X60833000Y-56007000D01*
X60813000Y-56007000D01*
X60813000Y-55753000D01*
X60833000Y-55753000D01*
X60833000Y-53609078D01*
X61087000Y-53609078D01*
X61087000Y-55753000D01*
X62635000Y-55753000D01*
X62635000Y-54993000D01*
X62624409Y-54955028D01*
X64365000Y-54955028D01*
X64365000Y-56804971D01*
X64462185Y-57293552D01*
X64832392Y-57847608D01*
X65386447Y-58217815D01*
X66040000Y-58347815D01*
X66693552Y-58217815D01*
X67247608Y-57847608D01*
X67617815Y-57293553D01*
X67715000Y-56804972D01*
X67715000Y-54955028D01*
X67617815Y-54466447D01*
X67247608Y-53912392D01*
X66776600Y-53597675D01*
X66776600Y-50901600D01*
X70592448Y-50901600D01*
X70588943Y-50903942D01*
X70547852Y-50965439D01*
X70547849Y-50965442D01*
X70426139Y-51147594D01*
X70368971Y-51435000D01*
X70383401Y-51507545D01*
X70383400Y-53597676D01*
X69912393Y-53912392D01*
X69542186Y-54466447D01*
X69445000Y-54955028D01*
X69445000Y-56804971D01*
X69542185Y-57293552D01*
X69912392Y-57847608D01*
X70466447Y-58217815D01*
X71120000Y-58347815D01*
X71773552Y-58217815D01*
X72327608Y-57847608D01*
X72697815Y-57293553D01*
X72795000Y-56804972D01*
X72795000Y-54955028D01*
X72697815Y-54466447D01*
X72327608Y-53912392D01*
X71856600Y-53597675D01*
X71856600Y-51917600D01*
X75585648Y-51917600D01*
X75506139Y-52036594D01*
X75448971Y-52324000D01*
X75463401Y-52396545D01*
X75463400Y-53432560D01*
X75409999Y-53432560D01*
X75066564Y-53500873D01*
X74775414Y-53695414D01*
X74580873Y-53986564D01*
X74512560Y-54329999D01*
X74512560Y-57430001D01*
X74580873Y-57773436D01*
X74775414Y-58064586D01*
X75066564Y-58259127D01*
X75409999Y-58327440D01*
X76990001Y-58327440D01*
X77333436Y-58259127D01*
X77624586Y-58064586D01*
X77819127Y-57773436D01*
X77887440Y-57430001D01*
X77887440Y-54329999D01*
X77819127Y-53986564D01*
X77624586Y-53695414D01*
X77333436Y-53500873D01*
X76990001Y-53432560D01*
X76936600Y-53432560D01*
X76936600Y-52806600D01*
X92862400Y-52806600D01*
X92862401Y-57301560D01*
X92791509Y-57372452D01*
X92646500Y-57722536D01*
X92646500Y-58101464D01*
X92791509Y-58451548D01*
X93059452Y-58719491D01*
X93409536Y-58864500D01*
X93788464Y-58864500D01*
X94138548Y-58719491D01*
X94406491Y-58451548D01*
X94551500Y-58101464D01*
X94551500Y-57722536D01*
X94406491Y-57372452D01*
X94335600Y-57301561D01*
X94335600Y-54890247D01*
X94425536Y-54927500D01*
X94804464Y-54927500D01*
X95154548Y-54782491D01*
X95422491Y-54514548D01*
X95567500Y-54164464D01*
X95567500Y-53785536D01*
X95422491Y-53435452D01*
X95351600Y-53364561D01*
X95351600Y-51507540D01*
X95366029Y-51434999D01*
X95351600Y-51362457D01*
X95351600Y-51362456D01*
X95308861Y-51147593D01*
X95176916Y-50950123D01*
X95422491Y-50704548D01*
X95567500Y-50354464D01*
X95567500Y-49975536D01*
X95422491Y-49625452D01*
X95154548Y-49357509D01*
X94804464Y-49212500D01*
X94425536Y-49212500D01*
X94075452Y-49357509D01*
X94004561Y-49428400D01*
X66366540Y-49428400D01*
X66293999Y-49413971D01*
X66221459Y-49428400D01*
X66221456Y-49428400D01*
X66006593Y-49471139D01*
X65762942Y-49633942D01*
X65721849Y-49695442D01*
X65570440Y-49846851D01*
X65508943Y-49887942D01*
X65467852Y-49949439D01*
X65467849Y-49949442D01*
X65346139Y-50131594D01*
X65288971Y-50419000D01*
X65303401Y-50491545D01*
X65303400Y-53597676D01*
X64832393Y-53912392D01*
X64462186Y-54466447D01*
X64365000Y-54955028D01*
X62624409Y-54955028D01*
X62458897Y-54361673D01*
X62054601Y-53845794D01*
X61483662Y-53523901D01*
X61346710Y-53490252D01*
X61087000Y-53609078D01*
X60833000Y-53609078D01*
X60573290Y-53490252D01*
X60436338Y-53523901D01*
X59865399Y-53845794D01*
X59817000Y-53907551D01*
X59817000Y-49074606D01*
X60250606Y-48641000D01*
X99456837Y-48641000D01*
X99522509Y-48799548D01*
G36*
X73215500Y-125032536D02*
X73215500Y-125411464D01*
X73360509Y-125761548D01*
X73431401Y-125832440D01*
X73431400Y-126008561D01*
X73360509Y-126079452D01*
X73215500Y-126429536D01*
X73215500Y-126808464D01*
X73360509Y-127158548D01*
X73431401Y-127229440D01*
X73431400Y-135457890D01*
X72592891Y-136296400D01*
X42469109Y-136296400D01*
X42392600Y-136219891D01*
X42392600Y-135879870D01*
X42600582Y-136018839D01*
X43033744Y-136105000D01*
X43326256Y-136105000D01*
X43759418Y-136018839D01*
X44250625Y-135690625D01*
X44450000Y-135392239D01*
X44649375Y-135690625D01*
X45140582Y-136018839D01*
X45573744Y-136105000D01*
X45866256Y-136105000D01*
X46299418Y-136018839D01*
X46790625Y-135690625D01*
X47118839Y-135199418D01*
X47234092Y-134620000D01*
X47118839Y-134040582D01*
X46790625Y-133549375D01*
X46492239Y-133350000D01*
X46790625Y-133150625D01*
X47118839Y-132659418D01*
X47234092Y-132080000D01*
X47133045Y-131572000D01*
X48565957Y-131572000D01*
X48641000Y-131586927D01*
X48716043Y-131572000D01*
X48716048Y-131572000D01*
X48938317Y-131527788D01*
X49190371Y-131359371D01*
X49232884Y-131295746D01*
X49274130Y-131254500D01*
X49338464Y-131254500D01*
X49688548Y-131109491D01*
X49956491Y-130841548D01*
X50101500Y-130491464D01*
X50101500Y-130276600D01*
X62889561Y-130276600D01*
X62960452Y-130347491D01*
X63310536Y-130492500D01*
X63689464Y-130492500D01*
X64039548Y-130347491D01*
X64307491Y-130079548D01*
X64452500Y-129729464D01*
X64452500Y-129350536D01*
X64307491Y-129000452D01*
X64039548Y-128732509D01*
X63689464Y-128587500D01*
X63310536Y-128587500D01*
X62960452Y-128732509D01*
X62889561Y-128803400D01*
X47013813Y-128803400D01*
X46790625Y-128469375D01*
X46492239Y-128270000D01*
X46790625Y-128070625D01*
X47118839Y-127579418D01*
X47234092Y-127000000D01*
X47161679Y-126635952D01*
X49083631Y-124714000D01*
X73347441Y-124714000D01*
X73215500Y-125032536D01*
X73215500Y-125032536D01*
G37*
X73215500Y-125032536D02*
X73215500Y-125411464D01*
X73360509Y-125761548D01*
X73431401Y-125832440D01*
X73431400Y-126008561D01*
X73360509Y-126079452D01*
X73215500Y-126429536D01*
X73215500Y-126808464D01*
X73360509Y-127158548D01*
X73431401Y-127229440D01*
X73431400Y-135457890D01*
X72592891Y-136296400D01*
X42469109Y-136296400D01*
X42392600Y-136219891D01*
X42392600Y-135879870D01*
X42600582Y-136018839D01*
X43033744Y-136105000D01*
X43326256Y-136105000D01*
X43759418Y-136018839D01*
X44250625Y-135690625D01*
X44450000Y-135392239D01*
X44649375Y-135690625D01*
X45140582Y-136018839D01*
X45573744Y-136105000D01*
X45866256Y-136105000D01*
X46299418Y-136018839D01*
X46790625Y-135690625D01*
X47118839Y-135199418D01*
X47234092Y-134620000D01*
X47118839Y-134040582D01*
X46790625Y-133549375D01*
X46492239Y-133350000D01*
X46790625Y-133150625D01*
X47118839Y-132659418D01*
X47234092Y-132080000D01*
X47133045Y-131572000D01*
X48565957Y-131572000D01*
X48641000Y-131586927D01*
X48716043Y-131572000D01*
X48716048Y-131572000D01*
X48938317Y-131527788D01*
X49190371Y-131359371D01*
X49232884Y-131295746D01*
X49274130Y-131254500D01*
X49338464Y-131254500D01*
X49688548Y-131109491D01*
X49956491Y-130841548D01*
X50101500Y-130491464D01*
X50101500Y-130276600D01*
X62889561Y-130276600D01*
X62960452Y-130347491D01*
X63310536Y-130492500D01*
X63689464Y-130492500D01*
X64039548Y-130347491D01*
X64307491Y-130079548D01*
X64452500Y-129729464D01*
X64452500Y-129350536D01*
X64307491Y-129000452D01*
X64039548Y-128732509D01*
X63689464Y-128587500D01*
X63310536Y-128587500D01*
X62960452Y-128732509D01*
X62889561Y-128803400D01*
X47013813Y-128803400D01*
X46790625Y-128469375D01*
X46492239Y-128270000D01*
X46790625Y-128070625D01*
X47118839Y-127579418D01*
X47234092Y-127000000D01*
X47161679Y-126635952D01*
X49083631Y-124714000D01*
X73347441Y-124714000D01*
X73215500Y-125032536D01*
%TD*%
M02*
