%TF.GenerationSoftware,KiCad,Pcbnew,(5.0.2)-1*%
%TF.CreationDate,2019-02-28T08:25:03+01:00*%
%TF.ProjectId,bldc_driver_board,626c6463-5f64-4726-9976-65725f626f61,rev?*%
%TF.SameCoordinates,Original*%
%TF.FileFunction,Soldermask,Bot*%
%TF.FilePolarity,Negative*%
%FSLAX46Y46*%
G04 Gerber Fmt 4.6, Leading zero omitted, Abs format (unit mm)*
G04 Created by KiCad (PCBNEW (5.0.2)-1) date 28.02.2019 08:25:03*
%MOMM*%
%LPD*%
G01*
G04 APERTURE LIST*
%ADD10C,0.100000*%
%ADD11C,0.150000*%
G04 APERTURE END LIST*
D10*
X31750000Y-166370000D02*
X31750000Y-46990000D01*
X111760000Y-166370000D02*
X31750000Y-166370000D01*
X111760000Y-46990000D02*
X111760000Y-166370000D01*
X31750000Y-46990000D02*
X111760000Y-46990000D01*
D11*
G36*
X70316703Y-157211486D02*
X70607883Y-157332097D01*
X70869944Y-157507201D01*
X71092799Y-157730056D01*
X71267903Y-157992117D01*
X71388514Y-158283297D01*
X71450000Y-158592412D01*
X71450000Y-158907588D01*
X71388514Y-159216703D01*
X71267903Y-159507883D01*
X71092799Y-159769944D01*
X70869944Y-159992799D01*
X70607883Y-160167903D01*
X70316703Y-160288514D01*
X70007588Y-160350000D01*
X69692412Y-160350000D01*
X69383297Y-160288514D01*
X69092117Y-160167903D01*
X68830056Y-159992799D01*
X68607201Y-159769944D01*
X68432097Y-159507883D01*
X68311486Y-159216703D01*
X68250000Y-158907588D01*
X68250000Y-158592412D01*
X68311486Y-158283297D01*
X68432097Y-157992117D01*
X68607201Y-157730056D01*
X68830056Y-157507201D01*
X69092117Y-157332097D01*
X69383297Y-157211486D01*
X69692412Y-157150000D01*
X70007588Y-157150000D01*
X70316703Y-157211486D01*
X70316703Y-157211486D01*
G37*
G36*
X81746703Y-157211486D02*
X82037883Y-157332097D01*
X82299944Y-157507201D01*
X82522799Y-157730056D01*
X82697903Y-157992117D01*
X82818514Y-158283297D01*
X82880000Y-158592412D01*
X82880000Y-158907588D01*
X82818514Y-159216703D01*
X82697903Y-159507883D01*
X82522799Y-159769944D01*
X82299944Y-159992799D01*
X82037883Y-160167903D01*
X81746703Y-160288514D01*
X81437588Y-160350000D01*
X81122412Y-160350000D01*
X80813297Y-160288514D01*
X80522117Y-160167903D01*
X80260056Y-159992799D01*
X80037201Y-159769944D01*
X79862097Y-159507883D01*
X79741486Y-159216703D01*
X79680000Y-158907588D01*
X79680000Y-158592412D01*
X79741486Y-158283297D01*
X79862097Y-157992117D01*
X80037201Y-157730056D01*
X80260056Y-157507201D01*
X80522117Y-157332097D01*
X80813297Y-157211486D01*
X81122412Y-157150000D01*
X81437588Y-157150000D01*
X81746703Y-157211486D01*
X81746703Y-157211486D01*
G37*
G36*
X102066703Y-157211486D02*
X102357883Y-157332097D01*
X102619944Y-157507201D01*
X102842799Y-157730056D01*
X103017903Y-157992117D01*
X103138514Y-158283297D01*
X103200000Y-158592412D01*
X103200000Y-158907588D01*
X103138514Y-159216703D01*
X103017903Y-159507883D01*
X102842799Y-159769944D01*
X102619944Y-159992799D01*
X102357883Y-160167903D01*
X102066703Y-160288514D01*
X101757588Y-160350000D01*
X101442412Y-160350000D01*
X101133297Y-160288514D01*
X100842117Y-160167903D01*
X100580056Y-159992799D01*
X100357201Y-159769944D01*
X100182097Y-159507883D01*
X100061486Y-159216703D01*
X100000000Y-158907588D01*
X100000000Y-158592412D01*
X100061486Y-158283297D01*
X100182097Y-157992117D01*
X100357201Y-157730056D01*
X100580056Y-157507201D01*
X100842117Y-157332097D01*
X101133297Y-157211486D01*
X101442412Y-157150000D01*
X101757588Y-157150000D01*
X102066703Y-157211486D01*
X102066703Y-157211486D01*
G37*
G36*
X90636703Y-157211486D02*
X90927883Y-157332097D01*
X91189944Y-157507201D01*
X91412799Y-157730056D01*
X91587903Y-157992117D01*
X91708514Y-158283297D01*
X91770000Y-158592412D01*
X91770000Y-158907588D01*
X91708514Y-159216703D01*
X91587903Y-159507883D01*
X91412799Y-159769944D01*
X91189944Y-159992799D01*
X90927883Y-160167903D01*
X90636703Y-160288514D01*
X90327588Y-160350000D01*
X90012412Y-160350000D01*
X89703297Y-160288514D01*
X89412117Y-160167903D01*
X89150056Y-159992799D01*
X88927201Y-159769944D01*
X88752097Y-159507883D01*
X88631486Y-159216703D01*
X88570000Y-158907588D01*
X88570000Y-158592412D01*
X88631486Y-158283297D01*
X88752097Y-157992117D01*
X88927201Y-157730056D01*
X89150056Y-157507201D01*
X89412117Y-157332097D01*
X89703297Y-157211486D01*
X90012412Y-157150000D01*
X90327588Y-157150000D01*
X90636703Y-157211486D01*
X90636703Y-157211486D01*
G37*
G36*
X51003875Y-154425048D02*
X51199915Y-154484516D01*
X51380589Y-154581088D01*
X51538949Y-154711051D01*
X51538950Y-154711053D01*
X51538952Y-154711054D01*
X51579663Y-154760661D01*
X51668912Y-154869411D01*
X51765484Y-155050084D01*
X51824952Y-155246124D01*
X51840000Y-155398909D01*
X51840000Y-157021091D01*
X51824952Y-157173876D01*
X51765484Y-157369916D01*
X51668912Y-157550589D01*
X51538949Y-157708949D01*
X51380589Y-157838912D01*
X51199916Y-157935484D01*
X51003876Y-157994952D01*
X50800000Y-158015032D01*
X50596125Y-157994952D01*
X50400085Y-157935484D01*
X50219412Y-157838912D01*
X50061052Y-157708949D01*
X49931089Y-157550589D01*
X49834517Y-157369916D01*
X49815628Y-157307646D01*
X49775048Y-157173877D01*
X49760000Y-157021084D01*
X49760000Y-155398910D01*
X49775048Y-155246125D01*
X49834516Y-155050085D01*
X49931088Y-154869411D01*
X50061051Y-154711051D01*
X50061053Y-154711050D01*
X50061054Y-154711048D01*
X50123258Y-154659999D01*
X50219411Y-154581088D01*
X50400084Y-154484516D01*
X50596124Y-154425048D01*
X50800000Y-154404968D01*
X51003875Y-154425048D01*
X51003875Y-154425048D01*
G37*
G36*
X56083875Y-154425048D02*
X56279915Y-154484516D01*
X56460589Y-154581088D01*
X56618949Y-154711051D01*
X56618950Y-154711053D01*
X56618952Y-154711054D01*
X56659663Y-154760661D01*
X56748912Y-154869411D01*
X56845484Y-155050084D01*
X56904952Y-155246124D01*
X56920000Y-155398909D01*
X56920000Y-157021091D01*
X56904952Y-157173876D01*
X56845484Y-157369916D01*
X56748912Y-157550589D01*
X56618949Y-157708949D01*
X56460589Y-157838912D01*
X56279916Y-157935484D01*
X56083876Y-157994952D01*
X55880000Y-158015032D01*
X55676125Y-157994952D01*
X55480085Y-157935484D01*
X55299412Y-157838912D01*
X55141052Y-157708949D01*
X55011089Y-157550589D01*
X54914517Y-157369916D01*
X54895628Y-157307646D01*
X54855048Y-157173877D01*
X54840000Y-157021084D01*
X54840000Y-155398910D01*
X54855048Y-155246125D01*
X54914516Y-155050085D01*
X55011088Y-154869411D01*
X55141051Y-154711051D01*
X55141053Y-154711050D01*
X55141054Y-154711048D01*
X55203258Y-154659999D01*
X55299411Y-154581088D01*
X55480084Y-154484516D01*
X55676124Y-154425048D01*
X55880000Y-154404968D01*
X56083875Y-154425048D01*
X56083875Y-154425048D01*
G37*
G36*
X46635081Y-154413572D02*
X46664055Y-154422361D01*
X46690760Y-154436635D01*
X46714160Y-154455840D01*
X46733365Y-154479240D01*
X46747639Y-154505945D01*
X46756428Y-154534919D01*
X46760000Y-154571187D01*
X46760000Y-157848813D01*
X46756428Y-157885081D01*
X46747639Y-157914055D01*
X46733365Y-157940760D01*
X46714160Y-157964160D01*
X46690760Y-157983365D01*
X46664055Y-157997639D01*
X46635081Y-158006428D01*
X46598813Y-158010000D01*
X44841187Y-158010000D01*
X44804919Y-158006428D01*
X44775945Y-157997639D01*
X44749240Y-157983365D01*
X44725840Y-157964160D01*
X44706635Y-157940760D01*
X44692361Y-157914055D01*
X44683572Y-157885081D01*
X44680000Y-157848813D01*
X44680000Y-154571187D01*
X44683572Y-154534919D01*
X44692361Y-154505945D01*
X44706635Y-154479240D01*
X44725840Y-154455840D01*
X44749240Y-154436635D01*
X44775945Y-154422361D01*
X44804919Y-154413572D01*
X44841187Y-154410000D01*
X46598813Y-154410000D01*
X46635081Y-154413572D01*
X46635081Y-154413572D01*
G37*
G36*
X96666318Y-151664411D02*
X96738767Y-151678822D01*
X96795303Y-151702240D01*
X96875257Y-151735358D01*
X96998100Y-151817439D01*
X97102561Y-151921900D01*
X97184642Y-152044743D01*
X97241178Y-152181234D01*
X97270000Y-152326130D01*
X97270000Y-152473870D01*
X97241178Y-152618766D01*
X97184642Y-152755257D01*
X97102561Y-152878100D01*
X96998100Y-152982561D01*
X96875257Y-153064642D01*
X96795303Y-153097760D01*
X96738767Y-153121178D01*
X96666318Y-153135589D01*
X96593870Y-153150000D01*
X96446130Y-153150000D01*
X96373682Y-153135589D01*
X96301233Y-153121178D01*
X96244697Y-153097760D01*
X96164743Y-153064642D01*
X96041900Y-152982561D01*
X95937439Y-152878100D01*
X95855358Y-152755257D01*
X95798822Y-152618766D01*
X95770000Y-152473870D01*
X95770000Y-152326130D01*
X95798822Y-152181234D01*
X95855358Y-152044743D01*
X95937439Y-151921900D01*
X96041900Y-151817439D01*
X96164743Y-151735358D01*
X96244697Y-151702240D01*
X96301233Y-151678822D01*
X96373682Y-151664411D01*
X96446130Y-151650000D01*
X96593870Y-151650000D01*
X96666318Y-151664411D01*
X96666318Y-151664411D01*
G37*
G36*
X99206318Y-151664411D02*
X99278767Y-151678822D01*
X99335303Y-151702240D01*
X99415257Y-151735358D01*
X99538100Y-151817439D01*
X99642561Y-151921900D01*
X99724642Y-152044743D01*
X99781178Y-152181234D01*
X99810000Y-152326130D01*
X99810000Y-152473870D01*
X99781178Y-152618766D01*
X99724642Y-152755257D01*
X99642561Y-152878100D01*
X99538100Y-152982561D01*
X99415257Y-153064642D01*
X99335303Y-153097760D01*
X99278767Y-153121178D01*
X99206318Y-153135589D01*
X99133870Y-153150000D01*
X98986130Y-153150000D01*
X98913682Y-153135589D01*
X98841233Y-153121178D01*
X98784697Y-153097760D01*
X98704743Y-153064642D01*
X98581900Y-152982561D01*
X98477439Y-152878100D01*
X98395358Y-152755257D01*
X98338822Y-152618766D01*
X98310000Y-152473870D01*
X98310000Y-152326130D01*
X98338822Y-152181234D01*
X98395358Y-152044743D01*
X98477439Y-151921900D01*
X98581900Y-151817439D01*
X98704743Y-151735358D01*
X98784697Y-151702240D01*
X98841233Y-151678822D01*
X98913682Y-151664411D01*
X98986130Y-151650000D01*
X99133870Y-151650000D01*
X99206318Y-151664411D01*
X99206318Y-151664411D01*
G37*
G36*
X94126318Y-151664411D02*
X94198767Y-151678822D01*
X94255303Y-151702240D01*
X94335257Y-151735358D01*
X94458100Y-151817439D01*
X94562561Y-151921900D01*
X94644642Y-152044743D01*
X94701178Y-152181234D01*
X94730000Y-152326130D01*
X94730000Y-152473870D01*
X94701178Y-152618766D01*
X94644642Y-152755257D01*
X94562561Y-152878100D01*
X94458100Y-152982561D01*
X94335257Y-153064642D01*
X94255303Y-153097760D01*
X94198767Y-153121178D01*
X94126318Y-153135589D01*
X94053870Y-153150000D01*
X93906130Y-153150000D01*
X93833682Y-153135589D01*
X93761233Y-153121178D01*
X93704697Y-153097760D01*
X93624743Y-153064642D01*
X93501900Y-152982561D01*
X93397439Y-152878100D01*
X93315358Y-152755257D01*
X93258822Y-152618766D01*
X93230000Y-152473870D01*
X93230000Y-152326130D01*
X93258822Y-152181234D01*
X93315358Y-152044743D01*
X93397439Y-151921900D01*
X93501900Y-151817439D01*
X93624743Y-151735358D01*
X93704697Y-151702240D01*
X93761233Y-151678822D01*
X93833682Y-151664411D01*
X93906130Y-151650000D01*
X94053870Y-151650000D01*
X94126318Y-151664411D01*
X94126318Y-151664411D01*
G37*
G36*
X92190000Y-153150000D02*
X90690000Y-153150000D01*
X90690000Y-151650000D01*
X92190000Y-151650000D01*
X92190000Y-153150000D01*
X92190000Y-153150000D01*
G37*
G36*
X78886318Y-151664411D02*
X78958767Y-151678822D01*
X79015303Y-151702240D01*
X79095257Y-151735358D01*
X79218100Y-151817439D01*
X79322561Y-151921900D01*
X79404642Y-152044743D01*
X79461178Y-152181234D01*
X79490000Y-152326130D01*
X79490000Y-152473870D01*
X79461178Y-152618766D01*
X79404642Y-152755257D01*
X79322561Y-152878100D01*
X79218100Y-152982561D01*
X79095257Y-153064642D01*
X79015303Y-153097760D01*
X78958767Y-153121178D01*
X78886318Y-153135589D01*
X78813870Y-153150000D01*
X78666130Y-153150000D01*
X78593682Y-153135589D01*
X78521233Y-153121178D01*
X78464697Y-153097760D01*
X78384743Y-153064642D01*
X78261900Y-152982561D01*
X78157439Y-152878100D01*
X78075358Y-152755257D01*
X78018822Y-152618766D01*
X77990000Y-152473870D01*
X77990000Y-152326130D01*
X78018822Y-152181234D01*
X78075358Y-152044743D01*
X78157439Y-151921900D01*
X78261900Y-151817439D01*
X78384743Y-151735358D01*
X78464697Y-151702240D01*
X78521233Y-151678822D01*
X78593682Y-151664411D01*
X78666130Y-151650000D01*
X78813870Y-151650000D01*
X78886318Y-151664411D01*
X78886318Y-151664411D01*
G37*
G36*
X76346318Y-151664411D02*
X76418767Y-151678822D01*
X76475303Y-151702240D01*
X76555257Y-151735358D01*
X76678100Y-151817439D01*
X76782561Y-151921900D01*
X76864642Y-152044743D01*
X76921178Y-152181234D01*
X76950000Y-152326130D01*
X76950000Y-152473870D01*
X76921178Y-152618766D01*
X76864642Y-152755257D01*
X76782561Y-152878100D01*
X76678100Y-152982561D01*
X76555257Y-153064642D01*
X76475303Y-153097760D01*
X76418767Y-153121178D01*
X76346318Y-153135589D01*
X76273870Y-153150000D01*
X76126130Y-153150000D01*
X76053682Y-153135589D01*
X75981233Y-153121178D01*
X75924697Y-153097760D01*
X75844743Y-153064642D01*
X75721900Y-152982561D01*
X75617439Y-152878100D01*
X75535358Y-152755257D01*
X75478822Y-152618766D01*
X75450000Y-152473870D01*
X75450000Y-152326130D01*
X75478822Y-152181234D01*
X75535358Y-152044743D01*
X75617439Y-151921900D01*
X75721900Y-151817439D01*
X75844743Y-151735358D01*
X75924697Y-151702240D01*
X75981233Y-151678822D01*
X76053682Y-151664411D01*
X76126130Y-151650000D01*
X76273870Y-151650000D01*
X76346318Y-151664411D01*
X76346318Y-151664411D01*
G37*
G36*
X71870000Y-153150000D02*
X70370000Y-153150000D01*
X70370000Y-151650000D01*
X71870000Y-151650000D01*
X71870000Y-153150000D01*
X71870000Y-153150000D01*
G37*
G36*
X73806318Y-151664411D02*
X73878767Y-151678822D01*
X73935303Y-151702240D01*
X74015257Y-151735358D01*
X74138100Y-151817439D01*
X74242561Y-151921900D01*
X74324642Y-152044743D01*
X74381178Y-152181234D01*
X74410000Y-152326130D01*
X74410000Y-152473870D01*
X74381178Y-152618766D01*
X74324642Y-152755257D01*
X74242561Y-152878100D01*
X74138100Y-152982561D01*
X74015257Y-153064642D01*
X73935303Y-153097760D01*
X73878767Y-153121178D01*
X73806318Y-153135589D01*
X73733870Y-153150000D01*
X73586130Y-153150000D01*
X73513682Y-153135589D01*
X73441233Y-153121178D01*
X73384697Y-153097760D01*
X73304743Y-153064642D01*
X73181900Y-152982561D01*
X73077439Y-152878100D01*
X72995358Y-152755257D01*
X72938822Y-152618766D01*
X72910000Y-152473870D01*
X72910000Y-152326130D01*
X72938822Y-152181234D01*
X72995358Y-152044743D01*
X73077439Y-151921900D01*
X73181900Y-151817439D01*
X73304743Y-151735358D01*
X73384697Y-151702240D01*
X73441233Y-151678822D01*
X73513682Y-151664411D01*
X73586130Y-151650000D01*
X73733870Y-151650000D01*
X73806318Y-151664411D01*
X73806318Y-151664411D01*
G37*
G36*
X100476318Y-149124411D02*
X100548767Y-149138822D01*
X100605303Y-149162240D01*
X100685257Y-149195358D01*
X100808100Y-149277439D01*
X100912561Y-149381900D01*
X100994642Y-149504743D01*
X101051178Y-149641234D01*
X101080000Y-149786130D01*
X101080000Y-149933870D01*
X101051178Y-150078766D01*
X100994642Y-150215257D01*
X100912561Y-150338100D01*
X100808100Y-150442561D01*
X100685257Y-150524642D01*
X100605303Y-150557760D01*
X100548767Y-150581178D01*
X100476318Y-150595589D01*
X100403870Y-150610000D01*
X100256130Y-150610000D01*
X100183682Y-150595589D01*
X100111233Y-150581178D01*
X100054697Y-150557760D01*
X99974743Y-150524642D01*
X99851900Y-150442561D01*
X99747439Y-150338100D01*
X99665358Y-150215257D01*
X99608822Y-150078766D01*
X99580000Y-149933870D01*
X99580000Y-149786130D01*
X99608822Y-149641234D01*
X99665358Y-149504743D01*
X99747439Y-149381900D01*
X99851900Y-149277439D01*
X99974743Y-149195358D01*
X100054697Y-149162240D01*
X100111233Y-149138822D01*
X100183682Y-149124411D01*
X100256130Y-149110000D01*
X100403870Y-149110000D01*
X100476318Y-149124411D01*
X100476318Y-149124411D01*
G37*
G36*
X80156318Y-149124411D02*
X80228767Y-149138822D01*
X80285303Y-149162240D01*
X80365257Y-149195358D01*
X80488100Y-149277439D01*
X80592561Y-149381900D01*
X80674642Y-149504743D01*
X80731178Y-149641234D01*
X80760000Y-149786130D01*
X80760000Y-149933870D01*
X80731178Y-150078766D01*
X80674642Y-150215257D01*
X80592561Y-150338100D01*
X80488100Y-150442561D01*
X80365257Y-150524642D01*
X80285303Y-150557760D01*
X80228767Y-150581178D01*
X80156318Y-150595589D01*
X80083870Y-150610000D01*
X79936130Y-150610000D01*
X79863682Y-150595589D01*
X79791233Y-150581178D01*
X79734697Y-150557760D01*
X79654743Y-150524642D01*
X79531900Y-150442561D01*
X79427439Y-150338100D01*
X79345358Y-150215257D01*
X79288822Y-150078766D01*
X79260000Y-149933870D01*
X79260000Y-149786130D01*
X79288822Y-149641234D01*
X79345358Y-149504743D01*
X79427439Y-149381900D01*
X79531900Y-149277439D01*
X79654743Y-149195358D01*
X79734697Y-149162240D01*
X79791233Y-149138822D01*
X79863682Y-149124411D01*
X79936130Y-149110000D01*
X80083870Y-149110000D01*
X80156318Y-149124411D01*
X80156318Y-149124411D01*
G37*
G36*
X77616318Y-149124411D02*
X77688767Y-149138822D01*
X77745303Y-149162240D01*
X77825257Y-149195358D01*
X77948100Y-149277439D01*
X78052561Y-149381900D01*
X78134642Y-149504743D01*
X78191178Y-149641234D01*
X78220000Y-149786130D01*
X78220000Y-149933870D01*
X78191178Y-150078766D01*
X78134642Y-150215257D01*
X78052561Y-150338100D01*
X77948100Y-150442561D01*
X77825257Y-150524642D01*
X77745303Y-150557760D01*
X77688767Y-150581178D01*
X77616318Y-150595589D01*
X77543870Y-150610000D01*
X77396130Y-150610000D01*
X77323682Y-150595589D01*
X77251233Y-150581178D01*
X77194697Y-150557760D01*
X77114743Y-150524642D01*
X76991900Y-150442561D01*
X76887439Y-150338100D01*
X76805358Y-150215257D01*
X76748822Y-150078766D01*
X76720000Y-149933870D01*
X76720000Y-149786130D01*
X76748822Y-149641234D01*
X76805358Y-149504743D01*
X76887439Y-149381900D01*
X76991900Y-149277439D01*
X77114743Y-149195358D01*
X77194697Y-149162240D01*
X77251233Y-149138822D01*
X77323682Y-149124411D01*
X77396130Y-149110000D01*
X77543870Y-149110000D01*
X77616318Y-149124411D01*
X77616318Y-149124411D01*
G37*
G36*
X75076318Y-149124411D02*
X75148767Y-149138822D01*
X75205303Y-149162240D01*
X75285257Y-149195358D01*
X75408100Y-149277439D01*
X75512561Y-149381900D01*
X75594642Y-149504743D01*
X75651178Y-149641234D01*
X75680000Y-149786130D01*
X75680000Y-149933870D01*
X75651178Y-150078766D01*
X75594642Y-150215257D01*
X75512561Y-150338100D01*
X75408100Y-150442561D01*
X75285257Y-150524642D01*
X75205303Y-150557760D01*
X75148767Y-150581178D01*
X75076318Y-150595589D01*
X75003870Y-150610000D01*
X74856130Y-150610000D01*
X74783682Y-150595589D01*
X74711233Y-150581178D01*
X74654697Y-150557760D01*
X74574743Y-150524642D01*
X74451900Y-150442561D01*
X74347439Y-150338100D01*
X74265358Y-150215257D01*
X74208822Y-150078766D01*
X74180000Y-149933870D01*
X74180000Y-149786130D01*
X74208822Y-149641234D01*
X74265358Y-149504743D01*
X74347439Y-149381900D01*
X74451900Y-149277439D01*
X74574743Y-149195358D01*
X74654697Y-149162240D01*
X74711233Y-149138822D01*
X74783682Y-149124411D01*
X74856130Y-149110000D01*
X75003870Y-149110000D01*
X75076318Y-149124411D01*
X75076318Y-149124411D01*
G37*
G36*
X72536318Y-149124411D02*
X72608767Y-149138822D01*
X72665303Y-149162240D01*
X72745257Y-149195358D01*
X72868100Y-149277439D01*
X72972561Y-149381900D01*
X73054642Y-149504743D01*
X73111178Y-149641234D01*
X73140000Y-149786130D01*
X73140000Y-149933870D01*
X73111178Y-150078766D01*
X73054642Y-150215257D01*
X72972561Y-150338100D01*
X72868100Y-150442561D01*
X72745257Y-150524642D01*
X72665303Y-150557760D01*
X72608767Y-150581178D01*
X72536318Y-150595589D01*
X72463870Y-150610000D01*
X72316130Y-150610000D01*
X72243682Y-150595589D01*
X72171233Y-150581178D01*
X72114697Y-150557760D01*
X72034743Y-150524642D01*
X71911900Y-150442561D01*
X71807439Y-150338100D01*
X71725358Y-150215257D01*
X71668822Y-150078766D01*
X71640000Y-149933870D01*
X71640000Y-149786130D01*
X71668822Y-149641234D01*
X71725358Y-149504743D01*
X71807439Y-149381900D01*
X71911900Y-149277439D01*
X72034743Y-149195358D01*
X72114697Y-149162240D01*
X72171233Y-149138822D01*
X72243682Y-149124411D01*
X72316130Y-149110000D01*
X72463870Y-149110000D01*
X72536318Y-149124411D01*
X72536318Y-149124411D01*
G37*
G36*
X97936318Y-149124411D02*
X98008767Y-149138822D01*
X98065303Y-149162240D01*
X98145257Y-149195358D01*
X98268100Y-149277439D01*
X98372561Y-149381900D01*
X98454642Y-149504743D01*
X98511178Y-149641234D01*
X98540000Y-149786130D01*
X98540000Y-149933870D01*
X98511178Y-150078766D01*
X98454642Y-150215257D01*
X98372561Y-150338100D01*
X98268100Y-150442561D01*
X98145257Y-150524642D01*
X98065303Y-150557760D01*
X98008767Y-150581178D01*
X97936318Y-150595589D01*
X97863870Y-150610000D01*
X97716130Y-150610000D01*
X97643682Y-150595589D01*
X97571233Y-150581178D01*
X97514697Y-150557760D01*
X97434743Y-150524642D01*
X97311900Y-150442561D01*
X97207439Y-150338100D01*
X97125358Y-150215257D01*
X97068822Y-150078766D01*
X97040000Y-149933870D01*
X97040000Y-149786130D01*
X97068822Y-149641234D01*
X97125358Y-149504743D01*
X97207439Y-149381900D01*
X97311900Y-149277439D01*
X97434743Y-149195358D01*
X97514697Y-149162240D01*
X97571233Y-149138822D01*
X97643682Y-149124411D01*
X97716130Y-149110000D01*
X97863870Y-149110000D01*
X97936318Y-149124411D01*
X97936318Y-149124411D01*
G37*
G36*
X95396318Y-149124411D02*
X95468767Y-149138822D01*
X95525303Y-149162240D01*
X95605257Y-149195358D01*
X95728100Y-149277439D01*
X95832561Y-149381900D01*
X95914642Y-149504743D01*
X95971178Y-149641234D01*
X96000000Y-149786130D01*
X96000000Y-149933870D01*
X95971178Y-150078766D01*
X95914642Y-150215257D01*
X95832561Y-150338100D01*
X95728100Y-150442561D01*
X95605257Y-150524642D01*
X95525303Y-150557760D01*
X95468767Y-150581178D01*
X95396318Y-150595589D01*
X95323870Y-150610000D01*
X95176130Y-150610000D01*
X95103682Y-150595589D01*
X95031233Y-150581178D01*
X94974697Y-150557760D01*
X94894743Y-150524642D01*
X94771900Y-150442561D01*
X94667439Y-150338100D01*
X94585358Y-150215257D01*
X94528822Y-150078766D01*
X94500000Y-149933870D01*
X94500000Y-149786130D01*
X94528822Y-149641234D01*
X94585358Y-149504743D01*
X94667439Y-149381900D01*
X94771900Y-149277439D01*
X94894743Y-149195358D01*
X94974697Y-149162240D01*
X95031233Y-149138822D01*
X95103682Y-149124411D01*
X95176130Y-149110000D01*
X95323870Y-149110000D01*
X95396318Y-149124411D01*
X95396318Y-149124411D01*
G37*
G36*
X92856318Y-149124411D02*
X92928767Y-149138822D01*
X92985303Y-149162240D01*
X93065257Y-149195358D01*
X93188100Y-149277439D01*
X93292561Y-149381900D01*
X93374642Y-149504743D01*
X93431178Y-149641234D01*
X93460000Y-149786130D01*
X93460000Y-149933870D01*
X93431178Y-150078766D01*
X93374642Y-150215257D01*
X93292561Y-150338100D01*
X93188100Y-150442561D01*
X93065257Y-150524642D01*
X92985303Y-150557760D01*
X92928767Y-150581178D01*
X92856318Y-150595589D01*
X92783870Y-150610000D01*
X92636130Y-150610000D01*
X92563682Y-150595589D01*
X92491233Y-150581178D01*
X92434697Y-150557760D01*
X92354743Y-150524642D01*
X92231900Y-150442561D01*
X92127439Y-150338100D01*
X92045358Y-150215257D01*
X91988822Y-150078766D01*
X91960000Y-149933870D01*
X91960000Y-149786130D01*
X91988822Y-149641234D01*
X92045358Y-149504743D01*
X92127439Y-149381900D01*
X92231900Y-149277439D01*
X92354743Y-149195358D01*
X92434697Y-149162240D01*
X92491233Y-149138822D01*
X92563682Y-149124411D01*
X92636130Y-149110000D01*
X92783870Y-149110000D01*
X92856318Y-149124411D01*
X92856318Y-149124411D01*
G37*
G36*
X84286703Y-134351486D02*
X84577883Y-134472097D01*
X84839944Y-134647201D01*
X85062799Y-134870056D01*
X85237903Y-135132117D01*
X85358514Y-135423297D01*
X85420000Y-135732412D01*
X85420000Y-136047588D01*
X85358514Y-136356703D01*
X85237903Y-136647883D01*
X85062799Y-136909944D01*
X84839944Y-137132799D01*
X84577883Y-137307903D01*
X84286703Y-137428514D01*
X83977588Y-137490000D01*
X83662412Y-137490000D01*
X83353297Y-137428514D01*
X83062117Y-137307903D01*
X82800056Y-137132799D01*
X82577201Y-136909944D01*
X82402097Y-136647883D01*
X82281486Y-136356703D01*
X82220000Y-136047588D01*
X82220000Y-135732412D01*
X82281486Y-135423297D01*
X82402097Y-135132117D01*
X82577201Y-134870056D01*
X82800056Y-134647201D01*
X83062117Y-134472097D01*
X83353297Y-134351486D01*
X83662412Y-134290000D01*
X83977588Y-134290000D01*
X84286703Y-134351486D01*
X84286703Y-134351486D01*
G37*
G36*
X45886630Y-133782299D02*
X46046855Y-133830903D01*
X46194520Y-133909831D01*
X46323949Y-134016051D01*
X46430169Y-134145480D01*
X46509097Y-134293145D01*
X46557701Y-134453370D01*
X46574112Y-134620000D01*
X46557701Y-134786630D01*
X46509097Y-134946855D01*
X46430169Y-135094520D01*
X46323949Y-135223949D01*
X46194520Y-135330169D01*
X46046855Y-135409097D01*
X45886630Y-135457701D01*
X45761752Y-135470000D01*
X45678248Y-135470000D01*
X45553370Y-135457701D01*
X45393145Y-135409097D01*
X45245480Y-135330169D01*
X45116051Y-135223949D01*
X45009831Y-135094520D01*
X44930903Y-134946855D01*
X44882299Y-134786630D01*
X44865888Y-134620000D01*
X44882299Y-134453370D01*
X44930903Y-134293145D01*
X45009831Y-134145480D01*
X45116051Y-134016051D01*
X45245480Y-133909831D01*
X45393145Y-133830903D01*
X45553370Y-133782299D01*
X45678248Y-133770000D01*
X45761752Y-133770000D01*
X45886630Y-133782299D01*
X45886630Y-133782299D01*
G37*
G36*
X43346630Y-133782299D02*
X43506855Y-133830903D01*
X43654520Y-133909831D01*
X43783949Y-134016051D01*
X43890169Y-134145480D01*
X43969097Y-134293145D01*
X44017701Y-134453370D01*
X44034112Y-134620000D01*
X44017701Y-134786630D01*
X43969097Y-134946855D01*
X43890169Y-135094520D01*
X43783949Y-135223949D01*
X43654520Y-135330169D01*
X43506855Y-135409097D01*
X43346630Y-135457701D01*
X43221752Y-135470000D01*
X43138248Y-135470000D01*
X43013370Y-135457701D01*
X42853145Y-135409097D01*
X42705480Y-135330169D01*
X42576051Y-135223949D01*
X42469831Y-135094520D01*
X42390903Y-134946855D01*
X42342299Y-134786630D01*
X42325888Y-134620000D01*
X42342299Y-134453370D01*
X42390903Y-134293145D01*
X42469831Y-134145480D01*
X42576051Y-134016051D01*
X42705480Y-133909831D01*
X42853145Y-133830903D01*
X43013370Y-133782299D01*
X43138248Y-133770000D01*
X43221752Y-133770000D01*
X43346630Y-133782299D01*
X43346630Y-133782299D01*
G37*
G36*
X104306630Y-133782299D02*
X104466855Y-133830903D01*
X104614520Y-133909831D01*
X104743949Y-134016051D01*
X104850169Y-134145480D01*
X104929097Y-134293145D01*
X104977701Y-134453370D01*
X104994112Y-134620000D01*
X104977701Y-134786630D01*
X104929097Y-134946855D01*
X104850169Y-135094520D01*
X104743949Y-135223949D01*
X104614520Y-135330169D01*
X104466855Y-135409097D01*
X104306630Y-135457701D01*
X104181752Y-135470000D01*
X104098248Y-135470000D01*
X103973370Y-135457701D01*
X103813145Y-135409097D01*
X103665480Y-135330169D01*
X103536051Y-135223949D01*
X103429831Y-135094520D01*
X103350903Y-134946855D01*
X103302299Y-134786630D01*
X103285888Y-134620000D01*
X103302299Y-134453370D01*
X103350903Y-134293145D01*
X103429831Y-134145480D01*
X103536051Y-134016051D01*
X103665480Y-133909831D01*
X103813145Y-133830903D01*
X103973370Y-133782299D01*
X104098248Y-133770000D01*
X104181752Y-133770000D01*
X104306630Y-133782299D01*
X104306630Y-133782299D01*
G37*
G36*
X106846630Y-133782299D02*
X107006855Y-133830903D01*
X107154520Y-133909831D01*
X107283949Y-134016051D01*
X107390169Y-134145480D01*
X107469097Y-134293145D01*
X107517701Y-134453370D01*
X107534112Y-134620000D01*
X107517701Y-134786630D01*
X107469097Y-134946855D01*
X107390169Y-135094520D01*
X107283949Y-135223949D01*
X107154520Y-135330169D01*
X107006855Y-135409097D01*
X106846630Y-135457701D01*
X106721752Y-135470000D01*
X106638248Y-135470000D01*
X106513370Y-135457701D01*
X106353145Y-135409097D01*
X106205480Y-135330169D01*
X106076051Y-135223949D01*
X105969831Y-135094520D01*
X105890903Y-134946855D01*
X105842299Y-134786630D01*
X105825888Y-134620000D01*
X105842299Y-134453370D01*
X105890903Y-134293145D01*
X105969831Y-134145480D01*
X106076051Y-134016051D01*
X106205480Y-133909831D01*
X106353145Y-133830903D01*
X106513370Y-133782299D01*
X106638248Y-133770000D01*
X106721752Y-133770000D01*
X106846630Y-133782299D01*
X106846630Y-133782299D01*
G37*
G36*
X104306630Y-131242299D02*
X104466855Y-131290903D01*
X104614520Y-131369831D01*
X104743949Y-131476051D01*
X104850169Y-131605480D01*
X104929097Y-131753145D01*
X104977701Y-131913370D01*
X104994112Y-132080000D01*
X104977701Y-132246630D01*
X104929097Y-132406855D01*
X104850169Y-132554520D01*
X104743949Y-132683949D01*
X104614520Y-132790169D01*
X104466855Y-132869097D01*
X104306630Y-132917701D01*
X104181752Y-132930000D01*
X104098248Y-132930000D01*
X103973370Y-132917701D01*
X103813145Y-132869097D01*
X103665480Y-132790169D01*
X103536051Y-132683949D01*
X103429831Y-132554520D01*
X103350903Y-132406855D01*
X103302299Y-132246630D01*
X103285888Y-132080000D01*
X103302299Y-131913370D01*
X103350903Y-131753145D01*
X103429831Y-131605480D01*
X103536051Y-131476051D01*
X103665480Y-131369831D01*
X103813145Y-131290903D01*
X103973370Y-131242299D01*
X104098248Y-131230000D01*
X104181752Y-131230000D01*
X104306630Y-131242299D01*
X104306630Y-131242299D01*
G37*
G36*
X45886630Y-131242299D02*
X46046855Y-131290903D01*
X46194520Y-131369831D01*
X46323949Y-131476051D01*
X46430169Y-131605480D01*
X46509097Y-131753145D01*
X46557701Y-131913370D01*
X46574112Y-132080000D01*
X46557701Y-132246630D01*
X46509097Y-132406855D01*
X46430169Y-132554520D01*
X46323949Y-132683949D01*
X46194520Y-132790169D01*
X46046855Y-132869097D01*
X45886630Y-132917701D01*
X45761752Y-132930000D01*
X45678248Y-132930000D01*
X45553370Y-132917701D01*
X45393145Y-132869097D01*
X45245480Y-132790169D01*
X45116051Y-132683949D01*
X45009831Y-132554520D01*
X44930903Y-132406855D01*
X44882299Y-132246630D01*
X44865888Y-132080000D01*
X44882299Y-131913370D01*
X44930903Y-131753145D01*
X45009831Y-131605480D01*
X45116051Y-131476051D01*
X45245480Y-131369831D01*
X45393145Y-131290903D01*
X45553370Y-131242299D01*
X45678248Y-131230000D01*
X45761752Y-131230000D01*
X45886630Y-131242299D01*
X45886630Y-131242299D01*
G37*
G36*
X43346630Y-131242299D02*
X43506855Y-131290903D01*
X43654520Y-131369831D01*
X43783949Y-131476051D01*
X43890169Y-131605480D01*
X43969097Y-131753145D01*
X44017701Y-131913370D01*
X44034112Y-132080000D01*
X44017701Y-132246630D01*
X43969097Y-132406855D01*
X43890169Y-132554520D01*
X43783949Y-132683949D01*
X43654520Y-132790169D01*
X43506855Y-132869097D01*
X43346630Y-132917701D01*
X43221752Y-132930000D01*
X43138248Y-132930000D01*
X43013370Y-132917701D01*
X42853145Y-132869097D01*
X42705480Y-132790169D01*
X42576051Y-132683949D01*
X42469831Y-132554520D01*
X42390903Y-132406855D01*
X42342299Y-132246630D01*
X42325888Y-132080000D01*
X42342299Y-131913370D01*
X42390903Y-131753145D01*
X42469831Y-131605480D01*
X42576051Y-131476051D01*
X42705480Y-131369831D01*
X42853145Y-131290903D01*
X43013370Y-131242299D01*
X43138248Y-131230000D01*
X43221752Y-131230000D01*
X43346630Y-131242299D01*
X43346630Y-131242299D01*
G37*
G36*
X106846630Y-131242299D02*
X107006855Y-131290903D01*
X107154520Y-131369831D01*
X107283949Y-131476051D01*
X107390169Y-131605480D01*
X107469097Y-131753145D01*
X107517701Y-131913370D01*
X107534112Y-132080000D01*
X107517701Y-132246630D01*
X107469097Y-132406855D01*
X107390169Y-132554520D01*
X107283949Y-132683949D01*
X107154520Y-132790169D01*
X107006855Y-132869097D01*
X106846630Y-132917701D01*
X106721752Y-132930000D01*
X106638248Y-132930000D01*
X106513370Y-132917701D01*
X106353145Y-132869097D01*
X106205480Y-132790169D01*
X106076051Y-132683949D01*
X105969831Y-132554520D01*
X105890903Y-132406855D01*
X105842299Y-132246630D01*
X105825888Y-132080000D01*
X105842299Y-131913370D01*
X105890903Y-131753145D01*
X105969831Y-131605480D01*
X106076051Y-131476051D01*
X106205480Y-131369831D01*
X106353145Y-131290903D01*
X106513370Y-131242299D01*
X106638248Y-131230000D01*
X106721752Y-131230000D01*
X106846630Y-131242299D01*
X106846630Y-131242299D01*
G37*
G36*
X45886630Y-128702299D02*
X46046855Y-128750903D01*
X46194520Y-128829831D01*
X46323949Y-128936051D01*
X46430169Y-129065480D01*
X46509097Y-129213145D01*
X46557701Y-129373370D01*
X46574112Y-129540000D01*
X46557701Y-129706630D01*
X46509097Y-129866855D01*
X46430169Y-130014520D01*
X46323949Y-130143949D01*
X46194520Y-130250169D01*
X46046855Y-130329097D01*
X45886630Y-130377701D01*
X45761752Y-130390000D01*
X45678248Y-130390000D01*
X45553370Y-130377701D01*
X45393145Y-130329097D01*
X45245480Y-130250169D01*
X45116051Y-130143949D01*
X45009831Y-130014520D01*
X44930903Y-129866855D01*
X44882299Y-129706630D01*
X44865888Y-129540000D01*
X44882299Y-129373370D01*
X44930903Y-129213145D01*
X45009831Y-129065480D01*
X45116051Y-128936051D01*
X45245480Y-128829831D01*
X45393145Y-128750903D01*
X45553370Y-128702299D01*
X45678248Y-128690000D01*
X45761752Y-128690000D01*
X45886630Y-128702299D01*
X45886630Y-128702299D01*
G37*
G36*
X43346630Y-128702299D02*
X43506855Y-128750903D01*
X43654520Y-128829831D01*
X43783949Y-128936051D01*
X43890169Y-129065480D01*
X43969097Y-129213145D01*
X44017701Y-129373370D01*
X44034112Y-129540000D01*
X44017701Y-129706630D01*
X43969097Y-129866855D01*
X43890169Y-130014520D01*
X43783949Y-130143949D01*
X43654520Y-130250169D01*
X43506855Y-130329097D01*
X43346630Y-130377701D01*
X43221752Y-130390000D01*
X43138248Y-130390000D01*
X43013370Y-130377701D01*
X42853145Y-130329097D01*
X42705480Y-130250169D01*
X42576051Y-130143949D01*
X42469831Y-130014520D01*
X42390903Y-129866855D01*
X42342299Y-129706630D01*
X42325888Y-129540000D01*
X42342299Y-129373370D01*
X42390903Y-129213145D01*
X42469831Y-129065480D01*
X42576051Y-128936051D01*
X42705480Y-128829831D01*
X42853145Y-128750903D01*
X43013370Y-128702299D01*
X43138248Y-128690000D01*
X43221752Y-128690000D01*
X43346630Y-128702299D01*
X43346630Y-128702299D01*
G37*
G36*
X104306630Y-128702299D02*
X104466855Y-128750903D01*
X104614520Y-128829831D01*
X104743949Y-128936051D01*
X104850169Y-129065480D01*
X104929097Y-129213145D01*
X104977701Y-129373370D01*
X104994112Y-129540000D01*
X104977701Y-129706630D01*
X104929097Y-129866855D01*
X104850169Y-130014520D01*
X104743949Y-130143949D01*
X104614520Y-130250169D01*
X104466855Y-130329097D01*
X104306630Y-130377701D01*
X104181752Y-130390000D01*
X104098248Y-130390000D01*
X103973370Y-130377701D01*
X103813145Y-130329097D01*
X103665480Y-130250169D01*
X103536051Y-130143949D01*
X103429831Y-130014520D01*
X103350903Y-129866855D01*
X103302299Y-129706630D01*
X103285888Y-129540000D01*
X103302299Y-129373370D01*
X103350903Y-129213145D01*
X103429831Y-129065480D01*
X103536051Y-128936051D01*
X103665480Y-128829831D01*
X103813145Y-128750903D01*
X103973370Y-128702299D01*
X104098248Y-128690000D01*
X104181752Y-128690000D01*
X104306630Y-128702299D01*
X104306630Y-128702299D01*
G37*
G36*
X106846630Y-128702299D02*
X107006855Y-128750903D01*
X107154520Y-128829831D01*
X107283949Y-128936051D01*
X107390169Y-129065480D01*
X107469097Y-129213145D01*
X107517701Y-129373370D01*
X107534112Y-129540000D01*
X107517701Y-129706630D01*
X107469097Y-129866855D01*
X107390169Y-130014520D01*
X107283949Y-130143949D01*
X107154520Y-130250169D01*
X107006855Y-130329097D01*
X106846630Y-130377701D01*
X106721752Y-130390000D01*
X106638248Y-130390000D01*
X106513370Y-130377701D01*
X106353145Y-130329097D01*
X106205480Y-130250169D01*
X106076051Y-130143949D01*
X105969831Y-130014520D01*
X105890903Y-129866855D01*
X105842299Y-129706630D01*
X105825888Y-129540000D01*
X105842299Y-129373370D01*
X105890903Y-129213145D01*
X105969831Y-129065480D01*
X106076051Y-128936051D01*
X106205480Y-128829831D01*
X106353145Y-128750903D01*
X106513370Y-128702299D01*
X106638248Y-128690000D01*
X106721752Y-128690000D01*
X106846630Y-128702299D01*
X106846630Y-128702299D01*
G37*
G36*
X45886630Y-126162299D02*
X46046855Y-126210903D01*
X46194520Y-126289831D01*
X46323949Y-126396051D01*
X46430169Y-126525480D01*
X46509097Y-126673145D01*
X46557701Y-126833370D01*
X46574112Y-127000000D01*
X46557701Y-127166630D01*
X46509097Y-127326855D01*
X46430169Y-127474520D01*
X46323949Y-127603949D01*
X46194520Y-127710169D01*
X46046855Y-127789097D01*
X45886630Y-127837701D01*
X45761752Y-127850000D01*
X45678248Y-127850000D01*
X45553370Y-127837701D01*
X45393145Y-127789097D01*
X45245480Y-127710169D01*
X45116051Y-127603949D01*
X45009831Y-127474520D01*
X44930903Y-127326855D01*
X44882299Y-127166630D01*
X44865888Y-127000000D01*
X44882299Y-126833370D01*
X44930903Y-126673145D01*
X45009831Y-126525480D01*
X45116051Y-126396051D01*
X45245480Y-126289831D01*
X45393145Y-126210903D01*
X45553370Y-126162299D01*
X45678248Y-126150000D01*
X45761752Y-126150000D01*
X45886630Y-126162299D01*
X45886630Y-126162299D01*
G37*
G36*
X43346630Y-126162299D02*
X43506855Y-126210903D01*
X43654520Y-126289831D01*
X43783949Y-126396051D01*
X43890169Y-126525480D01*
X43969097Y-126673145D01*
X44017701Y-126833370D01*
X44034112Y-127000000D01*
X44017701Y-127166630D01*
X43969097Y-127326855D01*
X43890169Y-127474520D01*
X43783949Y-127603949D01*
X43654520Y-127710169D01*
X43506855Y-127789097D01*
X43346630Y-127837701D01*
X43221752Y-127850000D01*
X43138248Y-127850000D01*
X43013370Y-127837701D01*
X42853145Y-127789097D01*
X42705480Y-127710169D01*
X42576051Y-127603949D01*
X42469831Y-127474520D01*
X42390903Y-127326855D01*
X42342299Y-127166630D01*
X42325888Y-127000000D01*
X42342299Y-126833370D01*
X42390903Y-126673145D01*
X42469831Y-126525480D01*
X42576051Y-126396051D01*
X42705480Y-126289831D01*
X42853145Y-126210903D01*
X43013370Y-126162299D01*
X43138248Y-126150000D01*
X43221752Y-126150000D01*
X43346630Y-126162299D01*
X43346630Y-126162299D01*
G37*
G36*
X106846630Y-126162299D02*
X107006855Y-126210903D01*
X107154520Y-126289831D01*
X107283949Y-126396051D01*
X107390169Y-126525480D01*
X107469097Y-126673145D01*
X107517701Y-126833370D01*
X107534112Y-127000000D01*
X107517701Y-127166630D01*
X107469097Y-127326855D01*
X107390169Y-127474520D01*
X107283949Y-127603949D01*
X107154520Y-127710169D01*
X107006855Y-127789097D01*
X106846630Y-127837701D01*
X106721752Y-127850000D01*
X106638248Y-127850000D01*
X106513370Y-127837701D01*
X106353145Y-127789097D01*
X106205480Y-127710169D01*
X106076051Y-127603949D01*
X105969831Y-127474520D01*
X105890903Y-127326855D01*
X105842299Y-127166630D01*
X105825888Y-127000000D01*
X105842299Y-126833370D01*
X105890903Y-126673145D01*
X105969831Y-126525480D01*
X106076051Y-126396051D01*
X106205480Y-126289831D01*
X106353145Y-126210903D01*
X106513370Y-126162299D01*
X106638248Y-126150000D01*
X106721752Y-126150000D01*
X106846630Y-126162299D01*
X106846630Y-126162299D01*
G37*
G36*
X104306630Y-126162299D02*
X104466855Y-126210903D01*
X104614520Y-126289831D01*
X104743949Y-126396051D01*
X104850169Y-126525480D01*
X104929097Y-126673145D01*
X104977701Y-126833370D01*
X104994112Y-127000000D01*
X104977701Y-127166630D01*
X104929097Y-127326855D01*
X104850169Y-127474520D01*
X104743949Y-127603949D01*
X104614520Y-127710169D01*
X104466855Y-127789097D01*
X104306630Y-127837701D01*
X104181752Y-127850000D01*
X104098248Y-127850000D01*
X103973370Y-127837701D01*
X103813145Y-127789097D01*
X103665480Y-127710169D01*
X103536051Y-127603949D01*
X103429831Y-127474520D01*
X103350903Y-127326855D01*
X103302299Y-127166630D01*
X103285888Y-127000000D01*
X103302299Y-126833370D01*
X103350903Y-126673145D01*
X103429831Y-126525480D01*
X103536051Y-126396051D01*
X103665480Y-126289831D01*
X103813145Y-126210903D01*
X103973370Y-126162299D01*
X104098248Y-126150000D01*
X104181752Y-126150000D01*
X104306630Y-126162299D01*
X104306630Y-126162299D01*
G37*
G36*
X45886630Y-123622299D02*
X46046855Y-123670903D01*
X46194520Y-123749831D01*
X46323949Y-123856051D01*
X46430169Y-123985480D01*
X46509097Y-124133145D01*
X46557701Y-124293370D01*
X46574112Y-124460000D01*
X46557701Y-124626630D01*
X46509097Y-124786855D01*
X46430169Y-124934520D01*
X46323949Y-125063949D01*
X46194520Y-125170169D01*
X46046855Y-125249097D01*
X45886630Y-125297701D01*
X45761752Y-125310000D01*
X45678248Y-125310000D01*
X45553370Y-125297701D01*
X45393145Y-125249097D01*
X45245480Y-125170169D01*
X45116051Y-125063949D01*
X45009831Y-124934520D01*
X44930903Y-124786855D01*
X44882299Y-124626630D01*
X44865888Y-124460000D01*
X44882299Y-124293370D01*
X44930903Y-124133145D01*
X45009831Y-123985480D01*
X45116051Y-123856051D01*
X45245480Y-123749831D01*
X45393145Y-123670903D01*
X45553370Y-123622299D01*
X45678248Y-123610000D01*
X45761752Y-123610000D01*
X45886630Y-123622299D01*
X45886630Y-123622299D01*
G37*
G36*
X106846630Y-123622299D02*
X107006855Y-123670903D01*
X107154520Y-123749831D01*
X107283949Y-123856051D01*
X107390169Y-123985480D01*
X107469097Y-124133145D01*
X107517701Y-124293370D01*
X107534112Y-124460000D01*
X107517701Y-124626630D01*
X107469097Y-124786855D01*
X107390169Y-124934520D01*
X107283949Y-125063949D01*
X107154520Y-125170169D01*
X107006855Y-125249097D01*
X106846630Y-125297701D01*
X106721752Y-125310000D01*
X106638248Y-125310000D01*
X106513370Y-125297701D01*
X106353145Y-125249097D01*
X106205480Y-125170169D01*
X106076051Y-125063949D01*
X105969831Y-124934520D01*
X105890903Y-124786855D01*
X105842299Y-124626630D01*
X105825888Y-124460000D01*
X105842299Y-124293370D01*
X105890903Y-124133145D01*
X105969831Y-123985480D01*
X106076051Y-123856051D01*
X106205480Y-123749831D01*
X106353145Y-123670903D01*
X106513370Y-123622299D01*
X106638248Y-123610000D01*
X106721752Y-123610000D01*
X106846630Y-123622299D01*
X106846630Y-123622299D01*
G37*
G36*
X104306630Y-123622299D02*
X104466855Y-123670903D01*
X104614520Y-123749831D01*
X104743949Y-123856051D01*
X104850169Y-123985480D01*
X104929097Y-124133145D01*
X104977701Y-124293370D01*
X104994112Y-124460000D01*
X104977701Y-124626630D01*
X104929097Y-124786855D01*
X104850169Y-124934520D01*
X104743949Y-125063949D01*
X104614520Y-125170169D01*
X104466855Y-125249097D01*
X104306630Y-125297701D01*
X104181752Y-125310000D01*
X104098248Y-125310000D01*
X103973370Y-125297701D01*
X103813145Y-125249097D01*
X103665480Y-125170169D01*
X103536051Y-125063949D01*
X103429831Y-124934520D01*
X103350903Y-124786855D01*
X103302299Y-124626630D01*
X103285888Y-124460000D01*
X103302299Y-124293370D01*
X103350903Y-124133145D01*
X103429831Y-123985480D01*
X103536051Y-123856051D01*
X103665480Y-123749831D01*
X103813145Y-123670903D01*
X103973370Y-123622299D01*
X104098248Y-123610000D01*
X104181752Y-123610000D01*
X104306630Y-123622299D01*
X104306630Y-123622299D01*
G37*
G36*
X43346630Y-123622299D02*
X43506855Y-123670903D01*
X43654520Y-123749831D01*
X43783949Y-123856051D01*
X43890169Y-123985480D01*
X43969097Y-124133145D01*
X44017701Y-124293370D01*
X44034112Y-124460000D01*
X44017701Y-124626630D01*
X43969097Y-124786855D01*
X43890169Y-124934520D01*
X43783949Y-125063949D01*
X43654520Y-125170169D01*
X43506855Y-125249097D01*
X43346630Y-125297701D01*
X43221752Y-125310000D01*
X43138248Y-125310000D01*
X43013370Y-125297701D01*
X42853145Y-125249097D01*
X42705480Y-125170169D01*
X42576051Y-125063949D01*
X42469831Y-124934520D01*
X42390903Y-124786855D01*
X42342299Y-124626630D01*
X42325888Y-124460000D01*
X42342299Y-124293370D01*
X42390903Y-124133145D01*
X42469831Y-123985480D01*
X42576051Y-123856051D01*
X42705480Y-123749831D01*
X42853145Y-123670903D01*
X43013370Y-123622299D01*
X43138248Y-123610000D01*
X43221752Y-123610000D01*
X43346630Y-123622299D01*
X43346630Y-123622299D01*
G37*
G36*
X106846630Y-121082299D02*
X107006855Y-121130903D01*
X107154520Y-121209831D01*
X107283949Y-121316051D01*
X107390169Y-121445480D01*
X107469097Y-121593145D01*
X107517701Y-121753370D01*
X107534112Y-121920000D01*
X107517701Y-122086630D01*
X107469097Y-122246855D01*
X107390169Y-122394520D01*
X107283949Y-122523949D01*
X107154520Y-122630169D01*
X107006855Y-122709097D01*
X106846630Y-122757701D01*
X106721752Y-122770000D01*
X106638248Y-122770000D01*
X106513370Y-122757701D01*
X106353145Y-122709097D01*
X106205480Y-122630169D01*
X106076051Y-122523949D01*
X105969831Y-122394520D01*
X105890903Y-122246855D01*
X105842299Y-122086630D01*
X105825888Y-121920000D01*
X105842299Y-121753370D01*
X105890903Y-121593145D01*
X105969831Y-121445480D01*
X106076051Y-121316051D01*
X106205480Y-121209831D01*
X106353145Y-121130903D01*
X106513370Y-121082299D01*
X106638248Y-121070000D01*
X106721752Y-121070000D01*
X106846630Y-121082299D01*
X106846630Y-121082299D01*
G37*
G36*
X104306630Y-121082299D02*
X104466855Y-121130903D01*
X104614520Y-121209831D01*
X104743949Y-121316051D01*
X104850169Y-121445480D01*
X104929097Y-121593145D01*
X104977701Y-121753370D01*
X104994112Y-121920000D01*
X104977701Y-122086630D01*
X104929097Y-122246855D01*
X104850169Y-122394520D01*
X104743949Y-122523949D01*
X104614520Y-122630169D01*
X104466855Y-122709097D01*
X104306630Y-122757701D01*
X104181752Y-122770000D01*
X104098248Y-122770000D01*
X103973370Y-122757701D01*
X103813145Y-122709097D01*
X103665480Y-122630169D01*
X103536051Y-122523949D01*
X103429831Y-122394520D01*
X103350903Y-122246855D01*
X103302299Y-122086630D01*
X103285888Y-121920000D01*
X103302299Y-121753370D01*
X103350903Y-121593145D01*
X103429831Y-121445480D01*
X103536051Y-121316051D01*
X103665480Y-121209831D01*
X103813145Y-121130903D01*
X103973370Y-121082299D01*
X104098248Y-121070000D01*
X104181752Y-121070000D01*
X104306630Y-121082299D01*
X104306630Y-121082299D01*
G37*
G36*
X45886630Y-121082299D02*
X46046855Y-121130903D01*
X46194520Y-121209831D01*
X46323949Y-121316051D01*
X46430169Y-121445480D01*
X46509097Y-121593145D01*
X46557701Y-121753370D01*
X46574112Y-121920000D01*
X46557701Y-122086630D01*
X46509097Y-122246855D01*
X46430169Y-122394520D01*
X46323949Y-122523949D01*
X46194520Y-122630169D01*
X46046855Y-122709097D01*
X45886630Y-122757701D01*
X45761752Y-122770000D01*
X45678248Y-122770000D01*
X45553370Y-122757701D01*
X45393145Y-122709097D01*
X45245480Y-122630169D01*
X45116051Y-122523949D01*
X45009831Y-122394520D01*
X44930903Y-122246855D01*
X44882299Y-122086630D01*
X44865888Y-121920000D01*
X44882299Y-121753370D01*
X44930903Y-121593145D01*
X45009831Y-121445480D01*
X45116051Y-121316051D01*
X45245480Y-121209831D01*
X45393145Y-121130903D01*
X45553370Y-121082299D01*
X45678248Y-121070000D01*
X45761752Y-121070000D01*
X45886630Y-121082299D01*
X45886630Y-121082299D01*
G37*
G36*
X43346630Y-121082299D02*
X43506855Y-121130903D01*
X43654520Y-121209831D01*
X43783949Y-121316051D01*
X43890169Y-121445480D01*
X43969097Y-121593145D01*
X44017701Y-121753370D01*
X44034112Y-121920000D01*
X44017701Y-122086630D01*
X43969097Y-122246855D01*
X43890169Y-122394520D01*
X43783949Y-122523949D01*
X43654520Y-122630169D01*
X43506855Y-122709097D01*
X43346630Y-122757701D01*
X43221752Y-122770000D01*
X43138248Y-122770000D01*
X43013370Y-122757701D01*
X42853145Y-122709097D01*
X42705480Y-122630169D01*
X42576051Y-122523949D01*
X42469831Y-122394520D01*
X42390903Y-122246855D01*
X42342299Y-122086630D01*
X42325888Y-121920000D01*
X42342299Y-121753370D01*
X42390903Y-121593145D01*
X42469831Y-121445480D01*
X42576051Y-121316051D01*
X42705480Y-121209831D01*
X42853145Y-121130903D01*
X43013370Y-121082299D01*
X43138248Y-121070000D01*
X43221752Y-121070000D01*
X43346630Y-121082299D01*
X43346630Y-121082299D01*
G37*
G36*
X43346630Y-118542299D02*
X43506855Y-118590903D01*
X43654520Y-118669831D01*
X43783949Y-118776051D01*
X43890169Y-118905480D01*
X43969097Y-119053145D01*
X44017701Y-119213370D01*
X44034112Y-119380000D01*
X44017701Y-119546630D01*
X43969097Y-119706855D01*
X43890169Y-119854520D01*
X43783949Y-119983949D01*
X43654520Y-120090169D01*
X43506855Y-120169097D01*
X43346630Y-120217701D01*
X43221752Y-120230000D01*
X43138248Y-120230000D01*
X43013370Y-120217701D01*
X42853145Y-120169097D01*
X42705480Y-120090169D01*
X42576051Y-119983949D01*
X42469831Y-119854520D01*
X42390903Y-119706855D01*
X42342299Y-119546630D01*
X42325888Y-119380000D01*
X42342299Y-119213370D01*
X42390903Y-119053145D01*
X42469831Y-118905480D01*
X42576051Y-118776051D01*
X42705480Y-118669831D01*
X42853145Y-118590903D01*
X43013370Y-118542299D01*
X43138248Y-118530000D01*
X43221752Y-118530000D01*
X43346630Y-118542299D01*
X43346630Y-118542299D01*
G37*
G36*
X104306630Y-118542299D02*
X104466855Y-118590903D01*
X104614520Y-118669831D01*
X104743949Y-118776051D01*
X104850169Y-118905480D01*
X104929097Y-119053145D01*
X104977701Y-119213370D01*
X104994112Y-119380000D01*
X104977701Y-119546630D01*
X104929097Y-119706855D01*
X104850169Y-119854520D01*
X104743949Y-119983949D01*
X104614520Y-120090169D01*
X104466855Y-120169097D01*
X104306630Y-120217701D01*
X104181752Y-120230000D01*
X104098248Y-120230000D01*
X103973370Y-120217701D01*
X103813145Y-120169097D01*
X103665480Y-120090169D01*
X103536051Y-119983949D01*
X103429831Y-119854520D01*
X103350903Y-119706855D01*
X103302299Y-119546630D01*
X103285888Y-119380000D01*
X103302299Y-119213370D01*
X103350903Y-119053145D01*
X103429831Y-118905480D01*
X103536051Y-118776051D01*
X103665480Y-118669831D01*
X103813145Y-118590903D01*
X103973370Y-118542299D01*
X104098248Y-118530000D01*
X104181752Y-118530000D01*
X104306630Y-118542299D01*
X104306630Y-118542299D01*
G37*
G36*
X106846630Y-118542299D02*
X107006855Y-118590903D01*
X107154520Y-118669831D01*
X107283949Y-118776051D01*
X107390169Y-118905480D01*
X107469097Y-119053145D01*
X107517701Y-119213370D01*
X107534112Y-119380000D01*
X107517701Y-119546630D01*
X107469097Y-119706855D01*
X107390169Y-119854520D01*
X107283949Y-119983949D01*
X107154520Y-120090169D01*
X107006855Y-120169097D01*
X106846630Y-120217701D01*
X106721752Y-120230000D01*
X106638248Y-120230000D01*
X106513370Y-120217701D01*
X106353145Y-120169097D01*
X106205480Y-120090169D01*
X106076051Y-119983949D01*
X105969831Y-119854520D01*
X105890903Y-119706855D01*
X105842299Y-119546630D01*
X105825888Y-119380000D01*
X105842299Y-119213370D01*
X105890903Y-119053145D01*
X105969831Y-118905480D01*
X106076051Y-118776051D01*
X106205480Y-118669831D01*
X106353145Y-118590903D01*
X106513370Y-118542299D01*
X106638248Y-118530000D01*
X106721752Y-118530000D01*
X106846630Y-118542299D01*
X106846630Y-118542299D01*
G37*
G36*
X45886630Y-118542299D02*
X46046855Y-118590903D01*
X46194520Y-118669831D01*
X46323949Y-118776051D01*
X46430169Y-118905480D01*
X46509097Y-119053145D01*
X46557701Y-119213370D01*
X46574112Y-119380000D01*
X46557701Y-119546630D01*
X46509097Y-119706855D01*
X46430169Y-119854520D01*
X46323949Y-119983949D01*
X46194520Y-120090169D01*
X46046855Y-120169097D01*
X45886630Y-120217701D01*
X45761752Y-120230000D01*
X45678248Y-120230000D01*
X45553370Y-120217701D01*
X45393145Y-120169097D01*
X45245480Y-120090169D01*
X45116051Y-119983949D01*
X45009831Y-119854520D01*
X44930903Y-119706855D01*
X44882299Y-119546630D01*
X44865888Y-119380000D01*
X44882299Y-119213370D01*
X44930903Y-119053145D01*
X45009831Y-118905480D01*
X45116051Y-118776051D01*
X45245480Y-118669831D01*
X45393145Y-118590903D01*
X45553370Y-118542299D01*
X45678248Y-118530000D01*
X45761752Y-118530000D01*
X45886630Y-118542299D01*
X45886630Y-118542299D01*
G37*
G36*
X45886630Y-116002299D02*
X46046855Y-116050903D01*
X46194520Y-116129831D01*
X46323949Y-116236051D01*
X46430169Y-116365480D01*
X46509097Y-116513145D01*
X46557701Y-116673370D01*
X46574112Y-116840000D01*
X46557701Y-117006630D01*
X46509097Y-117166855D01*
X46430169Y-117314520D01*
X46323949Y-117443949D01*
X46194520Y-117550169D01*
X46046855Y-117629097D01*
X45886630Y-117677701D01*
X45761752Y-117690000D01*
X45678248Y-117690000D01*
X45553370Y-117677701D01*
X45393145Y-117629097D01*
X45245480Y-117550169D01*
X45116051Y-117443949D01*
X45009831Y-117314520D01*
X44930903Y-117166855D01*
X44882299Y-117006630D01*
X44865888Y-116840000D01*
X44882299Y-116673370D01*
X44930903Y-116513145D01*
X45009831Y-116365480D01*
X45116051Y-116236051D01*
X45245480Y-116129831D01*
X45393145Y-116050903D01*
X45553370Y-116002299D01*
X45678248Y-115990000D01*
X45761752Y-115990000D01*
X45886630Y-116002299D01*
X45886630Y-116002299D01*
G37*
G36*
X106846630Y-116002299D02*
X107006855Y-116050903D01*
X107154520Y-116129831D01*
X107283949Y-116236051D01*
X107390169Y-116365480D01*
X107469097Y-116513145D01*
X107517701Y-116673370D01*
X107534112Y-116840000D01*
X107517701Y-117006630D01*
X107469097Y-117166855D01*
X107390169Y-117314520D01*
X107283949Y-117443949D01*
X107154520Y-117550169D01*
X107006855Y-117629097D01*
X106846630Y-117677701D01*
X106721752Y-117690000D01*
X106638248Y-117690000D01*
X106513370Y-117677701D01*
X106353145Y-117629097D01*
X106205480Y-117550169D01*
X106076051Y-117443949D01*
X105969831Y-117314520D01*
X105890903Y-117166855D01*
X105842299Y-117006630D01*
X105825888Y-116840000D01*
X105842299Y-116673370D01*
X105890903Y-116513145D01*
X105969831Y-116365480D01*
X106076051Y-116236051D01*
X106205480Y-116129831D01*
X106353145Y-116050903D01*
X106513370Y-116002299D01*
X106638248Y-115990000D01*
X106721752Y-115990000D01*
X106846630Y-116002299D01*
X106846630Y-116002299D01*
G37*
G36*
X104306630Y-116002299D02*
X104466855Y-116050903D01*
X104614520Y-116129831D01*
X104743949Y-116236051D01*
X104850169Y-116365480D01*
X104929097Y-116513145D01*
X104977701Y-116673370D01*
X104994112Y-116840000D01*
X104977701Y-117006630D01*
X104929097Y-117166855D01*
X104850169Y-117314520D01*
X104743949Y-117443949D01*
X104614520Y-117550169D01*
X104466855Y-117629097D01*
X104306630Y-117677701D01*
X104181752Y-117690000D01*
X104098248Y-117690000D01*
X103973370Y-117677701D01*
X103813145Y-117629097D01*
X103665480Y-117550169D01*
X103536051Y-117443949D01*
X103429831Y-117314520D01*
X103350903Y-117166855D01*
X103302299Y-117006630D01*
X103285888Y-116840000D01*
X103302299Y-116673370D01*
X103350903Y-116513145D01*
X103429831Y-116365480D01*
X103536051Y-116236051D01*
X103665480Y-116129831D01*
X103813145Y-116050903D01*
X103973370Y-116002299D01*
X104098248Y-115990000D01*
X104181752Y-115990000D01*
X104306630Y-116002299D01*
X104306630Y-116002299D01*
G37*
G36*
X43346630Y-116002299D02*
X43506855Y-116050903D01*
X43654520Y-116129831D01*
X43783949Y-116236051D01*
X43890169Y-116365480D01*
X43969097Y-116513145D01*
X44017701Y-116673370D01*
X44034112Y-116840000D01*
X44017701Y-117006630D01*
X43969097Y-117166855D01*
X43890169Y-117314520D01*
X43783949Y-117443949D01*
X43654520Y-117550169D01*
X43506855Y-117629097D01*
X43346630Y-117677701D01*
X43221752Y-117690000D01*
X43138248Y-117690000D01*
X43013370Y-117677701D01*
X42853145Y-117629097D01*
X42705480Y-117550169D01*
X42576051Y-117443949D01*
X42469831Y-117314520D01*
X42390903Y-117166855D01*
X42342299Y-117006630D01*
X42325888Y-116840000D01*
X42342299Y-116673370D01*
X42390903Y-116513145D01*
X42469831Y-116365480D01*
X42576051Y-116236051D01*
X42705480Y-116129831D01*
X42853145Y-116050903D01*
X43013370Y-116002299D01*
X43138248Y-115990000D01*
X43221752Y-115990000D01*
X43346630Y-116002299D01*
X43346630Y-116002299D01*
G37*
G36*
X104306630Y-113462299D02*
X104466855Y-113510903D01*
X104614520Y-113589831D01*
X104743949Y-113696051D01*
X104850169Y-113825480D01*
X104929097Y-113973145D01*
X104977701Y-114133370D01*
X104994112Y-114300000D01*
X104977701Y-114466630D01*
X104929097Y-114626855D01*
X104850169Y-114774520D01*
X104743949Y-114903949D01*
X104614520Y-115010169D01*
X104466855Y-115089097D01*
X104306630Y-115137701D01*
X104181752Y-115150000D01*
X104098248Y-115150000D01*
X103973370Y-115137701D01*
X103813145Y-115089097D01*
X103665480Y-115010169D01*
X103536051Y-114903949D01*
X103429831Y-114774520D01*
X103350903Y-114626855D01*
X103302299Y-114466630D01*
X103285888Y-114300000D01*
X103302299Y-114133370D01*
X103350903Y-113973145D01*
X103429831Y-113825480D01*
X103536051Y-113696051D01*
X103665480Y-113589831D01*
X103813145Y-113510903D01*
X103973370Y-113462299D01*
X104098248Y-113450000D01*
X104181752Y-113450000D01*
X104306630Y-113462299D01*
X104306630Y-113462299D01*
G37*
G36*
X45886630Y-113462299D02*
X46046855Y-113510903D01*
X46194520Y-113589831D01*
X46323949Y-113696051D01*
X46430169Y-113825480D01*
X46509097Y-113973145D01*
X46557701Y-114133370D01*
X46574112Y-114300000D01*
X46557701Y-114466630D01*
X46509097Y-114626855D01*
X46430169Y-114774520D01*
X46323949Y-114903949D01*
X46194520Y-115010169D01*
X46046855Y-115089097D01*
X45886630Y-115137701D01*
X45761752Y-115150000D01*
X45678248Y-115150000D01*
X45553370Y-115137701D01*
X45393145Y-115089097D01*
X45245480Y-115010169D01*
X45116051Y-114903949D01*
X45009831Y-114774520D01*
X44930903Y-114626855D01*
X44882299Y-114466630D01*
X44865888Y-114300000D01*
X44882299Y-114133370D01*
X44930903Y-113973145D01*
X45009831Y-113825480D01*
X45116051Y-113696051D01*
X45245480Y-113589831D01*
X45393145Y-113510903D01*
X45553370Y-113462299D01*
X45678248Y-113450000D01*
X45761752Y-113450000D01*
X45886630Y-113462299D01*
X45886630Y-113462299D01*
G37*
G36*
X43346630Y-113462299D02*
X43506855Y-113510903D01*
X43654520Y-113589831D01*
X43783949Y-113696051D01*
X43890169Y-113825480D01*
X43969097Y-113973145D01*
X44017701Y-114133370D01*
X44034112Y-114300000D01*
X44017701Y-114466630D01*
X43969097Y-114626855D01*
X43890169Y-114774520D01*
X43783949Y-114903949D01*
X43654520Y-115010169D01*
X43506855Y-115089097D01*
X43346630Y-115137701D01*
X43221752Y-115150000D01*
X43138248Y-115150000D01*
X43013370Y-115137701D01*
X42853145Y-115089097D01*
X42705480Y-115010169D01*
X42576051Y-114903949D01*
X42469831Y-114774520D01*
X42390903Y-114626855D01*
X42342299Y-114466630D01*
X42325888Y-114300000D01*
X42342299Y-114133370D01*
X42390903Y-113973145D01*
X42469831Y-113825480D01*
X42576051Y-113696051D01*
X42705480Y-113589831D01*
X42853145Y-113510903D01*
X43013370Y-113462299D01*
X43138248Y-113450000D01*
X43221752Y-113450000D01*
X43346630Y-113462299D01*
X43346630Y-113462299D01*
G37*
G36*
X106846630Y-113462299D02*
X107006855Y-113510903D01*
X107154520Y-113589831D01*
X107283949Y-113696051D01*
X107390169Y-113825480D01*
X107469097Y-113973145D01*
X107517701Y-114133370D01*
X107534112Y-114300000D01*
X107517701Y-114466630D01*
X107469097Y-114626855D01*
X107390169Y-114774520D01*
X107283949Y-114903949D01*
X107154520Y-115010169D01*
X107006855Y-115089097D01*
X106846630Y-115137701D01*
X106721752Y-115150000D01*
X106638248Y-115150000D01*
X106513370Y-115137701D01*
X106353145Y-115089097D01*
X106205480Y-115010169D01*
X106076051Y-114903949D01*
X105969831Y-114774520D01*
X105890903Y-114626855D01*
X105842299Y-114466630D01*
X105825888Y-114300000D01*
X105842299Y-114133370D01*
X105890903Y-113973145D01*
X105969831Y-113825480D01*
X106076051Y-113696051D01*
X106205480Y-113589831D01*
X106353145Y-113510903D01*
X106513370Y-113462299D01*
X106638248Y-113450000D01*
X106721752Y-113450000D01*
X106846630Y-113462299D01*
X106846630Y-113462299D01*
G37*
G36*
X104306630Y-110922299D02*
X104466855Y-110970903D01*
X104614520Y-111049831D01*
X104743949Y-111156051D01*
X104850169Y-111285480D01*
X104929097Y-111433145D01*
X104977701Y-111593370D01*
X104994112Y-111760000D01*
X104977701Y-111926630D01*
X104929097Y-112086855D01*
X104850169Y-112234520D01*
X104743949Y-112363949D01*
X104614520Y-112470169D01*
X104466855Y-112549097D01*
X104306630Y-112597701D01*
X104181752Y-112610000D01*
X104098248Y-112610000D01*
X103973370Y-112597701D01*
X103813145Y-112549097D01*
X103665480Y-112470169D01*
X103536051Y-112363949D01*
X103429831Y-112234520D01*
X103350903Y-112086855D01*
X103302299Y-111926630D01*
X103285888Y-111760000D01*
X103302299Y-111593370D01*
X103350903Y-111433145D01*
X103429831Y-111285480D01*
X103536051Y-111156051D01*
X103665480Y-111049831D01*
X103813145Y-110970903D01*
X103973370Y-110922299D01*
X104098248Y-110910000D01*
X104181752Y-110910000D01*
X104306630Y-110922299D01*
X104306630Y-110922299D01*
G37*
G36*
X43346630Y-110922299D02*
X43506855Y-110970903D01*
X43654520Y-111049831D01*
X43783949Y-111156051D01*
X43890169Y-111285480D01*
X43969097Y-111433145D01*
X44017701Y-111593370D01*
X44034112Y-111760000D01*
X44017701Y-111926630D01*
X43969097Y-112086855D01*
X43890169Y-112234520D01*
X43783949Y-112363949D01*
X43654520Y-112470169D01*
X43506855Y-112549097D01*
X43346630Y-112597701D01*
X43221752Y-112610000D01*
X43138248Y-112610000D01*
X43013370Y-112597701D01*
X42853145Y-112549097D01*
X42705480Y-112470169D01*
X42576051Y-112363949D01*
X42469831Y-112234520D01*
X42390903Y-112086855D01*
X42342299Y-111926630D01*
X42325888Y-111760000D01*
X42342299Y-111593370D01*
X42390903Y-111433145D01*
X42469831Y-111285480D01*
X42576051Y-111156051D01*
X42705480Y-111049831D01*
X42853145Y-110970903D01*
X43013370Y-110922299D01*
X43138248Y-110910000D01*
X43221752Y-110910000D01*
X43346630Y-110922299D01*
X43346630Y-110922299D01*
G37*
G36*
X45886630Y-110922299D02*
X46046855Y-110970903D01*
X46194520Y-111049831D01*
X46323949Y-111156051D01*
X46430169Y-111285480D01*
X46509097Y-111433145D01*
X46557701Y-111593370D01*
X46574112Y-111760000D01*
X46557701Y-111926630D01*
X46509097Y-112086855D01*
X46430169Y-112234520D01*
X46323949Y-112363949D01*
X46194520Y-112470169D01*
X46046855Y-112549097D01*
X45886630Y-112597701D01*
X45761752Y-112610000D01*
X45678248Y-112610000D01*
X45553370Y-112597701D01*
X45393145Y-112549097D01*
X45245480Y-112470169D01*
X45116051Y-112363949D01*
X45009831Y-112234520D01*
X44930903Y-112086855D01*
X44882299Y-111926630D01*
X44865888Y-111760000D01*
X44882299Y-111593370D01*
X44930903Y-111433145D01*
X45009831Y-111285480D01*
X45116051Y-111156051D01*
X45245480Y-111049831D01*
X45393145Y-110970903D01*
X45553370Y-110922299D01*
X45678248Y-110910000D01*
X45761752Y-110910000D01*
X45886630Y-110922299D01*
X45886630Y-110922299D01*
G37*
G36*
X106846630Y-110922299D02*
X107006855Y-110970903D01*
X107154520Y-111049831D01*
X107283949Y-111156051D01*
X107390169Y-111285480D01*
X107469097Y-111433145D01*
X107517701Y-111593370D01*
X107534112Y-111760000D01*
X107517701Y-111926630D01*
X107469097Y-112086855D01*
X107390169Y-112234520D01*
X107283949Y-112363949D01*
X107154520Y-112470169D01*
X107006855Y-112549097D01*
X106846630Y-112597701D01*
X106721752Y-112610000D01*
X106638248Y-112610000D01*
X106513370Y-112597701D01*
X106353145Y-112549097D01*
X106205480Y-112470169D01*
X106076051Y-112363949D01*
X105969831Y-112234520D01*
X105890903Y-112086855D01*
X105842299Y-111926630D01*
X105825888Y-111760000D01*
X105842299Y-111593370D01*
X105890903Y-111433145D01*
X105969831Y-111285480D01*
X106076051Y-111156051D01*
X106205480Y-111049831D01*
X106353145Y-110970903D01*
X106513370Y-110922299D01*
X106638248Y-110910000D01*
X106721752Y-110910000D01*
X106846630Y-110922299D01*
X106846630Y-110922299D01*
G37*
G36*
X43346630Y-108382299D02*
X43506855Y-108430903D01*
X43654520Y-108509831D01*
X43783949Y-108616051D01*
X43890169Y-108745480D01*
X43969097Y-108893145D01*
X44017701Y-109053370D01*
X44034112Y-109220000D01*
X44017701Y-109386630D01*
X43969097Y-109546855D01*
X43890169Y-109694520D01*
X43783949Y-109823949D01*
X43654520Y-109930169D01*
X43506855Y-110009097D01*
X43346630Y-110057701D01*
X43221752Y-110070000D01*
X43138248Y-110070000D01*
X43013370Y-110057701D01*
X42853145Y-110009097D01*
X42705480Y-109930169D01*
X42576051Y-109823949D01*
X42469831Y-109694520D01*
X42390903Y-109546855D01*
X42342299Y-109386630D01*
X42325888Y-109220000D01*
X42342299Y-109053370D01*
X42390903Y-108893145D01*
X42469831Y-108745480D01*
X42576051Y-108616051D01*
X42705480Y-108509831D01*
X42853145Y-108430903D01*
X43013370Y-108382299D01*
X43138248Y-108370000D01*
X43221752Y-108370000D01*
X43346630Y-108382299D01*
X43346630Y-108382299D01*
G37*
G36*
X45886630Y-108382299D02*
X46046855Y-108430903D01*
X46194520Y-108509831D01*
X46323949Y-108616051D01*
X46430169Y-108745480D01*
X46509097Y-108893145D01*
X46557701Y-109053370D01*
X46574112Y-109220000D01*
X46557701Y-109386630D01*
X46509097Y-109546855D01*
X46430169Y-109694520D01*
X46323949Y-109823949D01*
X46194520Y-109930169D01*
X46046855Y-110009097D01*
X45886630Y-110057701D01*
X45761752Y-110070000D01*
X45678248Y-110070000D01*
X45553370Y-110057701D01*
X45393145Y-110009097D01*
X45245480Y-109930169D01*
X45116051Y-109823949D01*
X45009831Y-109694520D01*
X44930903Y-109546855D01*
X44882299Y-109386630D01*
X44865888Y-109220000D01*
X44882299Y-109053370D01*
X44930903Y-108893145D01*
X45009831Y-108745480D01*
X45116051Y-108616051D01*
X45245480Y-108509831D01*
X45393145Y-108430903D01*
X45553370Y-108382299D01*
X45678248Y-108370000D01*
X45761752Y-108370000D01*
X45886630Y-108382299D01*
X45886630Y-108382299D01*
G37*
G36*
X106846630Y-108382299D02*
X107006855Y-108430903D01*
X107154520Y-108509831D01*
X107283949Y-108616051D01*
X107390169Y-108745480D01*
X107469097Y-108893145D01*
X107517701Y-109053370D01*
X107534112Y-109220000D01*
X107517701Y-109386630D01*
X107469097Y-109546855D01*
X107390169Y-109694520D01*
X107283949Y-109823949D01*
X107154520Y-109930169D01*
X107006855Y-110009097D01*
X106846630Y-110057701D01*
X106721752Y-110070000D01*
X106638248Y-110070000D01*
X106513370Y-110057701D01*
X106353145Y-110009097D01*
X106205480Y-109930169D01*
X106076051Y-109823949D01*
X105969831Y-109694520D01*
X105890903Y-109546855D01*
X105842299Y-109386630D01*
X105825888Y-109220000D01*
X105842299Y-109053370D01*
X105890903Y-108893145D01*
X105969831Y-108745480D01*
X106076051Y-108616051D01*
X106205480Y-108509831D01*
X106353145Y-108430903D01*
X106513370Y-108382299D01*
X106638248Y-108370000D01*
X106721752Y-108370000D01*
X106846630Y-108382299D01*
X106846630Y-108382299D01*
G37*
G36*
X104306630Y-108382299D02*
X104466855Y-108430903D01*
X104614520Y-108509831D01*
X104743949Y-108616051D01*
X104850169Y-108745480D01*
X104929097Y-108893145D01*
X104977701Y-109053370D01*
X104994112Y-109220000D01*
X104977701Y-109386630D01*
X104929097Y-109546855D01*
X104850169Y-109694520D01*
X104743949Y-109823949D01*
X104614520Y-109930169D01*
X104466855Y-110009097D01*
X104306630Y-110057701D01*
X104181752Y-110070000D01*
X104098248Y-110070000D01*
X103973370Y-110057701D01*
X103813145Y-110009097D01*
X103665480Y-109930169D01*
X103536051Y-109823949D01*
X103429831Y-109694520D01*
X103350903Y-109546855D01*
X103302299Y-109386630D01*
X103285888Y-109220000D01*
X103302299Y-109053370D01*
X103350903Y-108893145D01*
X103429831Y-108745480D01*
X103536051Y-108616051D01*
X103665480Y-108509831D01*
X103813145Y-108430903D01*
X103973370Y-108382299D01*
X104098248Y-108370000D01*
X104181752Y-108370000D01*
X104306630Y-108382299D01*
X104306630Y-108382299D01*
G37*
G36*
X104306630Y-105842299D02*
X104466855Y-105890903D01*
X104614520Y-105969831D01*
X104743949Y-106076051D01*
X104850169Y-106205480D01*
X104929097Y-106353145D01*
X104977701Y-106513370D01*
X104994112Y-106680000D01*
X104977701Y-106846630D01*
X104929097Y-107006855D01*
X104850169Y-107154520D01*
X104743949Y-107283949D01*
X104614520Y-107390169D01*
X104466855Y-107469097D01*
X104306630Y-107517701D01*
X104181752Y-107530000D01*
X104098248Y-107530000D01*
X103973370Y-107517701D01*
X103813145Y-107469097D01*
X103665480Y-107390169D01*
X103536051Y-107283949D01*
X103429831Y-107154520D01*
X103350903Y-107006855D01*
X103302299Y-106846630D01*
X103285888Y-106680000D01*
X103302299Y-106513370D01*
X103350903Y-106353145D01*
X103429831Y-106205480D01*
X103536051Y-106076051D01*
X103665480Y-105969831D01*
X103813145Y-105890903D01*
X103973370Y-105842299D01*
X104098248Y-105830000D01*
X104181752Y-105830000D01*
X104306630Y-105842299D01*
X104306630Y-105842299D01*
G37*
G36*
X106846630Y-105842299D02*
X107006855Y-105890903D01*
X107154520Y-105969831D01*
X107283949Y-106076051D01*
X107390169Y-106205480D01*
X107469097Y-106353145D01*
X107517701Y-106513370D01*
X107534112Y-106680000D01*
X107517701Y-106846630D01*
X107469097Y-107006855D01*
X107390169Y-107154520D01*
X107283949Y-107283949D01*
X107154520Y-107390169D01*
X107006855Y-107469097D01*
X106846630Y-107517701D01*
X106721752Y-107530000D01*
X106638248Y-107530000D01*
X106513370Y-107517701D01*
X106353145Y-107469097D01*
X106205480Y-107390169D01*
X106076051Y-107283949D01*
X105969831Y-107154520D01*
X105890903Y-107006855D01*
X105842299Y-106846630D01*
X105825888Y-106680000D01*
X105842299Y-106513370D01*
X105890903Y-106353145D01*
X105969831Y-106205480D01*
X106076051Y-106076051D01*
X106205480Y-105969831D01*
X106353145Y-105890903D01*
X106513370Y-105842299D01*
X106638248Y-105830000D01*
X106721752Y-105830000D01*
X106846630Y-105842299D01*
X106846630Y-105842299D01*
G37*
G36*
X43346630Y-105842299D02*
X43506855Y-105890903D01*
X43654520Y-105969831D01*
X43783949Y-106076051D01*
X43890169Y-106205480D01*
X43969097Y-106353145D01*
X44017701Y-106513370D01*
X44034112Y-106680000D01*
X44017701Y-106846630D01*
X43969097Y-107006855D01*
X43890169Y-107154520D01*
X43783949Y-107283949D01*
X43654520Y-107390169D01*
X43506855Y-107469097D01*
X43346630Y-107517701D01*
X43221752Y-107530000D01*
X43138248Y-107530000D01*
X43013370Y-107517701D01*
X42853145Y-107469097D01*
X42705480Y-107390169D01*
X42576051Y-107283949D01*
X42469831Y-107154520D01*
X42390903Y-107006855D01*
X42342299Y-106846630D01*
X42325888Y-106680000D01*
X42342299Y-106513370D01*
X42390903Y-106353145D01*
X42469831Y-106205480D01*
X42576051Y-106076051D01*
X42705480Y-105969831D01*
X42853145Y-105890903D01*
X43013370Y-105842299D01*
X43138248Y-105830000D01*
X43221752Y-105830000D01*
X43346630Y-105842299D01*
X43346630Y-105842299D01*
G37*
G36*
X45886630Y-105842299D02*
X46046855Y-105890903D01*
X46194520Y-105969831D01*
X46323949Y-106076051D01*
X46430169Y-106205480D01*
X46509097Y-106353145D01*
X46557701Y-106513370D01*
X46574112Y-106680000D01*
X46557701Y-106846630D01*
X46509097Y-107006855D01*
X46430169Y-107154520D01*
X46323949Y-107283949D01*
X46194520Y-107390169D01*
X46046855Y-107469097D01*
X45886630Y-107517701D01*
X45761752Y-107530000D01*
X45678248Y-107530000D01*
X45553370Y-107517701D01*
X45393145Y-107469097D01*
X45245480Y-107390169D01*
X45116051Y-107283949D01*
X45009831Y-107154520D01*
X44930903Y-107006855D01*
X44882299Y-106846630D01*
X44865888Y-106680000D01*
X44882299Y-106513370D01*
X44930903Y-106353145D01*
X45009831Y-106205480D01*
X45116051Y-106076051D01*
X45245480Y-105969831D01*
X45393145Y-105890903D01*
X45553370Y-105842299D01*
X45678248Y-105830000D01*
X45761752Y-105830000D01*
X45886630Y-105842299D01*
X45886630Y-105842299D01*
G37*
G36*
X106846630Y-103302299D02*
X107006855Y-103350903D01*
X107154520Y-103429831D01*
X107283949Y-103536051D01*
X107390169Y-103665480D01*
X107469097Y-103813145D01*
X107517701Y-103973370D01*
X107534112Y-104140000D01*
X107517701Y-104306630D01*
X107469097Y-104466855D01*
X107390169Y-104614520D01*
X107283949Y-104743949D01*
X107154520Y-104850169D01*
X107006855Y-104929097D01*
X106846630Y-104977701D01*
X106721752Y-104990000D01*
X106638248Y-104990000D01*
X106513370Y-104977701D01*
X106353145Y-104929097D01*
X106205480Y-104850169D01*
X106076051Y-104743949D01*
X105969831Y-104614520D01*
X105890903Y-104466855D01*
X105842299Y-104306630D01*
X105825888Y-104140000D01*
X105842299Y-103973370D01*
X105890903Y-103813145D01*
X105969831Y-103665480D01*
X106076051Y-103536051D01*
X106205480Y-103429831D01*
X106353145Y-103350903D01*
X106513370Y-103302299D01*
X106638248Y-103290000D01*
X106721752Y-103290000D01*
X106846630Y-103302299D01*
X106846630Y-103302299D01*
G37*
G36*
X104306630Y-103302299D02*
X104466855Y-103350903D01*
X104614520Y-103429831D01*
X104743949Y-103536051D01*
X104850169Y-103665480D01*
X104929097Y-103813145D01*
X104977701Y-103973370D01*
X104994112Y-104140000D01*
X104977701Y-104306630D01*
X104929097Y-104466855D01*
X104850169Y-104614520D01*
X104743949Y-104743949D01*
X104614520Y-104850169D01*
X104466855Y-104929097D01*
X104306630Y-104977701D01*
X104181752Y-104990000D01*
X104098248Y-104990000D01*
X103973370Y-104977701D01*
X103813145Y-104929097D01*
X103665480Y-104850169D01*
X103536051Y-104743949D01*
X103429831Y-104614520D01*
X103350903Y-104466855D01*
X103302299Y-104306630D01*
X103285888Y-104140000D01*
X103302299Y-103973370D01*
X103350903Y-103813145D01*
X103429831Y-103665480D01*
X103536051Y-103536051D01*
X103665480Y-103429831D01*
X103813145Y-103350903D01*
X103973370Y-103302299D01*
X104098248Y-103290000D01*
X104181752Y-103290000D01*
X104306630Y-103302299D01*
X104306630Y-103302299D01*
G37*
G36*
X45886630Y-103302299D02*
X46046855Y-103350903D01*
X46194520Y-103429831D01*
X46323949Y-103536051D01*
X46430169Y-103665480D01*
X46509097Y-103813145D01*
X46557701Y-103973370D01*
X46574112Y-104140000D01*
X46557701Y-104306630D01*
X46509097Y-104466855D01*
X46430169Y-104614520D01*
X46323949Y-104743949D01*
X46194520Y-104850169D01*
X46046855Y-104929097D01*
X45886630Y-104977701D01*
X45761752Y-104990000D01*
X45678248Y-104990000D01*
X45553370Y-104977701D01*
X45393145Y-104929097D01*
X45245480Y-104850169D01*
X45116051Y-104743949D01*
X45009831Y-104614520D01*
X44930903Y-104466855D01*
X44882299Y-104306630D01*
X44865888Y-104140000D01*
X44882299Y-103973370D01*
X44930903Y-103813145D01*
X45009831Y-103665480D01*
X45116051Y-103536051D01*
X45245480Y-103429831D01*
X45393145Y-103350903D01*
X45553370Y-103302299D01*
X45678248Y-103290000D01*
X45761752Y-103290000D01*
X45886630Y-103302299D01*
X45886630Y-103302299D01*
G37*
G36*
X43346630Y-103302299D02*
X43506855Y-103350903D01*
X43654520Y-103429831D01*
X43783949Y-103536051D01*
X43890169Y-103665480D01*
X43969097Y-103813145D01*
X44017701Y-103973370D01*
X44034112Y-104140000D01*
X44017701Y-104306630D01*
X43969097Y-104466855D01*
X43890169Y-104614520D01*
X43783949Y-104743949D01*
X43654520Y-104850169D01*
X43506855Y-104929097D01*
X43346630Y-104977701D01*
X43221752Y-104990000D01*
X43138248Y-104990000D01*
X43013370Y-104977701D01*
X42853145Y-104929097D01*
X42705480Y-104850169D01*
X42576051Y-104743949D01*
X42469831Y-104614520D01*
X42390903Y-104466855D01*
X42342299Y-104306630D01*
X42325888Y-104140000D01*
X42342299Y-103973370D01*
X42390903Y-103813145D01*
X42469831Y-103665480D01*
X42576051Y-103536051D01*
X42705480Y-103429831D01*
X42853145Y-103350903D01*
X43013370Y-103302299D01*
X43138248Y-103290000D01*
X43221752Y-103290000D01*
X43346630Y-103302299D01*
X43346630Y-103302299D01*
G37*
G36*
X106846630Y-100762299D02*
X107006855Y-100810903D01*
X107154520Y-100889831D01*
X107283949Y-100996051D01*
X107390169Y-101125480D01*
X107469097Y-101273145D01*
X107517701Y-101433370D01*
X107534112Y-101600000D01*
X107517701Y-101766630D01*
X107469097Y-101926855D01*
X107390169Y-102074520D01*
X107283949Y-102203949D01*
X107154520Y-102310169D01*
X107006855Y-102389097D01*
X106846630Y-102437701D01*
X106721752Y-102450000D01*
X106638248Y-102450000D01*
X106513370Y-102437701D01*
X106353145Y-102389097D01*
X106205480Y-102310169D01*
X106076051Y-102203949D01*
X105969831Y-102074520D01*
X105890903Y-101926855D01*
X105842299Y-101766630D01*
X105825888Y-101600000D01*
X105842299Y-101433370D01*
X105890903Y-101273145D01*
X105969831Y-101125480D01*
X106076051Y-100996051D01*
X106205480Y-100889831D01*
X106353145Y-100810903D01*
X106513370Y-100762299D01*
X106638248Y-100750000D01*
X106721752Y-100750000D01*
X106846630Y-100762299D01*
X106846630Y-100762299D01*
G37*
G36*
X104306630Y-100762299D02*
X104466855Y-100810903D01*
X104614520Y-100889831D01*
X104743949Y-100996051D01*
X104850169Y-101125480D01*
X104929097Y-101273145D01*
X104977701Y-101433370D01*
X104994112Y-101600000D01*
X104977701Y-101766630D01*
X104929097Y-101926855D01*
X104850169Y-102074520D01*
X104743949Y-102203949D01*
X104614520Y-102310169D01*
X104466855Y-102389097D01*
X104306630Y-102437701D01*
X104181752Y-102450000D01*
X104098248Y-102450000D01*
X103973370Y-102437701D01*
X103813145Y-102389097D01*
X103665480Y-102310169D01*
X103536051Y-102203949D01*
X103429831Y-102074520D01*
X103350903Y-101926855D01*
X103302299Y-101766630D01*
X103285888Y-101600000D01*
X103302299Y-101433370D01*
X103350903Y-101273145D01*
X103429831Y-101125480D01*
X103536051Y-100996051D01*
X103665480Y-100889831D01*
X103813145Y-100810903D01*
X103973370Y-100762299D01*
X104098248Y-100750000D01*
X104181752Y-100750000D01*
X104306630Y-100762299D01*
X104306630Y-100762299D01*
G37*
G36*
X45886630Y-100762299D02*
X46046855Y-100810903D01*
X46194520Y-100889831D01*
X46323949Y-100996051D01*
X46430169Y-101125480D01*
X46509097Y-101273145D01*
X46557701Y-101433370D01*
X46574112Y-101600000D01*
X46557701Y-101766630D01*
X46509097Y-101926855D01*
X46430169Y-102074520D01*
X46323949Y-102203949D01*
X46194520Y-102310169D01*
X46046855Y-102389097D01*
X45886630Y-102437701D01*
X45761752Y-102450000D01*
X45678248Y-102450000D01*
X45553370Y-102437701D01*
X45393145Y-102389097D01*
X45245480Y-102310169D01*
X45116051Y-102203949D01*
X45009831Y-102074520D01*
X44930903Y-101926855D01*
X44882299Y-101766630D01*
X44865888Y-101600000D01*
X44882299Y-101433370D01*
X44930903Y-101273145D01*
X45009831Y-101125480D01*
X45116051Y-100996051D01*
X45245480Y-100889831D01*
X45393145Y-100810903D01*
X45553370Y-100762299D01*
X45678248Y-100750000D01*
X45761752Y-100750000D01*
X45886630Y-100762299D01*
X45886630Y-100762299D01*
G37*
G36*
X43346630Y-100762299D02*
X43506855Y-100810903D01*
X43654520Y-100889831D01*
X43783949Y-100996051D01*
X43890169Y-101125480D01*
X43969097Y-101273145D01*
X44017701Y-101433370D01*
X44034112Y-101600000D01*
X44017701Y-101766630D01*
X43969097Y-101926855D01*
X43890169Y-102074520D01*
X43783949Y-102203949D01*
X43654520Y-102310169D01*
X43506855Y-102389097D01*
X43346630Y-102437701D01*
X43221752Y-102450000D01*
X43138248Y-102450000D01*
X43013370Y-102437701D01*
X42853145Y-102389097D01*
X42705480Y-102310169D01*
X42576051Y-102203949D01*
X42469831Y-102074520D01*
X42390903Y-101926855D01*
X42342299Y-101766630D01*
X42325888Y-101600000D01*
X42342299Y-101433370D01*
X42390903Y-101273145D01*
X42469831Y-101125480D01*
X42576051Y-100996051D01*
X42705480Y-100889831D01*
X42853145Y-100810903D01*
X43013370Y-100762299D01*
X43138248Y-100750000D01*
X43221752Y-100750000D01*
X43346630Y-100762299D01*
X43346630Y-100762299D01*
G37*
G36*
X45886630Y-98222299D02*
X46046855Y-98270903D01*
X46194520Y-98349831D01*
X46323949Y-98456051D01*
X46430169Y-98585480D01*
X46509097Y-98733145D01*
X46557701Y-98893370D01*
X46574112Y-99060000D01*
X46557701Y-99226630D01*
X46509097Y-99386855D01*
X46430169Y-99534520D01*
X46323949Y-99663949D01*
X46194520Y-99770169D01*
X46046855Y-99849097D01*
X45886630Y-99897701D01*
X45761752Y-99910000D01*
X45678248Y-99910000D01*
X45553370Y-99897701D01*
X45393145Y-99849097D01*
X45245480Y-99770169D01*
X45116051Y-99663949D01*
X45009831Y-99534520D01*
X44930903Y-99386855D01*
X44882299Y-99226630D01*
X44865888Y-99060000D01*
X44882299Y-98893370D01*
X44930903Y-98733145D01*
X45009831Y-98585480D01*
X45116051Y-98456051D01*
X45245480Y-98349831D01*
X45393145Y-98270903D01*
X45553370Y-98222299D01*
X45678248Y-98210000D01*
X45761752Y-98210000D01*
X45886630Y-98222299D01*
X45886630Y-98222299D01*
G37*
G36*
X106846630Y-98222299D02*
X107006855Y-98270903D01*
X107154520Y-98349831D01*
X107283949Y-98456051D01*
X107390169Y-98585480D01*
X107469097Y-98733145D01*
X107517701Y-98893370D01*
X107534112Y-99060000D01*
X107517701Y-99226630D01*
X107469097Y-99386855D01*
X107390169Y-99534520D01*
X107283949Y-99663949D01*
X107154520Y-99770169D01*
X107006855Y-99849097D01*
X106846630Y-99897701D01*
X106721752Y-99910000D01*
X106638248Y-99910000D01*
X106513370Y-99897701D01*
X106353145Y-99849097D01*
X106205480Y-99770169D01*
X106076051Y-99663949D01*
X105969831Y-99534520D01*
X105890903Y-99386855D01*
X105842299Y-99226630D01*
X105825888Y-99060000D01*
X105842299Y-98893370D01*
X105890903Y-98733145D01*
X105969831Y-98585480D01*
X106076051Y-98456051D01*
X106205480Y-98349831D01*
X106353145Y-98270903D01*
X106513370Y-98222299D01*
X106638248Y-98210000D01*
X106721752Y-98210000D01*
X106846630Y-98222299D01*
X106846630Y-98222299D01*
G37*
G36*
X104306630Y-98222299D02*
X104466855Y-98270903D01*
X104614520Y-98349831D01*
X104743949Y-98456051D01*
X104850169Y-98585480D01*
X104929097Y-98733145D01*
X104977701Y-98893370D01*
X104994112Y-99060000D01*
X104977701Y-99226630D01*
X104929097Y-99386855D01*
X104850169Y-99534520D01*
X104743949Y-99663949D01*
X104614520Y-99770169D01*
X104466855Y-99849097D01*
X104306630Y-99897701D01*
X104181752Y-99910000D01*
X104098248Y-99910000D01*
X103973370Y-99897701D01*
X103813145Y-99849097D01*
X103665480Y-99770169D01*
X103536051Y-99663949D01*
X103429831Y-99534520D01*
X103350903Y-99386855D01*
X103302299Y-99226630D01*
X103285888Y-99060000D01*
X103302299Y-98893370D01*
X103350903Y-98733145D01*
X103429831Y-98585480D01*
X103536051Y-98456051D01*
X103665480Y-98349831D01*
X103813145Y-98270903D01*
X103973370Y-98222299D01*
X104098248Y-98210000D01*
X104181752Y-98210000D01*
X104306630Y-98222299D01*
X104306630Y-98222299D01*
G37*
G36*
X43346630Y-98222299D02*
X43506855Y-98270903D01*
X43654520Y-98349831D01*
X43783949Y-98456051D01*
X43890169Y-98585480D01*
X43969097Y-98733145D01*
X44017701Y-98893370D01*
X44034112Y-99060000D01*
X44017701Y-99226630D01*
X43969097Y-99386855D01*
X43890169Y-99534520D01*
X43783949Y-99663949D01*
X43654520Y-99770169D01*
X43506855Y-99849097D01*
X43346630Y-99897701D01*
X43221752Y-99910000D01*
X43138248Y-99910000D01*
X43013370Y-99897701D01*
X42853145Y-99849097D01*
X42705480Y-99770169D01*
X42576051Y-99663949D01*
X42469831Y-99534520D01*
X42390903Y-99386855D01*
X42342299Y-99226630D01*
X42325888Y-99060000D01*
X42342299Y-98893370D01*
X42390903Y-98733145D01*
X42469831Y-98585480D01*
X42576051Y-98456051D01*
X42705480Y-98349831D01*
X42853145Y-98270903D01*
X43013370Y-98222299D01*
X43138248Y-98210000D01*
X43221752Y-98210000D01*
X43346630Y-98222299D01*
X43346630Y-98222299D01*
G37*
G36*
X45886630Y-95682299D02*
X46046855Y-95730903D01*
X46194520Y-95809831D01*
X46323949Y-95916051D01*
X46430169Y-96045480D01*
X46509097Y-96193145D01*
X46557701Y-96353370D01*
X46574112Y-96520000D01*
X46557701Y-96686630D01*
X46509097Y-96846855D01*
X46430169Y-96994520D01*
X46323949Y-97123949D01*
X46194520Y-97230169D01*
X46046855Y-97309097D01*
X45886630Y-97357701D01*
X45761752Y-97370000D01*
X45678248Y-97370000D01*
X45553370Y-97357701D01*
X45393145Y-97309097D01*
X45245480Y-97230169D01*
X45116051Y-97123949D01*
X45009831Y-96994520D01*
X44930903Y-96846855D01*
X44882299Y-96686630D01*
X44865888Y-96520000D01*
X44882299Y-96353370D01*
X44930903Y-96193145D01*
X45009831Y-96045480D01*
X45116051Y-95916051D01*
X45245480Y-95809831D01*
X45393145Y-95730903D01*
X45553370Y-95682299D01*
X45678248Y-95670000D01*
X45761752Y-95670000D01*
X45886630Y-95682299D01*
X45886630Y-95682299D01*
G37*
G36*
X104306630Y-95682299D02*
X104466855Y-95730903D01*
X104614520Y-95809831D01*
X104743949Y-95916051D01*
X104850169Y-96045480D01*
X104929097Y-96193145D01*
X104977701Y-96353370D01*
X104994112Y-96520000D01*
X104977701Y-96686630D01*
X104929097Y-96846855D01*
X104850169Y-96994520D01*
X104743949Y-97123949D01*
X104614520Y-97230169D01*
X104466855Y-97309097D01*
X104306630Y-97357701D01*
X104181752Y-97370000D01*
X104098248Y-97370000D01*
X103973370Y-97357701D01*
X103813145Y-97309097D01*
X103665480Y-97230169D01*
X103536051Y-97123949D01*
X103429831Y-96994520D01*
X103350903Y-96846855D01*
X103302299Y-96686630D01*
X103285888Y-96520000D01*
X103302299Y-96353370D01*
X103350903Y-96193145D01*
X103429831Y-96045480D01*
X103536051Y-95916051D01*
X103665480Y-95809831D01*
X103813145Y-95730903D01*
X103973370Y-95682299D01*
X104098248Y-95670000D01*
X104181752Y-95670000D01*
X104306630Y-95682299D01*
X104306630Y-95682299D01*
G37*
G36*
X106846630Y-95682299D02*
X107006855Y-95730903D01*
X107154520Y-95809831D01*
X107283949Y-95916051D01*
X107390169Y-96045480D01*
X107469097Y-96193145D01*
X107517701Y-96353370D01*
X107534112Y-96520000D01*
X107517701Y-96686630D01*
X107469097Y-96846855D01*
X107390169Y-96994520D01*
X107283949Y-97123949D01*
X107154520Y-97230169D01*
X107006855Y-97309097D01*
X106846630Y-97357701D01*
X106721752Y-97370000D01*
X106638248Y-97370000D01*
X106513370Y-97357701D01*
X106353145Y-97309097D01*
X106205480Y-97230169D01*
X106076051Y-97123949D01*
X105969831Y-96994520D01*
X105890903Y-96846855D01*
X105842299Y-96686630D01*
X105825888Y-96520000D01*
X105842299Y-96353370D01*
X105890903Y-96193145D01*
X105969831Y-96045480D01*
X106076051Y-95916051D01*
X106205480Y-95809831D01*
X106353145Y-95730903D01*
X106513370Y-95682299D01*
X106638248Y-95670000D01*
X106721752Y-95670000D01*
X106846630Y-95682299D01*
X106846630Y-95682299D01*
G37*
G36*
X43346630Y-95682299D02*
X43506855Y-95730903D01*
X43654520Y-95809831D01*
X43783949Y-95916051D01*
X43890169Y-96045480D01*
X43969097Y-96193145D01*
X44017701Y-96353370D01*
X44034112Y-96520000D01*
X44017701Y-96686630D01*
X43969097Y-96846855D01*
X43890169Y-96994520D01*
X43783949Y-97123949D01*
X43654520Y-97230169D01*
X43506855Y-97309097D01*
X43346630Y-97357701D01*
X43221752Y-97370000D01*
X43138248Y-97370000D01*
X43013370Y-97357701D01*
X42853145Y-97309097D01*
X42705480Y-97230169D01*
X42576051Y-97123949D01*
X42469831Y-96994520D01*
X42390903Y-96846855D01*
X42342299Y-96686630D01*
X42325888Y-96520000D01*
X42342299Y-96353370D01*
X42390903Y-96193145D01*
X42469831Y-96045480D01*
X42576051Y-95916051D01*
X42705480Y-95809831D01*
X42853145Y-95730903D01*
X43013370Y-95682299D01*
X43138248Y-95670000D01*
X43221752Y-95670000D01*
X43346630Y-95682299D01*
X43346630Y-95682299D01*
G37*
G36*
X106846630Y-93142299D02*
X107006855Y-93190903D01*
X107154520Y-93269831D01*
X107283949Y-93376051D01*
X107390169Y-93505480D01*
X107469097Y-93653145D01*
X107517701Y-93813370D01*
X107534112Y-93980000D01*
X107517701Y-94146630D01*
X107469097Y-94306855D01*
X107390169Y-94454520D01*
X107283949Y-94583949D01*
X107154520Y-94690169D01*
X107006855Y-94769097D01*
X106846630Y-94817701D01*
X106721752Y-94830000D01*
X106638248Y-94830000D01*
X106513370Y-94817701D01*
X106353145Y-94769097D01*
X106205480Y-94690169D01*
X106076051Y-94583949D01*
X105969831Y-94454520D01*
X105890903Y-94306855D01*
X105842299Y-94146630D01*
X105825888Y-93980000D01*
X105842299Y-93813370D01*
X105890903Y-93653145D01*
X105969831Y-93505480D01*
X106076051Y-93376051D01*
X106205480Y-93269831D01*
X106353145Y-93190903D01*
X106513370Y-93142299D01*
X106638248Y-93130000D01*
X106721752Y-93130000D01*
X106846630Y-93142299D01*
X106846630Y-93142299D01*
G37*
G36*
X104306630Y-93142299D02*
X104466855Y-93190903D01*
X104614520Y-93269831D01*
X104743949Y-93376051D01*
X104850169Y-93505480D01*
X104929097Y-93653145D01*
X104977701Y-93813370D01*
X104994112Y-93980000D01*
X104977701Y-94146630D01*
X104929097Y-94306855D01*
X104850169Y-94454520D01*
X104743949Y-94583949D01*
X104614520Y-94690169D01*
X104466855Y-94769097D01*
X104306630Y-94817701D01*
X104181752Y-94830000D01*
X104098248Y-94830000D01*
X103973370Y-94817701D01*
X103813145Y-94769097D01*
X103665480Y-94690169D01*
X103536051Y-94583949D01*
X103429831Y-94454520D01*
X103350903Y-94306855D01*
X103302299Y-94146630D01*
X103285888Y-93980000D01*
X103302299Y-93813370D01*
X103350903Y-93653145D01*
X103429831Y-93505480D01*
X103536051Y-93376051D01*
X103665480Y-93269831D01*
X103813145Y-93190903D01*
X103973370Y-93142299D01*
X104098248Y-93130000D01*
X104181752Y-93130000D01*
X104306630Y-93142299D01*
X104306630Y-93142299D01*
G37*
G36*
X45886630Y-93142299D02*
X46046855Y-93190903D01*
X46194520Y-93269831D01*
X46323949Y-93376051D01*
X46430169Y-93505480D01*
X46509097Y-93653145D01*
X46557701Y-93813370D01*
X46574112Y-93980000D01*
X46557701Y-94146630D01*
X46509097Y-94306855D01*
X46430169Y-94454520D01*
X46323949Y-94583949D01*
X46194520Y-94690169D01*
X46046855Y-94769097D01*
X45886630Y-94817701D01*
X45761752Y-94830000D01*
X45678248Y-94830000D01*
X45553370Y-94817701D01*
X45393145Y-94769097D01*
X45245480Y-94690169D01*
X45116051Y-94583949D01*
X45009831Y-94454520D01*
X44930903Y-94306855D01*
X44882299Y-94146630D01*
X44865888Y-93980000D01*
X44882299Y-93813370D01*
X44930903Y-93653145D01*
X45009831Y-93505480D01*
X45116051Y-93376051D01*
X45245480Y-93269831D01*
X45393145Y-93190903D01*
X45553370Y-93142299D01*
X45678248Y-93130000D01*
X45761752Y-93130000D01*
X45886630Y-93142299D01*
X45886630Y-93142299D01*
G37*
G36*
X43346630Y-93142299D02*
X43506855Y-93190903D01*
X43654520Y-93269831D01*
X43783949Y-93376051D01*
X43890169Y-93505480D01*
X43969097Y-93653145D01*
X44017701Y-93813370D01*
X44034112Y-93980000D01*
X44017701Y-94146630D01*
X43969097Y-94306855D01*
X43890169Y-94454520D01*
X43783949Y-94583949D01*
X43654520Y-94690169D01*
X43506855Y-94769097D01*
X43346630Y-94817701D01*
X43221752Y-94830000D01*
X43138248Y-94830000D01*
X43013370Y-94817701D01*
X42853145Y-94769097D01*
X42705480Y-94690169D01*
X42576051Y-94583949D01*
X42469831Y-94454520D01*
X42390903Y-94306855D01*
X42342299Y-94146630D01*
X42325888Y-93980000D01*
X42342299Y-93813370D01*
X42390903Y-93653145D01*
X42469831Y-93505480D01*
X42576051Y-93376051D01*
X42705480Y-93269831D01*
X42853145Y-93190903D01*
X43013370Y-93142299D01*
X43138248Y-93130000D01*
X43221752Y-93130000D01*
X43346630Y-93142299D01*
X43346630Y-93142299D01*
G37*
G36*
X106846630Y-90602299D02*
X107006855Y-90650903D01*
X107154520Y-90729831D01*
X107283949Y-90836051D01*
X107390169Y-90965480D01*
X107469097Y-91113145D01*
X107517701Y-91273370D01*
X107534112Y-91440000D01*
X107517701Y-91606630D01*
X107469097Y-91766855D01*
X107390169Y-91914520D01*
X107283949Y-92043949D01*
X107154520Y-92150169D01*
X107006855Y-92229097D01*
X106846630Y-92277701D01*
X106721752Y-92290000D01*
X106638248Y-92290000D01*
X106513370Y-92277701D01*
X106353145Y-92229097D01*
X106205480Y-92150169D01*
X106076051Y-92043949D01*
X105969831Y-91914520D01*
X105890903Y-91766855D01*
X105842299Y-91606630D01*
X105825888Y-91440000D01*
X105842299Y-91273370D01*
X105890903Y-91113145D01*
X105969831Y-90965480D01*
X106076051Y-90836051D01*
X106205480Y-90729831D01*
X106353145Y-90650903D01*
X106513370Y-90602299D01*
X106638248Y-90590000D01*
X106721752Y-90590000D01*
X106846630Y-90602299D01*
X106846630Y-90602299D01*
G37*
G36*
X43346630Y-90602299D02*
X43506855Y-90650903D01*
X43654520Y-90729831D01*
X43783949Y-90836051D01*
X43890169Y-90965480D01*
X43969097Y-91113145D01*
X44017701Y-91273370D01*
X44034112Y-91440000D01*
X44017701Y-91606630D01*
X43969097Y-91766855D01*
X43890169Y-91914520D01*
X43783949Y-92043949D01*
X43654520Y-92150169D01*
X43506855Y-92229097D01*
X43346630Y-92277701D01*
X43221752Y-92290000D01*
X43138248Y-92290000D01*
X43013370Y-92277701D01*
X42853145Y-92229097D01*
X42705480Y-92150169D01*
X42576051Y-92043949D01*
X42469831Y-91914520D01*
X42390903Y-91766855D01*
X42342299Y-91606630D01*
X42325888Y-91440000D01*
X42342299Y-91273370D01*
X42390903Y-91113145D01*
X42469831Y-90965480D01*
X42576051Y-90836051D01*
X42705480Y-90729831D01*
X42853145Y-90650903D01*
X43013370Y-90602299D01*
X43138248Y-90590000D01*
X43221752Y-90590000D01*
X43346630Y-90602299D01*
X43346630Y-90602299D01*
G37*
G36*
X45886630Y-90602299D02*
X46046855Y-90650903D01*
X46194520Y-90729831D01*
X46323949Y-90836051D01*
X46430169Y-90965480D01*
X46509097Y-91113145D01*
X46557701Y-91273370D01*
X46574112Y-91440000D01*
X46557701Y-91606630D01*
X46509097Y-91766855D01*
X46430169Y-91914520D01*
X46323949Y-92043949D01*
X46194520Y-92150169D01*
X46046855Y-92229097D01*
X45886630Y-92277701D01*
X45761752Y-92290000D01*
X45678248Y-92290000D01*
X45553370Y-92277701D01*
X45393145Y-92229097D01*
X45245480Y-92150169D01*
X45116051Y-92043949D01*
X45009831Y-91914520D01*
X44930903Y-91766855D01*
X44882299Y-91606630D01*
X44865888Y-91440000D01*
X44882299Y-91273370D01*
X44930903Y-91113145D01*
X45009831Y-90965480D01*
X45116051Y-90836051D01*
X45245480Y-90729831D01*
X45393145Y-90650903D01*
X45553370Y-90602299D01*
X45678248Y-90590000D01*
X45761752Y-90590000D01*
X45886630Y-90602299D01*
X45886630Y-90602299D01*
G37*
G36*
X104306630Y-90602299D02*
X104466855Y-90650903D01*
X104614520Y-90729831D01*
X104743949Y-90836051D01*
X104850169Y-90965480D01*
X104929097Y-91113145D01*
X104977701Y-91273370D01*
X104994112Y-91440000D01*
X104977701Y-91606630D01*
X104929097Y-91766855D01*
X104850169Y-91914520D01*
X104743949Y-92043949D01*
X104614520Y-92150169D01*
X104466855Y-92229097D01*
X104306630Y-92277701D01*
X104181752Y-92290000D01*
X104098248Y-92290000D01*
X103973370Y-92277701D01*
X103813145Y-92229097D01*
X103665480Y-92150169D01*
X103536051Y-92043949D01*
X103429831Y-91914520D01*
X103350903Y-91766855D01*
X103302299Y-91606630D01*
X103285888Y-91440000D01*
X103302299Y-91273370D01*
X103350903Y-91113145D01*
X103429831Y-90965480D01*
X103536051Y-90836051D01*
X103665480Y-90729831D01*
X103813145Y-90650903D01*
X103973370Y-90602299D01*
X104098248Y-90590000D01*
X104181752Y-90590000D01*
X104306630Y-90602299D01*
X104306630Y-90602299D01*
G37*
G36*
X106846630Y-88062299D02*
X107006855Y-88110903D01*
X107154520Y-88189831D01*
X107283949Y-88296051D01*
X107390169Y-88425480D01*
X107469097Y-88573145D01*
X107517701Y-88733370D01*
X107534112Y-88900000D01*
X107517701Y-89066630D01*
X107469097Y-89226855D01*
X107390169Y-89374520D01*
X107283949Y-89503949D01*
X107154520Y-89610169D01*
X107006855Y-89689097D01*
X106846630Y-89737701D01*
X106721752Y-89750000D01*
X106638248Y-89750000D01*
X106513370Y-89737701D01*
X106353145Y-89689097D01*
X106205480Y-89610169D01*
X106076051Y-89503949D01*
X105969831Y-89374520D01*
X105890903Y-89226855D01*
X105842299Y-89066630D01*
X105825888Y-88900000D01*
X105842299Y-88733370D01*
X105890903Y-88573145D01*
X105969831Y-88425480D01*
X106076051Y-88296051D01*
X106205480Y-88189831D01*
X106353145Y-88110903D01*
X106513370Y-88062299D01*
X106638248Y-88050000D01*
X106721752Y-88050000D01*
X106846630Y-88062299D01*
X106846630Y-88062299D01*
G37*
G36*
X45886630Y-88062299D02*
X46046855Y-88110903D01*
X46194520Y-88189831D01*
X46323949Y-88296051D01*
X46430169Y-88425480D01*
X46509097Y-88573145D01*
X46557701Y-88733370D01*
X46574112Y-88900000D01*
X46557701Y-89066630D01*
X46509097Y-89226855D01*
X46430169Y-89374520D01*
X46323949Y-89503949D01*
X46194520Y-89610169D01*
X46046855Y-89689097D01*
X45886630Y-89737701D01*
X45761752Y-89750000D01*
X45678248Y-89750000D01*
X45553370Y-89737701D01*
X45393145Y-89689097D01*
X45245480Y-89610169D01*
X45116051Y-89503949D01*
X45009831Y-89374520D01*
X44930903Y-89226855D01*
X44882299Y-89066630D01*
X44865888Y-88900000D01*
X44882299Y-88733370D01*
X44930903Y-88573145D01*
X45009831Y-88425480D01*
X45116051Y-88296051D01*
X45245480Y-88189831D01*
X45393145Y-88110903D01*
X45553370Y-88062299D01*
X45678248Y-88050000D01*
X45761752Y-88050000D01*
X45886630Y-88062299D01*
X45886630Y-88062299D01*
G37*
G36*
X44030000Y-89750000D02*
X42330000Y-89750000D01*
X42330000Y-88050000D01*
X44030000Y-88050000D01*
X44030000Y-89750000D01*
X44030000Y-89750000D01*
G37*
G36*
X104990000Y-89750000D02*
X103290000Y-89750000D01*
X103290000Y-88050000D01*
X104990000Y-88050000D01*
X104990000Y-89750000D01*
X104990000Y-89750000D01*
G37*
G36*
X107019703Y-72375486D02*
X107310883Y-72496097D01*
X107572944Y-72671201D01*
X107795799Y-72894056D01*
X107970903Y-73156117D01*
X108091514Y-73447297D01*
X108153000Y-73756412D01*
X108153000Y-74071588D01*
X108091514Y-74380703D01*
X107970903Y-74671883D01*
X107795799Y-74933944D01*
X107572944Y-75156799D01*
X107310883Y-75331903D01*
X107019703Y-75452514D01*
X106710588Y-75514000D01*
X106395412Y-75514000D01*
X106086297Y-75452514D01*
X105795117Y-75331903D01*
X105533056Y-75156799D01*
X105310201Y-74933944D01*
X105135097Y-74671883D01*
X105014486Y-74380703D01*
X104953000Y-74071588D01*
X104953000Y-73756412D01*
X105014486Y-73447297D01*
X105135097Y-73156117D01*
X105310201Y-72894056D01*
X105533056Y-72671201D01*
X105795117Y-72496097D01*
X106086297Y-72375486D01*
X106395412Y-72314000D01*
X106710588Y-72314000D01*
X107019703Y-72375486D01*
X107019703Y-72375486D01*
G37*
G36*
X38566703Y-72121486D02*
X38857883Y-72242097D01*
X39119944Y-72417201D01*
X39342799Y-72640056D01*
X39517903Y-72902117D01*
X39638514Y-73193297D01*
X39700000Y-73502412D01*
X39700000Y-73817588D01*
X39638514Y-74126703D01*
X39517903Y-74417883D01*
X39342799Y-74679944D01*
X39119944Y-74902799D01*
X38857883Y-75077903D01*
X38566703Y-75198514D01*
X38257588Y-75260000D01*
X37942412Y-75260000D01*
X37633297Y-75198514D01*
X37342117Y-75077903D01*
X37080056Y-74902799D01*
X36857201Y-74679944D01*
X36682097Y-74417883D01*
X36561486Y-74126703D01*
X36500000Y-73817588D01*
X36500000Y-73502412D01*
X36561486Y-73193297D01*
X36682097Y-72902117D01*
X36857201Y-72640056D01*
X37080056Y-72417201D01*
X37342117Y-72242097D01*
X37633297Y-72121486D01*
X37942412Y-72060000D01*
X38257588Y-72060000D01*
X38566703Y-72121486D01*
X38566703Y-72121486D01*
G37*
G36*
X56083876Y-54095048D02*
X56279916Y-54154516D01*
X56460589Y-54251088D01*
X56618949Y-54381051D01*
X56748912Y-54539411D01*
X56845484Y-54720084D01*
X56904952Y-54916124D01*
X56920000Y-55068909D01*
X56920000Y-56691091D01*
X56904952Y-56843876D01*
X56845484Y-57039916D01*
X56748912Y-57220589D01*
X56659663Y-57329339D01*
X56618952Y-57378946D01*
X56618950Y-57378947D01*
X56618949Y-57378949D01*
X56460589Y-57508912D01*
X56279915Y-57605484D01*
X56083875Y-57664952D01*
X55880000Y-57685032D01*
X55676124Y-57664952D01*
X55480084Y-57605484D01*
X55299411Y-57508912D01*
X55190661Y-57419663D01*
X55141054Y-57378952D01*
X55141053Y-57378950D01*
X55141051Y-57378949D01*
X55011088Y-57220589D01*
X54914516Y-57039915D01*
X54855048Y-56843875D01*
X54840000Y-56691090D01*
X54840000Y-55068916D01*
X54855048Y-54916123D01*
X54895628Y-54782354D01*
X54914517Y-54720084D01*
X55011089Y-54539411D01*
X55141052Y-54381051D01*
X55299412Y-54251088D01*
X55480085Y-54154516D01*
X55676125Y-54095048D01*
X55880000Y-54074968D01*
X56083876Y-54095048D01*
X56083876Y-54095048D01*
G37*
G36*
X61163876Y-54095048D02*
X61359916Y-54154516D01*
X61540589Y-54251088D01*
X61698949Y-54381051D01*
X61828912Y-54539411D01*
X61925484Y-54720084D01*
X61984952Y-54916124D01*
X62000000Y-55068909D01*
X62000000Y-56691091D01*
X61984952Y-56843876D01*
X61925484Y-57039916D01*
X61828912Y-57220589D01*
X61739663Y-57329339D01*
X61698952Y-57378946D01*
X61698950Y-57378947D01*
X61698949Y-57378949D01*
X61540589Y-57508912D01*
X61359915Y-57605484D01*
X61163875Y-57664952D01*
X60960000Y-57685032D01*
X60756124Y-57664952D01*
X60560084Y-57605484D01*
X60379411Y-57508912D01*
X60270661Y-57419663D01*
X60221054Y-57378952D01*
X60221053Y-57378950D01*
X60221051Y-57378949D01*
X60091088Y-57220589D01*
X59994516Y-57039915D01*
X59935048Y-56843875D01*
X59920000Y-56691090D01*
X59920000Y-55068916D01*
X59935048Y-54916123D01*
X59975628Y-54782354D01*
X59994517Y-54720084D01*
X60091089Y-54539411D01*
X60221052Y-54381051D01*
X60379412Y-54251088D01*
X60560085Y-54154516D01*
X60756125Y-54095048D01*
X60960000Y-54074968D01*
X61163876Y-54095048D01*
X61163876Y-54095048D01*
G37*
G36*
X66243876Y-54095048D02*
X66439916Y-54154516D01*
X66620589Y-54251088D01*
X66778949Y-54381051D01*
X66908912Y-54539411D01*
X67005484Y-54720084D01*
X67064952Y-54916124D01*
X67080000Y-55068909D01*
X67080000Y-56691091D01*
X67064952Y-56843876D01*
X67005484Y-57039916D01*
X66908912Y-57220589D01*
X66819663Y-57329339D01*
X66778952Y-57378946D01*
X66778950Y-57378947D01*
X66778949Y-57378949D01*
X66620589Y-57508912D01*
X66439915Y-57605484D01*
X66243875Y-57664952D01*
X66040000Y-57685032D01*
X65836124Y-57664952D01*
X65640084Y-57605484D01*
X65459411Y-57508912D01*
X65350661Y-57419663D01*
X65301054Y-57378952D01*
X65301053Y-57378950D01*
X65301051Y-57378949D01*
X65171088Y-57220589D01*
X65074516Y-57039915D01*
X65015048Y-56843875D01*
X65000000Y-56691090D01*
X65000000Y-55068916D01*
X65015048Y-54916123D01*
X65055628Y-54782354D01*
X65074517Y-54720084D01*
X65171089Y-54539411D01*
X65301052Y-54381051D01*
X65459412Y-54251088D01*
X65640085Y-54154516D01*
X65836125Y-54095048D01*
X66040000Y-54074968D01*
X66243876Y-54095048D01*
X66243876Y-54095048D01*
G37*
G36*
X71323876Y-54095048D02*
X71519916Y-54154516D01*
X71700589Y-54251088D01*
X71858949Y-54381051D01*
X71988912Y-54539411D01*
X72085484Y-54720084D01*
X72144952Y-54916124D01*
X72160000Y-55068909D01*
X72160000Y-56691091D01*
X72144952Y-56843876D01*
X72085484Y-57039916D01*
X71988912Y-57220589D01*
X71899663Y-57329339D01*
X71858952Y-57378946D01*
X71858950Y-57378947D01*
X71858949Y-57378949D01*
X71700589Y-57508912D01*
X71519915Y-57605484D01*
X71323875Y-57664952D01*
X71120000Y-57685032D01*
X70916124Y-57664952D01*
X70720084Y-57605484D01*
X70539411Y-57508912D01*
X70430661Y-57419663D01*
X70381054Y-57378952D01*
X70381053Y-57378950D01*
X70381051Y-57378949D01*
X70251088Y-57220589D01*
X70154516Y-57039915D01*
X70095048Y-56843875D01*
X70080000Y-56691090D01*
X70080000Y-55068916D01*
X70095048Y-54916123D01*
X70135628Y-54782354D01*
X70154517Y-54720084D01*
X70251089Y-54539411D01*
X70381052Y-54381051D01*
X70539412Y-54251088D01*
X70720085Y-54154516D01*
X70916125Y-54095048D01*
X71120000Y-54074968D01*
X71323876Y-54095048D01*
X71323876Y-54095048D01*
G37*
G36*
X51003876Y-54095048D02*
X51199916Y-54154516D01*
X51380589Y-54251088D01*
X51538949Y-54381051D01*
X51668912Y-54539411D01*
X51765484Y-54720084D01*
X51824952Y-54916124D01*
X51840000Y-55068909D01*
X51840000Y-56691091D01*
X51824952Y-56843876D01*
X51765484Y-57039916D01*
X51668912Y-57220589D01*
X51579663Y-57329339D01*
X51538952Y-57378946D01*
X51538950Y-57378947D01*
X51538949Y-57378949D01*
X51380589Y-57508912D01*
X51199915Y-57605484D01*
X51003875Y-57664952D01*
X50800000Y-57685032D01*
X50596124Y-57664952D01*
X50400084Y-57605484D01*
X50219411Y-57508912D01*
X50110661Y-57419663D01*
X50061054Y-57378952D01*
X50061053Y-57378950D01*
X50061051Y-57378949D01*
X49931088Y-57220589D01*
X49834516Y-57039915D01*
X49775048Y-56843875D01*
X49760000Y-56691090D01*
X49760000Y-55068916D01*
X49775048Y-54916123D01*
X49815628Y-54782354D01*
X49834517Y-54720084D01*
X49931089Y-54539411D01*
X50061052Y-54381051D01*
X50219412Y-54251088D01*
X50400085Y-54154516D01*
X50596125Y-54095048D01*
X50800000Y-54074968D01*
X51003876Y-54095048D01*
X51003876Y-54095048D01*
G37*
G36*
X45923876Y-54095048D02*
X46119916Y-54154516D01*
X46300589Y-54251088D01*
X46458949Y-54381051D01*
X46588912Y-54539411D01*
X46685484Y-54720084D01*
X46744952Y-54916124D01*
X46760000Y-55068909D01*
X46760000Y-56691091D01*
X46744952Y-56843876D01*
X46685484Y-57039916D01*
X46588912Y-57220589D01*
X46499663Y-57329339D01*
X46458952Y-57378946D01*
X46458950Y-57378947D01*
X46458949Y-57378949D01*
X46300589Y-57508912D01*
X46119915Y-57605484D01*
X45923875Y-57664952D01*
X45720000Y-57685032D01*
X45516124Y-57664952D01*
X45320084Y-57605484D01*
X45139411Y-57508912D01*
X45030661Y-57419663D01*
X44981054Y-57378952D01*
X44981053Y-57378950D01*
X44981051Y-57378949D01*
X44851088Y-57220589D01*
X44754516Y-57039915D01*
X44695048Y-56843875D01*
X44680000Y-56691090D01*
X44680000Y-55068916D01*
X44695048Y-54916123D01*
X44735628Y-54782354D01*
X44754517Y-54720084D01*
X44851089Y-54539411D01*
X44981052Y-54381051D01*
X45139412Y-54251088D01*
X45320085Y-54154516D01*
X45516125Y-54095048D01*
X45720000Y-54074968D01*
X45923876Y-54095048D01*
X45923876Y-54095048D01*
G37*
G36*
X40843876Y-54095048D02*
X41039916Y-54154516D01*
X41220589Y-54251088D01*
X41378949Y-54381051D01*
X41508912Y-54539411D01*
X41605484Y-54720084D01*
X41664952Y-54916124D01*
X41680000Y-55068909D01*
X41680000Y-56691091D01*
X41664952Y-56843876D01*
X41605484Y-57039916D01*
X41508912Y-57220589D01*
X41419663Y-57329339D01*
X41378952Y-57378946D01*
X41378950Y-57378947D01*
X41378949Y-57378949D01*
X41220589Y-57508912D01*
X41039915Y-57605484D01*
X40843875Y-57664952D01*
X40640000Y-57685032D01*
X40436124Y-57664952D01*
X40240084Y-57605484D01*
X40059411Y-57508912D01*
X39950661Y-57419663D01*
X39901054Y-57378952D01*
X39901053Y-57378950D01*
X39901051Y-57378949D01*
X39771088Y-57220589D01*
X39674516Y-57039915D01*
X39615048Y-56843875D01*
X39600000Y-56691090D01*
X39600000Y-55068916D01*
X39615048Y-54916123D01*
X39655628Y-54782354D01*
X39674517Y-54720084D01*
X39771089Y-54539411D01*
X39901052Y-54381051D01*
X40059412Y-54251088D01*
X40240085Y-54154516D01*
X40436125Y-54095048D01*
X40640000Y-54074968D01*
X40843876Y-54095048D01*
X40843876Y-54095048D01*
G37*
G36*
X77115081Y-54083572D02*
X77144055Y-54092361D01*
X77170760Y-54106635D01*
X77194160Y-54125840D01*
X77213365Y-54149240D01*
X77227639Y-54175945D01*
X77236428Y-54204919D01*
X77240000Y-54241187D01*
X77240000Y-57518813D01*
X77236428Y-57555081D01*
X77227639Y-57584055D01*
X77213365Y-57610760D01*
X77194160Y-57634160D01*
X77170760Y-57653365D01*
X77144055Y-57667639D01*
X77115081Y-57676428D01*
X77078813Y-57680000D01*
X75321187Y-57680000D01*
X75284919Y-57676428D01*
X75255945Y-57667639D01*
X75229240Y-57653365D01*
X75205840Y-57634160D01*
X75186635Y-57610760D01*
X75172361Y-57584055D01*
X75163572Y-57555081D01*
X75160000Y-57518813D01*
X75160000Y-54241187D01*
X75163572Y-54204919D01*
X75172361Y-54175945D01*
X75186635Y-54149240D01*
X75205840Y-54125840D01*
X75229240Y-54106635D01*
X75255945Y-54092361D01*
X75284919Y-54083572D01*
X75321187Y-54080000D01*
X77078813Y-54080000D01*
X77115081Y-54083572D01*
X77115081Y-54083572D01*
G37*
M02*
